<svg width="40" height="40" viewBox="0 0 40 40" fill="none" xmlns="http://www.w3.org/2000/svg">
<g clip-path="url(#clip0_2860_5735)">
<path d="M40 20C40 8.95431 31.0457 0 20 0C8.95431 0 0 8.95431 0 20C0 31.0457 8.95431 40 20 40C25.3044 40 30.3914 37.8929 34.1422 34.1422C37.8929 30.3914 40 25.3044 40 20Z" fill="#FC336B"/>
<path d="M33.3128 20C33.3128 12.6477 27.3526 6.6875 20.0003 6.6875C12.648 6.6875 6.68774 12.6477 6.68774 20C6.68774 27.3523 12.648 33.3125 20.0003 33.3125C23.531 33.3125 26.917 31.91 29.4136 29.4134C31.9102 26.9168 33.3128 23.5307 33.3128 20Z" fill="#FF5C3B"/>
<path d="M26.6253 20C26.6253 16.3411 23.6591 13.375 20.0003 13.375C16.3414 13.375 13.3752 16.3411 13.3752 20C13.3752 23.6589 16.3414 26.625 20.0003 26.625C21.7578 26.6267 23.4439 25.9292 24.6867 24.6864C25.9295 23.4436 26.6269 21.7576 26.6253 20Z" fill="#FF9E1C"/>
<path d="M36.2499 8.36255L30.6624 12.0313C34.1999 16.7642 34.1999 23.261 30.6624 27.9938L36.2499 31.6688C38.6542 28.3296 39.9643 24.3272 39.9999 20.2126V20.0688V20.0001V19.8251C39.9612 15.7206 38.651 11.7291 36.2499 8.40005" fill="#FFADC4"/>
<path d="M30.669 12.0312L25.0439 15.7125C27.1522 18.1916 27.1522 21.8335 25.0439 24.3125L30.669 27.9938C34.2106 23.2623 34.2106 16.7627 30.669 12.0312Z" fill="#FFBDB0"/>
<path d="M25.0562 15.7125L21.0187 18.3625C19.6312 19.275 19.6312 20.7625 21.0187 21.675L25.0312 24.3125C27.1394 21.8335 27.1394 18.1916 25.0312 15.7125" fill="#FFD9A6"/>
</g>
<defs>
<clipPath id="clip0_2860_5735">
<rect width="40" height="40" fill="white"/>
</clipPath>
</defs>
</svg>
