<svg width="600" height="600" viewBox="0 0 600 600" fill="none" xmlns="http://www.w3.org/2000/svg">
<rect width="600" height="600" rx="20" fill="url(#paint0_linear_2957_7954)" fill-opacity="0.15"/>
<path d="M367.423 73.5H416.577C417.129 73.5 417.577 73.9477 417.577 74.5V102.8C417.577 103.353 417.129 103.8 416.577 103.8H367.423C366.871 103.8 366.423 103.353 366.423 102.8V74.5C366.423 73.9477 366.871 73.5 367.423 73.5Z" stroke="#829BC4" stroke-opacity="0.19" stroke-width="2"/>
<mask id="path-3-inside-1_2957_7954" fill="white">
<path d="M383.079 104.8H400.923V106.655H383.079V104.8Z"/>
</mask>
<path d="M383.079 104.8V102.8H381.079V104.8H383.079ZM400.923 104.8H402.923V102.8H400.923V104.8ZM400.923 106.655V108.655H402.923V106.655H400.923ZM383.079 106.655H381.079V108.655H383.079V106.655ZM383.079 106.8H400.923V102.8H383.079V106.8ZM398.923 104.8V106.655H402.923V104.8H398.923ZM400.923 104.655H383.079V108.655H400.923V104.655ZM385.079 106.655V104.8H381.079V106.655H385.079Z" fill="#829BC4" fill-opacity="0.19" mask="url(#path-3-inside-1_2957_7954)"/>
<mask id="path-5-inside-2_2957_7954" fill="white">
<path d="M381.114 106.654H402.884V107.687H381.114V106.654Z"/>
</mask>
<path d="M381.114 106.654V104.654H379.114V106.654H381.114ZM402.884 106.654H404.884V104.654H402.884V106.654ZM402.884 107.687V109.687H404.884V107.687H402.884ZM381.114 107.687H379.114V109.687H381.114V107.687ZM381.114 108.654H402.884V104.654H381.114V108.654ZM400.884 106.654V107.687H404.884V106.654H400.884ZM402.884 105.687H381.114V109.687H402.884V105.687ZM383.114 107.687V106.654H379.114V107.687H383.114Z" fill="#829BC4" fill-opacity="0.19" mask="url(#path-5-inside-2_2957_7954)"/>
<path d="M172.779 126.684H213.001C213.554 126.684 214.001 127.132 214.001 127.684V150.556C214.001 151.109 213.554 151.556 213.001 151.556H172.779C172.227 151.556 171.779 151.109 171.779 150.556V127.684C171.779 127.132 172.227 126.684 172.779 126.684Z" stroke="#829BC4" stroke-opacity="0.19" stroke-width="2"/>
<mask id="path-8-inside-3_2957_7954" fill="white">
<path d="M185.469 152.556H200.314V154.099H185.469V152.556Z"/>
</mask>
<path d="M185.469 152.556V150.556H183.469V152.556H185.469ZM200.314 152.556H202.314V150.556H200.314V152.556ZM200.314 154.099V156.099H202.314V154.099H200.314ZM185.469 154.099H183.469V156.099H185.469V154.099ZM185.469 154.556H200.314V150.556H185.469V154.556ZM198.314 152.556V154.099H202.314V152.556H198.314ZM200.314 152.099H185.469V156.099H200.314V152.099ZM187.469 154.099V152.556H183.469V154.099H187.469Z" fill="#829BC4" fill-opacity="0.19" mask="url(#path-8-inside-3_2957_7954)"/>
<mask id="path-10-inside-4_2957_7954" fill="white">
<path d="M183.834 154.099H201.945V154.958H183.834V154.099Z"/>
</mask>
<path d="M183.834 154.099V152.099H181.834V154.099H183.834ZM201.945 154.099H203.945V152.099H201.945V154.099ZM201.945 154.958V156.958H203.945V154.958H201.945ZM183.834 154.958H181.834V156.958H183.834V154.958ZM183.834 156.099H201.945V152.099H183.834V156.099ZM199.945 154.099V154.958H203.945V154.099H199.945ZM201.945 152.958H183.834V156.958H201.945V152.958ZM185.834 154.958V154.099H181.834V154.958H185.834Z" fill="#829BC4" fill-opacity="0.19" mask="url(#path-10-inside-4_2957_7954)"/>
<line x1="301.1" y1="347.6" x2="301.1" y2="396.4" stroke="#252A3A" stroke-width="2.2" stroke-linecap="square"/>
<path d="M299.504 346.356C318.476 346.356 333.856 330.976 333.856 312.004C333.856 293.032 318.476 277.652 299.504 277.652C280.532 277.652 265.152 293.032 265.152 312.004C265.152 330.976 280.532 346.356 299.504 346.356Z" stroke="#252A3A" stroke-width="2.5" stroke-miterlimit="10"/>
<path d="M299.504 312.004C295.428 312.004 292.117 308.7 292.117 304.617C292.117 300.54 295.428 297.229 299.504 297.229H306.891" stroke="#252A3A" stroke-width="2.5" stroke-linecap="round" stroke-linejoin="round"/>
<path d="M299.504 312.004C303.58 312.004 306.891 315.307 306.891 319.391C306.891 323.467 303.588 326.778 299.504 326.778H292.124" stroke="#252A3A" stroke-width="2.5" stroke-linecap="round" stroke-linejoin="round"/>
<path d="M299.504 289.85V297.237" stroke="#252A3A" stroke-width="2.5" stroke-linecap="round" stroke-linejoin="round"/>
<path d="M299.504 326.77V334.157" stroke="#252A3A" stroke-width="2.5" stroke-linecap="round" stroke-linejoin="round"/>
<path d="M301.099 222.5L301.1 276.4" stroke="#252A3A" stroke-width="2.2" stroke-linecap="round"/>
<path d="M435.13 397.5H165.71C160.347 397.5 156 401.847 156 407.21V543.37C156 548.733 160.347 553.08 165.71 553.08H435.13C440.493 553.08 444.84 548.733 444.84 543.37V407.21C444.84 401.847 440.493 397.5 435.13 397.5Z" fill="#829BC4" fill-opacity="0.12"/>
<path d="M420.72 428.51H180.11C177.492 428.51 175.37 430.632 175.37 433.25V530.97C175.37 533.588 177.492 535.71 180.11 535.71H420.72C423.338 535.71 425.46 533.588 425.46 530.97V433.25C425.46 430.632 423.338 428.51 420.72 428.51Z" fill="white"/>
<path d="M407.95 451.32H192.89V482.75H407.95V451.32Z" stroke="#DDDDDD" stroke-width="0.83" stroke-miterlimit="10"/>
<path d="M225.56 451.32H192.89V482.75H225.56V451.32Z" fill="#DDDDDD"/>
<path d="M405.87 496.66H362.53C361.348 496.66 360.39 497.618 360.39 498.8V513.78C360.39 514.962 361.348 515.92 362.53 515.92H405.87C407.052 515.92 408.01 514.962 408.01 513.78V498.8C408.01 497.618 407.052 496.66 405.87 496.66Z" fill="#00B6E0"/>
<path d="M350.16 496.66H306.82C305.638 496.66 304.68 497.618 304.68 498.8V513.78C304.68 514.962 305.638 515.92 306.82 515.92H350.16C351.342 515.92 352.3 514.962 352.3 513.78V498.8C352.3 497.618 351.342 496.66 350.16 496.66Z" fill="#DDDDDD"/>
<path d="M272.26 496.66H195.14C193.958 496.66 193 497.618 193 498.8V513.78C193 514.962 193.958 515.92 195.14 515.92H272.26C273.442 515.92 274.4 514.962 274.4 513.78V498.8C274.4 497.618 273.442 496.66 272.26 496.66Z" fill="#DDDDDD"/>
<path d="M209.949 462.835C210.417 462.835 210.902 462.896 211.405 463.017C211.908 463.138 212.35 463.351 212.731 463.654L211.483 465.175C211.275 464.993 211.037 464.863 210.768 464.785C210.499 464.698 210.226 464.646 209.949 464.629V466.696L211.197 467.06C211.769 467.233 212.224 467.519 212.562 467.918C212.909 468.308 213.082 468.806 213.082 469.413C213.082 469.872 213 470.275 212.835 470.622C212.67 470.969 212.445 471.263 212.159 471.506C211.873 471.749 211.539 471.939 211.158 472.078C210.777 472.217 210.374 472.308 209.949 472.351V473.261H209.091V472.351C208.519 472.351 207.947 472.273 207.375 472.117C206.812 471.961 206.313 471.688 205.88 471.298L207.258 469.751C207.483 470.028 207.756 470.228 208.077 470.349C208.398 470.462 208.736 470.531 209.091 470.557V468.36L208.142 468.074C207.483 467.866 206.981 467.576 206.634 467.203C206.296 466.822 206.127 466.302 206.127 465.643C206.127 465.236 206.209 464.867 206.374 464.538C206.539 464.209 206.755 463.927 207.024 463.693C207.301 463.459 207.618 463.268 207.973 463.121C208.337 462.974 208.71 462.878 209.091 462.835V461.925H209.949V462.835ZM209.091 464.668C208.848 464.72 208.632 464.811 208.441 464.941C208.25 465.071 208.155 465.275 208.155 465.552C208.155 465.751 208.194 465.907 208.272 466.02C208.35 466.133 208.441 466.224 208.545 466.293C208.649 466.354 208.753 466.397 208.857 466.423C208.961 466.449 209.039 466.471 209.091 466.488V464.668ZM209.949 470.531C210.079 470.505 210.209 470.47 210.339 470.427C210.478 470.375 210.599 470.31 210.703 470.232C210.807 470.154 210.889 470.063 210.95 469.959C211.019 469.846 211.054 469.716 211.054 469.569C211.054 469.43 211.028 469.313 210.976 469.218C210.933 469.123 210.872 469.045 210.794 468.984C210.716 468.915 210.625 468.858 210.521 468.815C210.417 468.763 210.309 468.715 210.196 468.672L209.949 468.581V470.531Z" fill="#666666"/>
<path d="M180.642 412.615C180.503 412.439 180.312 412.311 180.07 412.23C179.835 412.142 179.612 412.098 179.399 412.098C179.274 412.098 179.146 412.113 179.014 412.142C178.882 412.171 178.757 412.219 178.64 412.285C178.523 412.344 178.427 412.424 178.354 412.527C178.281 412.63 178.244 412.754 178.244 412.901C178.244 413.136 178.332 413.315 178.508 413.44C178.684 413.565 178.904 413.671 179.168 413.759C179.439 413.847 179.729 413.935 180.037 414.023C180.345 414.111 180.631 414.236 180.895 414.397C181.166 414.558 181.39 414.775 181.566 415.046C181.742 415.317 181.83 415.68 181.83 416.135C181.83 416.568 181.749 416.945 181.588 417.268C181.427 417.591 181.207 417.858 180.928 418.071C180.657 418.284 180.338 418.441 179.971 418.544C179.612 418.647 179.23 418.698 178.827 418.698C178.321 418.698 177.852 418.621 177.419 418.467C176.986 418.313 176.583 418.064 176.209 417.719L177.43 416.377C177.606 416.612 177.826 416.795 178.09 416.927C178.361 417.052 178.64 417.114 178.926 417.114C179.065 417.114 179.205 417.099 179.344 417.07C179.491 417.033 179.619 416.982 179.729 416.916C179.846 416.85 179.938 416.766 180.004 416.663C180.077 416.56 180.114 416.439 180.114 416.3C180.114 416.065 180.022 415.882 179.839 415.75C179.663 415.611 179.439 415.493 179.168 415.398C178.897 415.303 178.603 415.207 178.288 415.112C177.973 415.017 177.679 414.888 177.408 414.727C177.137 414.566 176.909 414.353 176.726 414.089C176.55 413.825 176.462 413.477 176.462 413.044C176.462 412.626 176.543 412.259 176.704 411.944C176.873 411.629 177.093 411.365 177.364 411.152C177.643 410.939 177.962 410.782 178.321 410.679C178.68 410.569 179.051 410.514 179.432 410.514C179.872 410.514 180.297 410.576 180.708 410.701C181.119 410.826 181.489 411.035 181.819 411.328L180.642 412.615ZM187.959 417.576C187.695 417.913 187.362 418.174 186.958 418.357C186.555 418.54 186.137 418.632 185.704 418.632C185.294 418.632 184.905 418.566 184.538 418.434C184.179 418.302 183.864 418.115 183.592 417.873C183.328 417.624 183.119 417.327 182.965 416.982C182.811 416.637 182.734 416.252 182.734 415.827C182.734 415.402 182.811 415.017 182.965 414.672C183.119 414.327 183.328 414.034 183.592 413.792C183.864 413.543 184.179 413.352 184.538 413.22C184.905 413.088 185.294 413.022 185.704 413.022C186.086 413.022 186.43 413.088 186.738 413.22C187.054 413.352 187.318 413.543 187.53 413.792C187.75 414.034 187.919 414.327 188.036 414.672C188.154 415.017 188.212 415.402 188.212 415.827V416.344H184.384C184.45 416.659 184.593 416.912 184.813 417.103C185.033 417.286 185.305 417.378 185.627 417.378C185.899 417.378 186.126 417.319 186.309 417.202C186.5 417.077 186.665 416.92 186.804 416.729L187.959 417.576ZM186.562 415.222C186.57 414.943 186.478 414.705 186.287 414.507C186.097 414.309 185.851 414.21 185.55 414.21C185.367 414.21 185.206 414.239 185.066 414.298C184.927 414.357 184.806 414.434 184.703 414.529C184.608 414.617 184.531 414.723 184.472 414.848C184.421 414.965 184.392 415.09 184.384 415.222H186.562ZM192.857 414.474H191.405V416.256C191.405 416.403 191.412 416.538 191.427 416.663C191.441 416.78 191.474 416.883 191.526 416.971C191.577 417.059 191.654 417.129 191.757 417.18C191.867 417.224 192.01 417.246 192.186 417.246C192.274 417.246 192.387 417.239 192.527 417.224C192.673 417.202 192.783 417.158 192.857 417.092V418.467C192.673 418.533 192.483 418.577 192.285 418.599C192.087 418.621 191.892 418.632 191.702 418.632C191.423 418.632 191.166 418.603 190.932 418.544C190.697 418.485 190.492 418.394 190.316 418.269C190.14 418.137 190 417.968 189.898 417.763C189.802 417.558 189.755 417.308 189.755 417.015V414.474H188.699V413.154H189.755V411.57H191.405V413.154H192.857V414.474ZM197.159 410.712H200.173C200.569 410.712 200.943 410.752 201.295 410.833C201.655 410.906 201.966 411.035 202.23 411.218C202.502 411.394 202.714 411.636 202.868 411.944C203.03 412.245 203.11 412.622 203.11 413.077C203.11 413.627 202.967 414.096 202.681 414.485C202.395 414.866 201.977 415.108 201.427 415.211L203.407 418.5H201.35L199.722 415.387H198.875V418.5H197.159V410.712ZM198.875 413.935H199.887C200.041 413.935 200.203 413.931 200.371 413.924C200.547 413.909 200.705 413.876 200.844 413.825C200.984 413.766 201.097 413.678 201.185 413.561C201.281 413.444 201.328 413.279 201.328 413.066C201.328 412.868 201.288 412.71 201.207 412.593C201.127 412.476 201.024 412.388 200.899 412.329C200.775 412.263 200.632 412.219 200.47 412.197C200.309 412.175 200.151 412.164 199.997 412.164H198.875V413.935ZM203.874 414.606C203.874 413.983 203.977 413.418 204.182 412.912C204.395 412.406 204.688 411.977 205.062 411.625C205.436 411.266 205.88 410.991 206.393 410.8C206.906 410.609 207.467 410.514 208.076 410.514C208.685 410.514 209.246 410.609 209.759 410.8C210.272 410.991 210.716 411.266 211.09 411.625C211.464 411.977 211.754 412.406 211.959 412.912C212.172 413.418 212.278 413.983 212.278 414.606C212.278 415.229 212.172 415.794 211.959 416.3C211.754 416.806 211.464 417.239 211.09 417.598C210.716 417.95 210.272 418.221 209.759 418.412C209.246 418.603 208.685 418.698 208.076 418.698C207.467 418.698 206.906 418.603 206.393 418.412C205.88 418.221 205.436 417.95 205.062 417.598C204.688 417.239 204.395 416.806 204.182 416.3C203.977 415.794 203.874 415.229 203.874 414.606ZM205.656 414.606C205.656 414.973 205.711 415.31 205.821 415.618C205.938 415.919 206.103 416.183 206.316 416.41C206.529 416.63 206.782 416.802 207.075 416.927C207.376 417.052 207.709 417.114 208.076 417.114C208.443 417.114 208.773 417.052 209.066 416.927C209.367 416.802 209.623 416.63 209.836 416.41C210.049 416.183 210.21 415.919 210.32 415.618C210.437 415.31 210.496 414.973 210.496 414.606C210.496 414.247 210.437 413.913 210.32 413.605C210.21 413.297 210.049 413.033 209.836 412.813C209.623 412.586 209.367 412.41 209.066 412.285C208.773 412.16 208.443 412.098 208.076 412.098C207.709 412.098 207.376 412.16 207.075 412.285C206.782 412.41 206.529 412.586 206.316 412.813C206.103 413.033 205.938 413.297 205.821 413.605C205.711 413.913 205.656 414.247 205.656 414.606ZM216.007 410.712H217.426L220.814 418.5H218.878L218.207 416.85H215.182L214.533 418.5H212.641L216.007 410.712ZM216.667 412.978L215.721 415.398H217.624L216.667 412.978ZM225.448 412.615C225.308 412.439 225.118 412.311 224.876 412.23C224.641 412.142 224.417 412.098 224.205 412.098C224.08 412.098 223.952 412.113 223.82 412.142C223.688 412.171 223.563 412.219 223.446 412.285C223.328 412.344 223.233 412.424 223.16 412.527C223.086 412.63 223.05 412.754 223.05 412.901C223.05 413.136 223.138 413.315 223.314 413.44C223.49 413.565 223.71 413.671 223.974 413.759C224.245 413.847 224.535 413.935 224.843 414.023C225.151 414.111 225.437 414.236 225.701 414.397C225.972 414.558 226.196 414.775 226.372 415.046C226.548 415.317 226.636 415.68 226.636 416.135C226.636 416.568 226.555 416.945 226.394 417.268C226.232 417.591 226.012 417.858 225.734 418.071C225.462 418.284 225.143 418.441 224.777 418.544C224.417 418.647 224.036 418.698 223.633 418.698C223.127 418.698 222.657 418.621 222.225 418.467C221.792 418.313 221.389 418.064 221.015 417.719L222.236 416.377C222.412 416.612 222.632 416.795 222.896 416.927C223.167 417.052 223.446 417.114 223.732 417.114C223.871 417.114 224.01 417.099 224.15 417.07C224.296 417.033 224.425 416.982 224.535 416.916C224.652 416.85 224.744 416.766 224.81 416.663C224.883 416.56 224.92 416.439 224.92 416.3C224.92 416.065 224.828 415.882 224.645 415.75C224.469 415.611 224.245 415.493 223.974 415.398C223.702 415.303 223.409 415.207 223.094 415.112C222.778 415.017 222.485 414.888 222.214 414.727C221.942 414.566 221.715 414.353 221.532 414.089C221.356 413.825 221.268 413.477 221.268 413.044C221.268 412.626 221.348 412.259 221.51 411.944C221.678 411.629 221.898 411.365 222.17 411.152C222.448 410.939 222.767 410.782 223.127 410.679C223.486 410.569 223.856 410.514 224.238 410.514C224.678 410.514 225.103 410.576 225.514 410.701C225.924 410.826 226.295 411.035 226.625 411.328L225.448 412.615ZM238.22 417.95C237.714 418.214 237.186 418.405 236.636 418.522C236.086 418.639 235.525 418.698 234.953 418.698C234.344 418.698 233.783 418.603 233.27 418.412C232.757 418.221 232.313 417.95 231.939 417.598C231.565 417.239 231.272 416.806 231.059 416.3C230.854 415.794 230.751 415.229 230.751 414.606C230.751 413.983 230.854 413.418 231.059 412.912C231.272 412.406 231.565 411.977 231.939 411.625C232.313 411.266 232.757 410.991 233.27 410.8C233.783 410.609 234.344 410.514 234.953 410.514C235.576 410.514 236.148 410.591 236.669 410.745C237.197 410.892 237.659 411.148 238.055 411.515L236.845 412.835C236.61 412.593 236.346 412.41 236.053 412.285C235.76 412.16 235.393 412.098 234.953 412.098C234.586 412.098 234.253 412.16 233.952 412.285C233.659 412.41 233.406 412.586 233.193 412.813C232.98 413.033 232.815 413.297 232.698 413.605C232.588 413.913 232.533 414.247 232.533 414.606C232.533 414.973 232.588 415.31 232.698 415.618C232.815 415.919 232.98 416.183 233.193 416.41C233.406 416.63 233.659 416.802 233.952 416.927C234.253 417.052 234.586 417.114 234.953 417.114C235.327 417.114 235.65 417.074 235.921 416.993C236.192 416.905 236.409 416.817 236.57 416.729V415.464H235.173V413.88H238.22V417.95ZM239.323 415.827C239.323 415.402 239.4 415.017 239.554 414.672C239.708 414.327 239.917 414.034 240.181 413.792C240.453 413.543 240.768 413.352 241.127 413.22C241.494 413.088 241.883 413.022 242.293 413.022C242.704 413.022 243.089 413.088 243.448 413.22C243.815 413.352 244.13 413.543 244.394 413.792C244.666 414.034 244.878 414.327 245.032 414.672C245.186 415.017 245.263 415.402 245.263 415.827C245.263 416.252 245.186 416.637 245.032 416.982C244.878 417.327 244.666 417.624 244.394 417.873C244.13 418.115 243.815 418.302 243.448 418.434C243.089 418.566 242.704 418.632 242.293 418.632C241.883 418.632 241.494 418.566 241.127 418.434C240.768 418.302 240.453 418.115 240.181 417.873C239.917 417.624 239.708 417.327 239.554 416.982C239.4 416.637 239.323 416.252 239.323 415.827ZM240.973 415.827C240.973 416.23 241.087 416.557 241.314 416.806C241.549 417.055 241.875 417.18 242.293 417.18C242.711 417.18 243.034 417.055 243.261 416.806C243.496 416.557 243.613 416.23 243.613 415.827C243.613 415.424 243.496 415.097 243.261 414.848C243.034 414.599 242.711 414.474 242.293 414.474C241.875 414.474 241.549 414.599 241.314 414.848C241.087 415.097 240.973 415.424 240.973 415.827ZM249.59 417.829H249.568C249.385 418.115 249.139 418.32 248.831 418.445C248.531 418.57 248.212 418.632 247.874 418.632C247.625 418.632 247.383 418.595 247.148 418.522C246.921 418.456 246.719 418.353 246.543 418.214C246.367 418.075 246.228 417.902 246.125 417.697C246.023 417.492 245.971 417.253 245.971 416.982C245.971 416.674 246.026 416.414 246.136 416.201C246.254 415.988 246.408 415.812 246.598 415.673C246.796 415.534 247.02 415.427 247.269 415.354C247.519 415.273 247.775 415.215 248.039 415.178C248.311 415.141 248.578 415.119 248.842 415.112C249.114 415.105 249.363 415.101 249.59 415.101C249.59 414.808 249.484 414.577 249.271 414.408C249.066 414.232 248.82 414.144 248.534 414.144C248.263 414.144 248.014 414.203 247.786 414.32C247.566 414.43 247.368 414.584 247.192 414.782L246.312 413.88C246.62 413.594 246.98 413.381 247.39 413.242C247.801 413.095 248.226 413.022 248.666 413.022C249.15 413.022 249.546 413.084 249.854 413.209C250.17 413.326 250.419 413.502 250.602 413.737C250.793 413.972 250.925 414.261 250.998 414.606C251.072 414.943 251.108 415.336 251.108 415.783V418.5H249.59V417.829ZM249.183 416.157C249.059 416.157 248.901 416.164 248.71 416.179C248.527 416.186 248.347 416.216 248.171 416.267C248.003 416.318 247.856 416.395 247.731 416.498C247.614 416.601 247.555 416.744 247.555 416.927C247.555 417.125 247.64 417.272 247.808 417.367C247.977 417.462 248.153 417.51 248.336 417.51C248.498 417.51 248.652 417.488 248.798 417.444C248.952 417.4 249.088 417.338 249.205 417.257C249.323 417.176 249.414 417.074 249.48 416.949C249.554 416.824 249.59 416.678 249.59 416.509V416.157H249.183ZM252.166 410.184H253.816V418.5H252.166V410.184Z" fill="#181625"/>
<g opacity="0.13" clip-path="url(#clip0_2957_7954)">
<path d="M275.5 71.0713C281.615 71.0713 286.571 66.1145 286.571 59.9999C286.571 53.8853 281.615 48.9285 275.5 48.9285C269.385 48.9285 264.429 53.8853 264.429 59.9999C264.429 66.1145 269.385 71.0713 275.5 71.0713Z" stroke="#829BC4" stroke-width="2" stroke-miterlimit="10"/>
<path d="M283.348 67.8064L277.714 65.1638" stroke="#829BC4" stroke-width="2" stroke-miterlimit="10" stroke-linecap="round"/>
<path d="M273.286 65.1638L267.652 67.8064" stroke="#829BC4" stroke-width="2" stroke-miterlimit="10" stroke-linecap="round"/>
<path d="M277.714 65.1639C279.931 63.4515 279.927 60.414 279.927 60.414V56.5146C279.608 54.7187 277.44 53.3518 275.5 53.3518C273.556 53.3518 271.392 54.7187 271.073 56.5146V60.414C271.073 60.414 271.065 63.4477 273.286 65.1639" stroke="#829BC4" stroke-width="2" stroke-miterlimit="10" stroke-linecap="round"/>
</g>
<g opacity="0.1" clip-path="url(#clip1_2957_7954)">
<path d="M214.5 241.071C220.615 241.071 225.571 236.114 225.571 230C225.571 223.885 220.615 218.928 214.5 218.928C208.385 218.928 203.429 223.885 203.429 230C203.429 236.114 208.385 241.071 214.5 241.071Z" stroke="#829BC4" stroke-width="2" stroke-miterlimit="10"/>
<path d="M222.348 237.806L216.714 235.164" stroke="#829BC4" stroke-width="2" stroke-miterlimit="10" stroke-linecap="round"/>
<path d="M212.286 235.164L206.652 237.806" stroke="#829BC4" stroke-width="2" stroke-miterlimit="10" stroke-linecap="round"/>
<path d="M216.714 235.164C218.931 233.451 218.927 230.414 218.927 230.414V226.515C218.608 224.719 216.44 223.352 214.5 223.352C212.556 223.352 210.392 224.719 210.073 226.515V230.414C210.073 230.414 210.065 233.448 212.286 235.164" stroke="#829BC4" stroke-width="2" stroke-miterlimit="10" stroke-linecap="round"/>
</g>
<g opacity="0.1">
<path d="M392 230.214C401.783 230.214 409.714 222.283 409.714 212.5C409.714 202.717 401.783 194.786 392 194.786C382.217 194.786 374.286 202.717 374.286 212.5C374.286 222.283 382.217 230.214 392 230.214Z" stroke="#829BC4" stroke-width="2" stroke-miterlimit="10"/>
<path d="M404.557 224.99L395.542 220.762" stroke="#829BC4" stroke-width="2" stroke-miterlimit="10" stroke-linecap="round"/>
<path d="M388.458 220.762L379.443 224.99" stroke="#829BC4" stroke-width="2" stroke-miterlimit="10" stroke-linecap="round"/>
<path d="M395.542 220.762C399.089 218.022 399.083 213.162 399.083 213.162V206.923C398.573 204.05 395.104 201.863 392 201.863C388.89 201.863 385.427 204.05 384.917 206.923V213.162C384.917 213.162 384.904 218.016 388.458 220.762" stroke="#829BC4" stroke-width="2" stroke-miterlimit="10" stroke-linecap="round"/>
</g>
<circle cx="300.949" cy="165.592" r="57" fill="white" stroke="#252A3A" stroke-width="2"/>
<g clip-path="url(#clip2_2957_7954)">
<path d="M330.737 141.299H269.387C268.177 141.299 267.196 142.28 267.196 143.49V182.929C267.196 184.139 268.177 185.12 269.387 185.12H330.737C331.947 185.12 332.928 184.139 332.928 182.929V143.49C332.928 142.28 331.947 141.299 330.737 141.299Z" stroke="black" stroke-width="2.04166" stroke-linecap="round" stroke-linejoin="round"/>
<path d="M317.591 189.884H282.533" stroke="black" stroke-width="2.04166" stroke-linecap="round" stroke-linejoin="round"/>
<path d="M323.784 149.051H276.338V175.828H323.784V149.051Z" fill="#EDEFF5"/>
<path d="M317.666 166.904H307.038C306.528 166.904 306.115 167.317 306.115 167.827V170.139C306.115 170.649 306.528 171.062 307.038 171.062H317.666C318.176 171.062 318.589 170.649 318.589 170.139V167.827C318.589 167.317 318.176 166.904 317.666 166.904Z" fill="#FC326C"/>
<path opacity="0.46" d="M282.159 156.355H310.198" stroke="#819AC3" stroke-width="2.04166" stroke-linecap="round" stroke-linejoin="round"/>
<path opacity="0.46" d="M282.159 160.779H300.852" stroke="#819AC3" stroke-width="2.04166" stroke-linecap="round" stroke-linejoin="round"/>
</g>
<circle cx="300.949" cy="165.592" r="57" fill="white" stroke="#252A3A" stroke-width="2"/>
<g clip-path="url(#clip3_2957_7954)">
<path d="M306.423 154.919H271.751V174.631H306.423V154.919Z" fill="#EDEFF5"/>
<path d="M287.209 143.396H294.774" stroke="black" stroke-width="1.00507" stroke-linecap="round" stroke-linejoin="round"/>
<path d="M325.035 149.069H309.903C307.815 149.069 306.122 150.762 306.122 152.851V190.677C306.122 192.765 307.815 194.458 309.903 194.458H325.035C327.123 194.458 328.816 192.765 328.816 190.677V152.851C328.816 150.762 327.123 149.069 325.035 149.069Z" stroke="black" stroke-width="2.2614" stroke-linecap="round" stroke-linejoin="round"/>
<path d="M315.579 154.743H319.361" stroke="black" stroke-width="1.00507" stroke-linecap="round" stroke-linejoin="round"/>
<path d="M292.249 183.111C292.249 182.417 291.687 181.855 290.993 181.855C290.299 181.855 289.737 182.417 289.737 183.111C289.737 183.805 290.299 184.367 290.993 184.367C291.687 184.367 292.249 183.805 292.249 183.111Z" fill="black"/>
<path d="M318.725 186.895C318.725 186.201 318.163 185.639 317.469 185.639C316.775 185.639 316.213 186.201 316.213 186.895C316.213 187.589 316.775 188.151 317.469 188.151C318.163 188.151 318.725 187.589 318.725 186.895Z" fill="black"/>
<path d="M298.558 190.677H275.861C273.781 190.677 272.08 188.973 272.08 186.895V141.504C272.08 139.423 273.784 137.722 275.861 137.722H306.122C308.202 137.722 309.903 139.426 309.903 141.504" stroke="black" stroke-width="2.2614" stroke-linecap="round" stroke-linejoin="round"/>
<path d="M322.909 175.307H313.077C312.605 175.307 312.222 175.689 312.222 176.161V178.299C312.222 178.771 312.605 179.154 313.077 179.154H322.909C323.381 179.154 323.763 178.771 323.763 178.299V176.161C323.763 175.689 323.381 175.307 322.909 175.307Z" fill="#FC326C"/>
<path opacity="0.46" d="M296.836 164.455C296.836 161.217 294.211 158.592 290.973 158.592C287.735 158.592 285.11 161.217 285.11 164.455C285.11 167.693 287.735 170.318 290.973 170.318C294.211 170.318 296.836 167.693 296.836 164.455Z" fill="#819AC3"/>
<path d="M288.949 164.592V161.592L291.452 163.092L293.949 164.592L291.452 166.092L288.949 167.592V164.592Z" fill="white"/>
</g>
<defs>
<linearGradient id="paint0_linear_2957_7954" x1="300" y1="0" x2="300" y2="600" gradientUnits="userSpaceOnUse">
<stop stop-color="#829BC4"/>
<stop offset="1" stop-color="#829BC4" stop-opacity="0"/>
</linearGradient>
<clipPath id="clip0_2957_7954">
<rect width="25" height="25" fill="white" transform="translate(263 47.5)"/>
</clipPath>
<clipPath id="clip1_2957_7954">
<rect width="25" height="25" fill="white" transform="translate(202 217.5)"/>
</clipPath>
<clipPath id="clip2_2957_7954">
<rect width="67.7742" height="50.6265" fill="white" transform="translate(266.175 140.278)"/>
</clipPath>
<clipPath id="clip3_2957_7954">
<rect width="59" height="59" fill="white" transform="translate(270.949 136.592)"/>
</clipPath>
</defs>
</svg>
