<svg width="600" height="600" viewBox="0 0 600 600" fill="none" xmlns="http://www.w3.org/2000/svg">
<rect width="600" height="600" rx="20" fill="url(#paint0_linear_2957_8031)" fill-opacity="0.15"/>
<path d="M366.423 74.5C366.423 73.9477 366.871 73.5 367.423 73.5H416.577C417.129 73.5 417.577 73.9477 417.577 74.5V102.8C417.577 103.353 417.129 103.8 416.577 103.8H367.423C366.871 103.8 366.423 103.353 366.423 102.8V74.5Z" stroke="#829BC4" stroke-opacity="0.19" stroke-width="2"/>
<mask id="path-3-inside-1_2957_8031" fill="white">
<path d="M383.079 104.8H400.923V106.655H383.079V104.8Z"/>
</mask>
<path d="M383.079 104.8V102.8H381.079V104.8H383.079ZM400.923 104.8H402.923V102.8H400.923V104.8ZM400.923 106.655V108.655H402.923V106.655H400.923ZM383.079 106.655H381.079V108.655H383.079V106.655ZM383.079 106.8H400.923V102.8H383.079V106.8ZM398.923 104.8V106.655H402.923V104.8H398.923ZM400.923 104.655H383.079V108.655H400.923V104.655ZM385.079 106.655V104.8H381.079V106.655H385.079Z" fill="#829BC4" fill-opacity="0.19" mask="url(#path-3-inside-1_2957_8031)"/>
<mask id="path-5-inside-2_2957_8031" fill="white">
<path d="M381.114 106.654H402.884V107.687H381.114V106.654Z"/>
</mask>
<path d="M381.114 106.654V104.654H379.114V106.654H381.114ZM402.884 106.654H404.884V104.654H402.884V106.654ZM402.884 107.687V109.687H404.884V107.687H402.884ZM381.114 107.687H379.114V109.687H381.114V107.687ZM381.114 108.654H402.884V104.654H381.114V108.654ZM400.884 106.654V107.687H404.884V106.654H400.884ZM402.884 105.687H381.114V109.687H402.884V105.687ZM383.114 107.687V106.654H379.114V107.687H383.114Z" fill="#829BC4" fill-opacity="0.19" mask="url(#path-5-inside-2_2957_8031)"/>
<path d="M171.779 127.684C171.779 127.132 172.227 126.684 172.779 126.684H213.001C213.554 126.684 214.001 127.132 214.001 127.684V150.556C214.001 151.109 213.554 151.556 213.001 151.556H172.779C172.227 151.556 171.779 151.109 171.779 150.556V127.684Z" stroke="#829BC4" stroke-opacity="0.19" stroke-width="2"/>
<mask id="path-8-inside-3_2957_8031" fill="white">
<path d="M185.469 152.556H200.314V154.099H185.469V152.556Z"/>
</mask>
<path d="M185.469 152.556V150.556H183.469V152.556H185.469ZM200.314 152.556H202.314V150.556H200.314V152.556ZM200.314 154.099V156.099H202.314V154.099H200.314ZM185.469 154.099H183.469V156.099H185.469V154.099ZM185.469 154.556H200.314V150.556H185.469V154.556ZM198.314 152.556V154.099H202.314V152.556H198.314ZM200.314 152.099H185.469V156.099H200.314V152.099ZM187.469 154.099V152.556H183.469V154.099H187.469Z" fill="#829BC4" fill-opacity="0.19" mask="url(#path-8-inside-3_2957_8031)"/>
<mask id="path-10-inside-4_2957_8031" fill="white">
<path d="M183.834 154.099H201.945V154.958H183.834V154.099Z"/>
</mask>
<path d="M183.834 154.099V152.099H181.834V154.099H183.834ZM201.945 154.099H203.945V152.099H201.945V154.099ZM201.945 154.958V156.958H203.945V154.958H201.945ZM183.834 154.958H181.834V156.958H183.834V154.958ZM183.834 156.099H201.945V152.099H183.834V156.099ZM199.945 154.099V154.958H203.945V154.099H199.945ZM201.945 152.958H183.834V156.958H201.945V152.958ZM185.834 154.958V154.099H181.834V154.958H185.834Z" fill="#829BC4" fill-opacity="0.19" mask="url(#path-10-inside-4_2957_8031)"/>
<line x1="301.1" y1="347.6" x2="301.1" y2="396.4" stroke="#252A3A" stroke-width="2.2" stroke-linecap="square"/>
<path d="M299.504 346.356C318.476 346.356 333.856 330.976 333.856 312.004C333.856 293.032 318.476 277.652 299.504 277.652C280.532 277.652 265.152 293.032 265.152 312.004C265.152 330.976 280.532 346.356 299.504 346.356Z" stroke="#252A3A" stroke-width="2.5" stroke-miterlimit="10"/>
<path d="M299.504 312.004C295.428 312.004 292.117 308.7 292.117 304.617C292.117 300.54 295.428 297.229 299.504 297.229H306.891" stroke="#252A3A" stroke-width="2.5" stroke-linecap="round" stroke-linejoin="round"/>
<path d="M299.504 312.004C303.58 312.004 306.891 315.307 306.891 319.391C306.891 323.467 303.588 326.778 299.504 326.778H292.124" stroke="#252A3A" stroke-width="2.5" stroke-linecap="round" stroke-linejoin="round"/>
<path d="M299.504 289.85V297.237" stroke="#252A3A" stroke-width="2.5" stroke-linecap="round" stroke-linejoin="round"/>
<path d="M299.504 326.77V334.157" stroke="#252A3A" stroke-width="2.5" stroke-linecap="round" stroke-linejoin="round"/>
<path d="M301.099 222.5L301.1 276.4" stroke="#252A3A" stroke-width="2.2" stroke-linecap="round"/>
<path d="M435.13 397.5H165.71C160.347 397.5 156 401.847 156 407.21V543.37C156 548.733 160.347 553.08 165.71 553.08H435.13C440.493 553.08 444.84 548.733 444.84 543.37V407.21C444.84 401.847 440.493 397.5 435.13 397.5Z" fill="#829BC4" fill-opacity="0.12"/>
<path d="M420.72 428.51H180.11C177.492 428.51 175.37 430.632 175.37 433.25V530.97C175.37 533.588 177.492 535.71 180.11 535.71H420.72C423.338 535.71 425.46 533.588 425.46 530.97V433.25C425.46 430.632 423.338 428.51 420.72 428.51Z" fill="white"/>
<path d="M407.95 451.32H192.89V482.75H407.95V451.32Z" stroke="#DDDDDD" stroke-width="0.83" stroke-miterlimit="10"/>
<path d="M225.56 451.32H192.89V482.75H225.56V451.32Z" fill="#DDDDDD"/>
<path d="M405.87 496.66H362.53C361.348 496.66 360.39 497.618 360.39 498.8V513.78C360.39 514.962 361.348 515.92 362.53 515.92H405.87C407.052 515.92 408.01 514.962 408.01 513.78V498.8C408.01 497.618 407.052 496.66 405.87 496.66Z" fill="#00B6E0"/>
<path d="M350.16 496.66H306.82C305.638 496.66 304.68 497.618 304.68 498.8V513.78C304.68 514.962 305.638 515.92 306.82 515.92H350.16C351.342 515.92 352.3 514.962 352.3 513.78V498.8C352.3 497.618 351.342 496.66 350.16 496.66Z" fill="#DDDDDD"/>
<path d="M272.26 496.66H195.14C193.958 496.66 193 497.618 193 498.8V513.78C193 514.962 193.958 515.92 195.14 515.92H272.26C273.442 515.92 274.4 514.962 274.4 513.78V498.8C274.4 497.618 273.442 496.66 272.26 496.66Z" fill="#DDDDDD"/>
<path d="M209.949 462.835C210.417 462.835 210.902 462.896 211.405 463.017C211.908 463.138 212.35 463.351 212.731 463.654L211.483 465.175C211.275 464.993 211.037 464.863 210.768 464.785C210.499 464.698 210.226 464.646 209.949 464.629V466.696L211.197 467.06C211.769 467.233 212.224 467.519 212.562 467.918C212.909 468.308 213.082 468.806 213.082 469.413C213.082 469.872 213 470.275 212.835 470.622C212.67 470.969 212.445 471.263 212.159 471.506C211.873 471.749 211.539 471.939 211.158 472.078C210.777 472.217 210.374 472.308 209.949 472.351V473.261H209.091V472.351C208.519 472.351 207.947 472.273 207.375 472.117C206.812 471.961 206.313 471.688 205.88 471.298L207.258 469.751C207.483 470.028 207.756 470.228 208.077 470.349C208.398 470.462 208.736 470.531 209.091 470.557V468.36L208.142 468.074C207.483 467.866 206.981 467.576 206.634 467.203C206.296 466.822 206.127 466.302 206.127 465.643C206.127 465.236 206.209 464.867 206.374 464.538C206.539 464.209 206.755 463.927 207.024 463.693C207.301 463.459 207.618 463.268 207.973 463.121C208.337 462.974 208.71 462.878 209.091 462.835V461.925H209.949V462.835ZM209.091 464.668C208.848 464.72 208.632 464.811 208.441 464.941C208.25 465.071 208.155 465.275 208.155 465.552C208.155 465.751 208.194 465.907 208.272 466.02C208.35 466.133 208.441 466.224 208.545 466.293C208.649 466.354 208.753 466.397 208.857 466.423C208.961 466.449 209.039 466.471 209.091 466.488V464.668ZM209.949 470.531C210.079 470.505 210.209 470.47 210.339 470.427C210.478 470.375 210.599 470.31 210.703 470.232C210.807 470.154 210.889 470.063 210.95 469.959C211.019 469.846 211.054 469.716 211.054 469.569C211.054 469.43 211.028 469.313 210.976 469.218C210.933 469.123 210.872 469.045 210.794 468.984C210.716 468.915 210.625 468.858 210.521 468.815C210.417 468.763 210.309 468.715 210.196 468.672L209.949 468.581V470.531Z" fill="#666666"/>
<path d="M180.642 412.615C180.503 412.439 180.312 412.311 180.07 412.23C179.835 412.142 179.612 412.098 179.399 412.098C179.274 412.098 179.146 412.113 179.014 412.142C178.882 412.171 178.757 412.219 178.64 412.285C178.523 412.344 178.427 412.424 178.354 412.527C178.281 412.63 178.244 412.754 178.244 412.901C178.244 413.136 178.332 413.315 178.508 413.44C178.684 413.565 178.904 413.671 179.168 413.759C179.439 413.847 179.729 413.935 180.037 414.023C180.345 414.111 180.631 414.236 180.895 414.397C181.166 414.558 181.39 414.775 181.566 415.046C181.742 415.317 181.83 415.68 181.83 416.135C181.83 416.568 181.749 416.945 181.588 417.268C181.427 417.591 181.207 417.858 180.928 418.071C180.657 418.284 180.338 418.441 179.971 418.544C179.612 418.647 179.23 418.698 178.827 418.698C178.321 418.698 177.852 418.621 177.419 418.467C176.986 418.313 176.583 418.064 176.209 417.719L177.43 416.377C177.606 416.612 177.826 416.795 178.09 416.927C178.361 417.052 178.64 417.114 178.926 417.114C179.065 417.114 179.205 417.099 179.344 417.07C179.491 417.033 179.619 416.982 179.729 416.916C179.846 416.85 179.938 416.766 180.004 416.663C180.077 416.56 180.114 416.439 180.114 416.3C180.114 416.065 180.022 415.882 179.839 415.75C179.663 415.611 179.439 415.493 179.168 415.398C178.897 415.303 178.603 415.207 178.288 415.112C177.973 415.017 177.679 414.888 177.408 414.727C177.137 414.566 176.909 414.353 176.726 414.089C176.55 413.825 176.462 413.477 176.462 413.044C176.462 412.626 176.543 412.259 176.704 411.944C176.873 411.629 177.093 411.365 177.364 411.152C177.643 410.939 177.962 410.782 178.321 410.679C178.68 410.569 179.051 410.514 179.432 410.514C179.872 410.514 180.297 410.576 180.708 410.701C181.119 410.826 181.489 411.035 181.819 411.328L180.642 412.615ZM187.959 417.576C187.695 417.913 187.362 418.174 186.958 418.357C186.555 418.54 186.137 418.632 185.704 418.632C185.294 418.632 184.905 418.566 184.538 418.434C184.179 418.302 183.864 418.115 183.592 417.873C183.328 417.624 183.119 417.327 182.965 416.982C182.811 416.637 182.734 416.252 182.734 415.827C182.734 415.402 182.811 415.017 182.965 414.672C183.119 414.327 183.328 414.034 183.592 413.792C183.864 413.543 184.179 413.352 184.538 413.22C184.905 413.088 185.294 413.022 185.704 413.022C186.086 413.022 186.43 413.088 186.738 413.22C187.054 413.352 187.318 413.543 187.53 413.792C187.75 414.034 187.919 414.327 188.036 414.672C188.154 415.017 188.212 415.402 188.212 415.827V416.344H184.384C184.45 416.659 184.593 416.912 184.813 417.103C185.033 417.286 185.305 417.378 185.627 417.378C185.899 417.378 186.126 417.319 186.309 417.202C186.5 417.077 186.665 416.92 186.804 416.729L187.959 417.576ZM186.562 415.222C186.57 414.943 186.478 414.705 186.287 414.507C186.097 414.309 185.851 414.21 185.55 414.21C185.367 414.21 185.206 414.239 185.066 414.298C184.927 414.357 184.806 414.434 184.703 414.529C184.608 414.617 184.531 414.723 184.472 414.848C184.421 414.965 184.392 415.09 184.384 415.222H186.562ZM192.857 414.474H191.405V416.256C191.405 416.403 191.412 416.538 191.427 416.663C191.441 416.78 191.474 416.883 191.526 416.971C191.577 417.059 191.654 417.129 191.757 417.18C191.867 417.224 192.01 417.246 192.186 417.246C192.274 417.246 192.387 417.239 192.527 417.224C192.673 417.202 192.783 417.158 192.857 417.092V418.467C192.673 418.533 192.483 418.577 192.285 418.599C192.087 418.621 191.892 418.632 191.702 418.632C191.423 418.632 191.166 418.603 190.932 418.544C190.697 418.485 190.492 418.394 190.316 418.269C190.14 418.137 190 417.968 189.898 417.763C189.802 417.558 189.755 417.308 189.755 417.015V414.474H188.699V413.154H189.755V411.57H191.405V413.154H192.857V414.474ZM202.252 412.736C202.084 412.531 201.875 412.373 201.625 412.263C201.383 412.153 201.101 412.098 200.778 412.098C200.456 412.098 200.155 412.16 199.876 412.285C199.605 412.41 199.367 412.586 199.161 412.813C198.963 413.033 198.806 413.297 198.688 413.605C198.578 413.913 198.523 414.247 198.523 414.606C198.523 414.973 198.578 415.31 198.688 415.618C198.806 415.919 198.963 416.183 199.161 416.41C199.359 416.63 199.59 416.802 199.854 416.927C200.126 417.052 200.415 417.114 200.723 417.114C201.075 417.114 201.387 417.041 201.658 416.894C201.93 416.747 202.153 416.542 202.329 416.278L203.759 417.345C203.429 417.807 203.011 418.148 202.505 418.368C201.999 418.588 201.479 418.698 200.943 418.698C200.335 418.698 199.774 418.603 199.26 418.412C198.747 418.221 198.303 417.95 197.929 417.598C197.555 417.239 197.262 416.806 197.049 416.3C196.844 415.794 196.741 415.229 196.741 414.606C196.741 413.983 196.844 413.418 197.049 412.912C197.262 412.406 197.555 411.977 197.929 411.625C198.303 411.266 198.747 410.991 199.26 410.8C199.774 410.609 200.335 410.514 200.943 410.514C201.163 410.514 201.391 410.536 201.625 410.58C201.867 410.617 202.102 410.679 202.329 410.767C202.564 410.855 202.788 410.972 203 411.119C203.213 411.266 203.404 411.445 203.572 411.658L202.252 412.736ZM204.689 410.712H207.582C207.986 410.712 208.367 410.749 208.726 410.822C209.086 410.895 209.397 411.024 209.661 411.207C209.933 411.383 210.145 411.625 210.299 411.933C210.461 412.234 210.541 412.615 210.541 413.077C210.541 413.532 210.468 413.913 210.321 414.221C210.175 414.529 209.973 414.775 209.716 414.958C209.46 415.141 209.155 415.273 208.803 415.354C208.451 415.427 208.07 415.464 207.659 415.464H206.405V418.5H204.689V410.712ZM206.405 414.012H207.549C207.703 414.012 207.85 413.997 207.989 413.968C208.136 413.939 208.264 413.891 208.374 413.825C208.492 413.752 208.583 413.656 208.649 413.539C208.723 413.414 208.759 413.26 208.759 413.077C208.759 412.879 208.712 412.721 208.616 412.604C208.528 412.479 208.411 412.384 208.264 412.318C208.125 412.252 207.967 412.212 207.791 412.197C207.615 412.175 207.447 412.164 207.285 412.164H206.405V414.012ZM211.596 410.712H213.312V418.5H211.596V410.712ZM225.179 417.95C224.673 418.214 224.145 418.405 223.595 418.522C223.045 418.639 222.484 418.698 221.912 418.698C221.303 418.698 220.742 418.603 220.229 418.412C219.716 418.221 219.272 417.95 218.898 417.598C218.524 417.239 218.231 416.806 218.018 416.3C217.813 415.794 217.71 415.229 217.71 414.606C217.71 413.983 217.813 413.418 218.018 412.912C218.231 412.406 218.524 411.977 218.898 411.625C219.272 411.266 219.716 410.991 220.229 410.8C220.742 410.609 221.303 410.514 221.912 410.514C222.535 410.514 223.107 410.591 223.628 410.745C224.156 410.892 224.618 411.148 225.014 411.515L223.804 412.835C223.569 412.593 223.305 412.41 223.012 412.285C222.719 412.16 222.352 412.098 221.912 412.098C221.545 412.098 221.212 412.16 220.911 412.285C220.618 412.41 220.365 412.586 220.152 412.813C219.939 413.033 219.774 413.297 219.657 413.605C219.547 413.913 219.492 414.247 219.492 414.606C219.492 414.973 219.547 415.31 219.657 415.618C219.774 415.919 219.939 416.183 220.152 416.41C220.365 416.63 220.618 416.802 220.911 416.927C221.212 417.052 221.545 417.114 221.912 417.114C222.286 417.114 222.609 417.074 222.88 416.993C223.151 416.905 223.368 416.817 223.529 416.729V415.464H222.132V413.88H225.179V417.95ZM226.282 415.827C226.282 415.402 226.359 415.017 226.513 414.672C226.667 414.327 226.876 414.034 227.14 413.792C227.412 413.543 227.727 413.352 228.086 413.22C228.453 413.088 228.842 413.022 229.252 413.022C229.663 413.022 230.048 413.088 230.407 413.22C230.774 413.352 231.089 413.543 231.353 413.792C231.625 414.034 231.837 414.327 231.991 414.672C232.145 415.017 232.222 415.402 232.222 415.827C232.222 416.252 232.145 416.637 231.991 416.982C231.837 417.327 231.625 417.624 231.353 417.873C231.089 418.115 230.774 418.302 230.407 418.434C230.048 418.566 229.663 418.632 229.252 418.632C228.842 418.632 228.453 418.566 228.086 418.434C227.727 418.302 227.412 418.115 227.14 417.873C226.876 417.624 226.667 417.327 226.513 416.982C226.359 416.637 226.282 416.252 226.282 415.827ZM227.932 415.827C227.932 416.23 228.046 416.557 228.273 416.806C228.508 417.055 228.834 417.18 229.252 417.18C229.67 417.18 229.993 417.055 230.22 416.806C230.455 416.557 230.572 416.23 230.572 415.827C230.572 415.424 230.455 415.097 230.22 414.848C229.993 414.599 229.67 414.474 229.252 414.474C228.834 414.474 228.508 414.599 228.273 414.848C228.046 415.097 227.932 415.424 227.932 415.827ZM236.549 417.829H236.527C236.344 418.115 236.098 418.32 235.79 418.445C235.49 418.57 235.171 418.632 234.833 418.632C234.584 418.632 234.342 418.595 234.107 418.522C233.88 418.456 233.678 418.353 233.502 418.214C233.326 418.075 233.187 417.902 233.084 417.697C232.982 417.492 232.93 417.253 232.93 416.982C232.93 416.674 232.985 416.414 233.095 416.201C233.213 415.988 233.367 415.812 233.557 415.673C233.755 415.534 233.979 415.427 234.228 415.354C234.478 415.273 234.734 415.215 234.998 415.178C235.27 415.141 235.537 415.119 235.801 415.112C236.073 415.105 236.322 415.101 236.549 415.101C236.549 414.808 236.443 414.577 236.23 414.408C236.025 414.232 235.779 414.144 235.493 414.144C235.222 414.144 234.973 414.203 234.745 414.32C234.525 414.43 234.327 414.584 234.151 414.782L233.271 413.88C233.579 413.594 233.939 413.381 234.349 413.242C234.76 413.095 235.185 413.022 235.625 413.022C236.109 413.022 236.505 413.084 236.813 413.209C237.129 413.326 237.378 413.502 237.561 413.737C237.752 413.972 237.884 414.261 237.957 414.606C238.031 414.943 238.067 415.336 238.067 415.783V418.5H236.549V417.829ZM236.142 416.157C236.018 416.157 235.86 416.164 235.669 416.179C235.486 416.186 235.306 416.216 235.13 416.267C234.962 416.318 234.815 416.395 234.69 416.498C234.573 416.601 234.514 416.744 234.514 416.927C234.514 417.125 234.599 417.272 234.767 417.367C234.936 417.462 235.112 417.51 235.295 417.51C235.457 417.51 235.611 417.488 235.757 417.444C235.911 417.4 236.047 417.338 236.164 417.257C236.282 417.176 236.373 417.074 236.439 416.949C236.513 416.824 236.549 416.678 236.549 416.509V416.157H236.142ZM239.125 410.184H240.775V418.5H239.125V410.184Z" fill="#181625"/>
<g opacity="0.13" clip-path="url(#clip0_2957_8031)">
<path d="M275.5 71.0713C281.615 71.0713 286.571 66.1145 286.571 59.9999C286.571 53.8853 281.615 48.9285 275.5 48.9285C269.385 48.9285 264.429 53.8853 264.429 59.9999C264.429 66.1145 269.385 71.0713 275.5 71.0713Z" stroke="#829BC4" stroke-width="2" stroke-miterlimit="10"/>
<path d="M283.348 67.8064L277.714 65.1638" stroke="#829BC4" stroke-width="2" stroke-miterlimit="10" stroke-linecap="round"/>
<path d="M273.286 65.1638L267.652 67.8064" stroke="#829BC4" stroke-width="2" stroke-miterlimit="10" stroke-linecap="round"/>
<path d="M277.714 65.1639C279.931 63.4515 279.927 60.414 279.927 60.414V56.5146C279.608 54.7187 277.44 53.3518 275.5 53.3518C273.556 53.3518 271.392 54.7187 271.073 56.5146V60.414C271.073 60.414 271.065 63.4477 273.286 65.1639" stroke="#829BC4" stroke-width="2" stroke-miterlimit="10" stroke-linecap="round"/>
</g>
<g opacity="0.1" clip-path="url(#clip1_2957_8031)">
<path d="M214.5 241.071C220.615 241.071 225.571 236.114 225.571 230C225.571 223.885 220.615 218.928 214.5 218.928C208.385 218.928 203.429 223.885 203.429 230C203.429 236.114 208.385 241.071 214.5 241.071Z" stroke="#829BC4" stroke-width="2" stroke-miterlimit="10"/>
<path d="M222.348 237.806L216.714 235.164" stroke="#829BC4" stroke-width="2" stroke-miterlimit="10" stroke-linecap="round"/>
<path d="M212.286 235.164L206.652 237.806" stroke="#829BC4" stroke-width="2" stroke-miterlimit="10" stroke-linecap="round"/>
<path d="M216.714 235.164C218.931 233.451 218.927 230.414 218.927 230.414V226.515C218.608 224.719 216.44 223.352 214.5 223.352C212.556 223.352 210.392 224.719 210.073 226.515V230.414C210.073 230.414 210.065 233.448 212.286 235.164" stroke="#829BC4" stroke-width="2" stroke-miterlimit="10" stroke-linecap="round"/>
</g>
<g opacity="0.1">
<path d="M392 230.214C401.783 230.214 409.714 222.283 409.714 212.5C409.714 202.717 401.783 194.786 392 194.786C382.217 194.786 374.286 202.717 374.286 212.5C374.286 222.283 382.217 230.214 392 230.214Z" stroke="#829BC4" stroke-width="2" stroke-miterlimit="10"/>
<path d="M404.557 224.99L395.542 220.762" stroke="#829BC4" stroke-width="2" stroke-miterlimit="10" stroke-linecap="round"/>
<path d="M388.458 220.762L379.443 224.99" stroke="#829BC4" stroke-width="2" stroke-miterlimit="10" stroke-linecap="round"/>
<path d="M395.542 220.762C399.089 218.022 399.083 213.162 399.083 213.162V206.923C398.573 204.05 395.104 201.863 392 201.863C388.89 201.863 385.427 204.05 384.917 206.923V213.162C384.917 213.162 384.904 218.016 388.458 220.762" stroke="#829BC4" stroke-width="2" stroke-miterlimit="10" stroke-linecap="round"/>
</g>
<circle cx="300.949" cy="165.592" r="57" fill="white" stroke="#252A3A" stroke-width="2"/>
<g clip-path="url(#clip2_2957_8031)">
<path d="M330.737 141.299H269.387C268.177 141.299 267.196 142.28 267.196 143.49V182.929C267.196 184.139 268.177 185.12 269.387 185.12H330.737C331.947 185.12 332.928 184.139 332.928 182.929V143.49C332.928 142.28 331.947 141.299 330.737 141.299Z" stroke="black" stroke-width="2.04166" stroke-linecap="round" stroke-linejoin="round"/>
<path d="M317.591 189.884H282.533" stroke="black" stroke-width="2.04166" stroke-linecap="round" stroke-linejoin="round"/>
<path d="M323.784 149.051H276.338V175.828H323.784V149.051Z" fill="#EDEFF5"/>
<path d="M317.666 166.904H307.038C306.528 166.904 306.115 167.317 306.115 167.827V170.139C306.115 170.649 306.528 171.062 307.038 171.062H317.666C318.176 171.062 318.589 170.649 318.589 170.139V167.827C318.589 167.317 318.176 166.904 317.666 166.904Z" fill="#FC326C"/>
<path opacity="0.46" d="M282.159 156.355H310.198" stroke="#819AC3" stroke-width="2.04166" stroke-linecap="round" stroke-linejoin="round"/>
<path opacity="0.46" d="M282.159 160.779H300.852" stroke="#819AC3" stroke-width="2.04166" stroke-linecap="round" stroke-linejoin="round"/>
</g>
<defs>
<linearGradient id="paint0_linear_2957_8031" x1="300" y1="0" x2="300" y2="600" gradientUnits="userSpaceOnUse">
<stop stop-color="#829BC4"/>
<stop offset="1" stop-color="#829BC4" stop-opacity="0"/>
</linearGradient>
<clipPath id="clip0_2957_8031">
<rect width="25" height="25" fill="white" transform="translate(263 47.5)"/>
</clipPath>
<clipPath id="clip1_2957_8031">
<rect width="25" height="25" fill="white" transform="translate(202 217.5)"/>
</clipPath>
<clipPath id="clip2_2957_8031">
<rect width="67.7742" height="50.6265" fill="white" transform="translate(266.175 140.278)"/>
</clipPath>
</defs>
</svg>
