<svg width="237" height="48" viewBox="0 0 237 48" fill="none" xmlns="http://www.w3.org/2000/svg">
<g clip-path="url(#clip0_3700_7853)">
<path d="M67.8273 39.1972H60.5264L59.5437 42.2862H54.6299L61.3131 22.6305H67.0412L73.7238 42.2862H68.81L67.8273 39.1972ZM66.4795 34.9853L64.1771 27.7692L61.8742 34.9853H66.4795Z" fill="black"/>
<path d="M90.0852 35.2661C90.0852 39.4503 87.0522 42.6794 83.3738 42.6794C82.5931 42.7219 81.8127 42.5902 81.0891 42.294C80.3656 41.9977 79.7169 41.5443 79.1902 40.9665V47.9023H74.9783V28.2461H79.1902V29.5662C79.7169 28.9883 80.3655 28.5348 81.0891 28.2385C81.8127 27.9423 82.5931 27.8107 83.3738 27.8533C87.0522 27.8533 90.0852 31.0824 90.0852 35.2661ZM85.8733 35.2661C85.8845 34.8202 85.8063 34.3767 85.6433 33.9615C85.4804 33.5464 85.236 33.168 84.9246 32.8488C84.6132 32.5295 84.2411 32.2758 83.8302 32.1026C83.4192 31.9293 82.9777 31.8401 82.5318 31.8401C82.0858 31.8401 81.6443 31.9293 81.2334 32.1026C80.8224 32.2758 80.4503 32.5295 80.1389 32.8488C79.8275 33.168 79.5831 33.5464 79.4202 33.9615C79.2573 34.3767 79.179 34.8202 79.1902 35.2661C79.179 35.7119 79.2573 36.1555 79.4202 36.5706C79.5831 36.9858 79.8275 37.3641 80.1389 37.6834C80.4503 38.0026 80.8224 38.2563 81.2334 38.4296C81.6443 38.6028 82.0858 38.692 82.5318 38.692C82.9777 38.692 83.4192 38.6028 83.8302 38.4296C84.2411 38.2563 84.6132 38.0026 84.9246 37.6834C85.236 37.3641 85.4804 36.9858 85.6433 36.5706C85.8063 36.1555 85.8845 35.7119 85.8733 35.2661V35.2661Z" fill="black"/>
<path d="M107.581 35.2662C107.581 39.4504 104.548 42.6795 100.87 42.6795C100.089 42.722 99.3085 42.5903 98.585 42.2941C97.8614 41.9978 97.2128 41.5444 96.686 40.9666V47.9024H92.4741V28.2462H96.686V29.5663C97.2127 28.9884 97.8613 28.5349 98.5849 28.2387C99.3085 27.9424 100.089 27.8108 100.87 27.8534C104.548 27.8534 107.581 31.0825 107.581 35.2662ZM103.369 35.2662C103.38 34.8204 103.302 34.3768 103.139 33.9616C102.976 33.5465 102.732 33.1682 102.42 32.8489C102.109 32.5296 101.737 32.2759 101.326 32.1027C100.915 31.9294 100.474 31.8402 100.028 31.8402C99.5816 31.8402 99.1402 31.9294 98.7292 32.1027C98.3183 32.2759 97.9461 32.5296 97.6347 32.8489C97.3233 33.1682 97.079 33.5465 96.916 33.9616C96.7531 34.3768 96.6749 34.8204 96.686 35.2662C96.6749 35.712 96.7531 36.1556 96.916 36.5707C97.079 36.9859 97.3233 37.3642 97.6347 37.6835C97.9461 38.0027 98.3183 38.2565 98.7292 38.4297C99.1402 38.6029 99.5816 38.6922 100.028 38.6922C100.474 38.6922 100.915 38.6029 101.326 38.4297C101.737 38.2565 102.109 38.0027 102.42 37.6835C102.732 37.3642 102.976 36.9859 103.139 36.5707C103.302 36.1556 103.38 35.712 103.369 35.2662V35.2662Z" fill="black"/>
<path d="M127.518 32.4582C127.56 33.7365 127.343 35.01 126.882 36.2028C126.421 37.3955 125.724 38.4831 124.832 39.4005C123.941 40.3178 122.875 41.0462 121.696 41.542C120.517 42.0379 119.25 42.291 117.971 42.2864H110.109V22.6307H117.971C119.25 22.626 120.517 22.8791 121.696 23.375C122.874 23.8708 123.941 24.5991 124.832 25.5164C125.723 26.4337 126.421 27.5211 126.882 28.7139C127.343 29.9066 127.56 31.1801 127.518 32.4582V32.4582ZM123.194 32.4582C123.194 29.089 121.06 26.955 117.971 26.955H114.601V37.962H117.971C121.06 37.962 123.194 35.8281 123.194 32.4582Z" fill="black"/>
<path d="M129.487 24.4836C129.487 23.9838 129.635 23.4953 129.913 23.0797C130.191 22.6642 130.585 22.3404 131.047 22.1492C131.509 21.9579 132.017 21.908 132.507 22.0055C132.997 22.1031 133.448 22.3438 133.801 22.6972C134.154 23.0507 134.395 23.501 134.493 23.9912C134.59 24.4814 134.54 24.9894 134.349 25.4512C134.157 25.9129 133.833 26.3075 133.418 26.5851C133.002 26.8628 132.514 27.0109 132.014 27.0109C131.346 27.0041 130.707 26.7356 130.234 26.2631C129.762 25.7906 129.494 25.1517 129.487 24.4836V24.4836ZM129.908 28.2462H134.12V42.2862H129.908V28.2462Z" fill="black"/>
<path d="M147.964 38.0744C147.964 41.3035 145.156 42.6796 142.123 42.6796C139.315 42.6796 137.181 41.6127 136.086 39.338L139.736 37.2601C139.884 37.7682 140.201 38.2101 140.636 38.5118C141.07 38.8135 141.596 38.9565 142.123 38.917C143.134 38.917 143.639 38.6079 143.639 38.0462C143.639 36.5017 136.732 37.316 136.732 32.4582C136.732 29.3974 139.315 27.8535 142.235 27.8535C143.333 27.8189 144.42 28.0794 145.383 28.6078C146.346 29.1361 147.15 29.9131 147.711 30.8577L144.116 32.7955C143.959 32.4275 143.696 32.1141 143.362 31.8943C143.027 31.6745 142.635 31.5581 142.235 31.5596C141.505 31.5596 141.056 31.8404 141.056 32.3462C141.056 33.9467 147.964 32.8798 147.964 38.0744Z" fill="black"/>
<path d="M149.229 35.266C149.232 33.6442 149.766 32.0679 150.749 30.778C151.732 29.4881 153.11 28.5555 154.673 28.1226C156.236 27.6897 157.898 27.7804 159.404 28.3807C160.911 28.9811 162.179 30.0582 163.016 31.4474L159.338 33.5813C159.082 33.0855 158.69 32.6737 158.207 32.3948C157.724 32.116 157.171 31.9819 156.614 32.0086C155.765 32.031 154.958 32.384 154.366 32.9925C153.773 33.6009 153.441 34.4166 153.441 35.2659C153.441 36.1153 153.773 36.931 154.366 37.5394C154.958 38.1479 155.765 38.5009 156.614 38.5233C157.172 38.5537 157.726 38.4211 158.21 38.1419C158.693 37.8626 159.085 37.4487 159.338 36.9506L163.016 39.0568C162.381 40.1743 161.456 41.1002 160.34 41.7375C159.223 42.3748 157.956 42.7001 156.67 42.6793C155.689 42.7021 154.714 42.5261 153.803 42.1619C152.891 41.7978 152.063 41.253 151.368 40.5604C150.673 39.8678 150.125 39.0417 149.757 38.1318C149.39 37.2219 149.21 36.2471 149.229 35.266V35.266Z" fill="black"/>
<path d="M163.721 35.2661C163.716 33.7932 164.147 32.3518 164.962 31.1245C165.776 29.8972 166.936 28.9391 168.295 28.3717C169.655 27.8042 171.152 27.6529 172.597 27.9369C174.042 28.2208 175.371 28.9273 176.414 29.9669C177.457 31.0064 178.169 32.3323 178.458 33.7764C178.748 35.2206 178.602 36.7182 178.039 38.0795C177.477 39.4408 176.523 40.6046 175.299 41.4234C174.075 42.2423 172.635 42.6794 171.162 42.6794C170.184 42.6903 169.214 42.5063 168.308 42.1379C167.402 41.7696 166.579 41.2244 165.886 40.5342C165.193 39.844 164.645 39.0226 164.273 38.1181C163.902 37.2135 163.714 36.244 163.721 35.2661V35.2661ZM174.391 35.2661C174.375 34.631 174.172 34.0147 173.807 33.4946C173.442 32.9744 172.932 32.5733 172.34 32.3416C171.749 32.1098 171.102 32.0576 170.481 32.1916C169.86 32.3256 169.292 32.6397 168.849 33.0947C168.405 33.5497 168.106 34.1253 167.988 34.7496C167.87 35.3739 167.939 36.0191 168.186 36.6045C168.433 37.1899 168.847 37.6895 169.376 38.0408C169.906 38.3921 170.527 38.5794 171.162 38.5794C171.597 38.5911 172.029 38.5127 172.431 38.3493C172.834 38.1858 173.199 37.9407 173.502 37.6295C173.805 37.3182 174.041 36.9476 174.194 36.5408C174.347 36.1341 174.414 35.7001 174.391 35.2661V35.2661Z" fill="black"/>
<path d="M194.049 28.2461L188.855 42.2861H184.081L178.886 28.2461H183.548L186.468 37.1474L189.388 28.2461H194.049Z" fill="black"/>
<path d="M202.166 38.9167C202.665 38.9315 203.161 38.8444 203.624 38.6609C204.088 38.4773 204.509 38.2011 204.862 37.8492L208.232 39.787C207.531 40.739 206.605 41.5018 205.537 42.0067C204.468 42.5117 203.29 42.7428 202.11 42.6794C197.309 42.6794 194.332 39.4502 194.332 35.266C194.302 34.2796 194.475 33.2975 194.841 32.3808C195.206 31.4641 195.756 30.6323 196.457 29.9371C197.157 29.2419 197.993 28.6982 198.913 28.3397C199.832 27.9812 200.816 27.8157 201.802 27.8532C202.764 27.8463 203.718 28.0355 204.605 28.4092C205.492 28.7829 206.293 29.3333 206.961 30.0269C207.628 30.7205 208.147 31.5427 208.486 32.4435C208.825 33.3442 208.978 34.3046 208.934 35.266C208.936 35.8319 208.88 36.3965 208.765 36.9507H198.797C199.063 37.6044 199.537 38.1519 200.147 38.5075C200.756 38.8632 201.466 39.0071 202.166 38.9167V38.9167ZM204.75 33.8057C204.549 33.1626 204.147 32.6006 203.604 32.2016C203.061 31.8026 202.405 31.5874 201.731 31.5874C201.058 31.5874 200.401 31.8026 199.858 32.2016C199.315 32.6006 198.914 33.1626 198.713 33.8057H204.75Z" fill="black"/>
<path d="M219.748 27.9654V32.739C218.007 32.4581 215.536 33.1606 215.536 35.9404V42.2862H211.324V28.2462H215.536V30.7452C215.844 29.8897 216.421 29.1567 217.18 28.6557C217.939 28.1548 218.84 27.9126 219.748 27.9654V27.9654Z" fill="black"/>
<path d="M236.034 28.2461L231.233 41.8651C229.66 46.3295 227.161 48.0984 223.23 47.9024V43.9708C225.196 43.9708 226.123 43.3531 226.74 41.6402L221.152 28.2461H225.785L228.902 36.8388L231.542 28.2461H236.034Z" fill="black"/>
<path d="M61.3747 14.2354L60.7198 12.3208H57.1119C57.0126 12.6196 56.9096 12.9402 56.7976 13.2863L56.4998 14.2391H54.75L57.9863 5.36096H59.8654L63.0115 14.24H61.3738V14.2354H61.3747ZM58.909 7.28743C58.6895 7.8895 58.4827 8.47518 58.2841 9.04356C58.0856 9.61193 57.866 10.214 57.6292 10.8507H60.2024L58.909 7.28743Z" fill="#999999"/>
<path d="M68.2597 5.39099H64.9624V14.2609H66.4835V11.2396H68.2552C70.0614 11.2396 70.9358 10.4872 70.9358 8.93696V7.68089C70.944 6.13881 70.065 5.39099 68.2597 5.39099ZM66.4881 6.78369H68.2205C69.2507 6.78369 69.4183 7.05331 69.4183 7.68908V8.9324C69.4183 9.5609 69.2462 9.8378 68.2205 9.8378H66.4881V6.78369Z" fill="#999999"/>
<path d="M76.0029 5.39099H72.7056V14.2609H74.2267V11.2396H75.9983C77.8045 11.2396 78.679 10.4872 78.679 8.93696V7.68089C78.6835 6.13881 77.8036 5.39099 76.0029 5.39099ZM74.2267 6.78369H75.9591C76.9893 6.78369 77.1569 7.05331 77.1569 7.68908V8.9324C77.1569 9.5609 76.9848 9.8378 75.9591 9.8378H74.2267V6.78369Z" fill="#999999"/>
<path d="M81.9682 13.3729H86.1017V14.2619H81.0674V5.40015H81.9682V13.3729Z" fill="#999999"/>
<path d="M95.3906 5.40015H96.2833L99.1707 13.3729L102.068 5.40015H102.982L99.7664 14.2619H98.5768L95.3906 5.40015Z" fill="#999999"/>
<path d="M105.755 14.2619H104.854V5.40015H105.755V14.2619Z" fill="#999999"/>
<path d="M110.072 6.46403V14.2573H109.228V5.40015H110.559L114.451 12.9839V5.40015H115.297V14.2619H114.219L110.073 6.46403H110.072Z" fill="#999999"/>
<path d="M94.0189 11.6804C94.0189 13.1587 93.0916 14.3683 90.7863 14.3683C88.4809 14.3683 87.5491 13.1587 87.5491 11.6804V7.9377C87.5491 6.45937 88.4754 5.24976 90.7863 5.24976C93.0971 5.24976 94.0189 6.45937 94.0189 7.9377V11.6804ZM88.3862 11.6932C88.3862 12.9665 89.1704 13.6797 90.8127 13.6797C92.455 13.6797 93.2392 12.9665 93.2392 11.6932V7.92494C93.2392 6.65157 92.454 5.93836 90.8127 5.93836C89.1713 5.93836 88.3862 6.65157 88.3862 7.92494V11.6932Z" fill="#999999"/>
<g clip-path="url(#clip1_3700_7853)">
<path d="M36.57 24.2848C36.57 14.1862 28.3835 5.99976 18.285 5.99976C8.18647 5.99976 0 14.1862 0 24.2848C0 34.3833 8.18647 42.5698 18.285 42.5698C23.1345 42.5698 27.7853 40.6433 31.2144 37.2142C34.6436 33.7851 36.57 29.1342 36.57 24.2848Z" fill="#FC336B"/>
<path d="M30.4559 24.2848C30.4559 17.563 25.0068 12.1139 18.285 12.1139C11.5631 12.1139 6.11401 17.563 6.11401 24.2848C6.11401 31.0067 11.5631 36.4558 18.285 36.4558C21.5129 36.4558 24.6086 35.1735 26.8911 32.891C29.1736 30.6085 30.4559 27.5128 30.4559 24.2848Z" fill="#FF5C3B"/>
<path d="M24.342 24.2848C24.342 20.9397 21.6302 18.2279 18.2851 18.2279C14.9399 18.2279 12.2281 20.9397 12.2281 24.2848C12.2281 27.6299 14.9399 30.3417 18.2851 30.3417C19.8919 30.3432 21.4334 29.7056 22.5696 28.5694C23.7058 27.4331 24.3435 25.8917 24.342 24.2848Z" fill="#FF9E1C"/>
<path d="M33.1416 13.6453L28.0332 16.9994C31.2674 21.3264 31.2674 27.2661 28.0332 31.5931L33.1416 34.953C35.3398 31.9001 36.5375 28.2409 36.57 24.4791V24.3477V24.2848V24.1249C36.5346 20.3724 35.3369 16.7231 33.1416 13.6795" fill="#FFADC4"/>
<path d="M28.0389 16.9994L22.8962 20.365C24.8237 22.6314 24.8237 25.9611 22.8962 28.2275L28.0389 31.5931C31.2769 27.2674 31.2769 21.3251 28.0389 16.9994Z" fill="#FFBDB0"/>
<path d="M22.9076 20.365L19.2163 22.7878C17.9478 23.622 17.9478 24.982 19.2163 25.8162L22.8847 28.2275C24.8122 25.9611 24.8122 22.6315 22.8847 20.365" fill="#FFD9A6"/>
</g>
</g>
<defs>
<clipPath id="clip0_3700_7853">
<rect width="236.25" height="48" fill="white"/>
</clipPath>
<clipPath id="clip1_3700_7853">
<rect width="36.57" height="36.57" fill="white" transform="translate(0 5.99976)"/>
</clipPath>
</defs>
</svg>
