<svg width="1200" height="40" viewBox="0 0 1200 40" fill="none" xmlns="http://www.w3.org/2000/svg">
<g clip-path="url(#clip0_4393_7266)">
<path d="M103.275 17.2561C101.813 15.9262 100.048 15.2761 98.0071 15.2761C95.9942 15.2761 94.2289 15.927 92.7659 17.2561C91.3038 18.5571 90.5604 20.368 90.5604 22.6879C90.5604 25.0078 91.3038 26.817 92.7659 28.1469C94.228 29.448 95.9942 30.0989 98.0071 30.0989C100.048 30.0989 101.813 29.448 103.275 28.1469C104.765 26.817 105.509 25.007 105.509 22.6879C105.509 20.3688 104.765 18.5571 103.275 17.2561ZM95.2501 25.6571C94.4788 24.894 94.0904 23.9031 94.0904 22.6871C94.0904 21.471 94.4756 20.481 95.2501 19.7451C95.6092 19.3782 96.0387 19.0887 96.5126 18.8942C96.9864 18.6998 97.4947 18.6044 98.0063 18.6141C98.5222 18.6043 99.0348 18.6995 99.5133 18.8938C99.9918 19.0882 100.426 19.3777 100.791 19.7451C101.589 20.481 101.978 21.4702 101.978 22.6871C101.978 23.904 101.593 24.8931 100.791 25.6571C100.02 26.3922 99.0816 26.7601 98.0063 26.7601C97.4973 26.7683 96.9918 26.675 96.5187 26.4857C96.0457 26.2964 95.6145 26.0148 95.2501 25.6571ZM110.724 29.7021V10.2915H107.249V29.7021H110.724ZM121.94 15.6721V23.4172C121.94 25.2834 120.957 26.5209 119.085 26.5209C117.181 26.5209 116.224 25.285 116.224 23.4172V15.6721H112.742V24.0112C112.742 27.2419 114.728 30.0981 119.085 30.0981H119.112C123.442 30.0981 125.424 27.1784 125.424 24.0112V15.6721H121.94ZM86.8625 15.6721L83.3875 25.1761L79.9125 15.6721H76.217L81.7623 29.7029H85.0177L90.5621 15.6721H86.8625ZM76.2334 22.2911C76.2334 20.255 75.5999 18.586 74.3583 17.2561C73.1166 15.9262 71.5192 15.2761 69.5605 15.2761C67.5476 15.2761 65.8363 15.984 64.4299 17.3691C63.0497 18.756 62.3621 20.5091 62.3621 22.6871C62.3621 24.8651 63.0514 26.6479 64.4029 28.0331C65.783 29.4199 67.4378 30.0981 69.3957 30.0981C72.4036 30.0981 74.5263 28.7401 75.8204 25.9962L73.2289 24.4683C72.3757 26.1933 71.1324 27.0423 69.4506 27.0423C67.3828 27.0423 65.9207 25.6843 65.6994 23.5352H76.2326V22.2903L76.2334 22.2911ZM69.4482 17.9912C71.4061 17.9912 72.7035 19.1223 73.0338 20.9331H65.6978C66.2231 19.2642 67.6558 17.9912 69.449 17.9912H69.4482ZM62.3613 29.7021L57.6987 21.33C60.6484 20.2269 62.1105 18.3039 62.1105 15.503C62.1138 12.0801 59.4641 9.90125 55.2449 9.90125H47V29.7021H50.6406V21.669H53.7304L58.197 29.7029L62.3613 29.7021ZM55.2449 13.1823C57.3963 13.1823 58.4724 14.0592 58.4724 15.7843C58.4724 17.5094 57.3955 18.3864 55.2449 18.3864H50.6406V13.1823H55.2449ZM131.315 30.0981C129.079 30.0981 127.265 28.2369 127.265 25.9401V11.8812H130.74V15.6771H133.72V18.5621H130.74V25.7107C130.74 26.3839 131.272 26.9292 131.929 26.9292H133.72V30.0981H131.315Z" fill="#999999"/>
</g>
<path d="M317.589 20.1254L318.952 19.8186C318.98 19.8122 319.028 19.8015 319.085 19.7834C319.461 19.6852 319.784 19.4486 319.984 19.1235C320.185 18.7984 320.248 18.4102 320.161 18.0406L320.155 18.0172C320.11 17.8401 320.032 17.6728 319.923 17.524C319.771 17.3355 319.582 17.1777 319.367 17.0595C319.115 16.9194 318.851 16.8004 318.577 16.7037L317.084 16.1721C316.246 15.8685 315.408 15.5734 314.561 15.2847C314.013 15.0951 313.548 14.9279 313.144 14.8054C313.067 14.7847 312.991 14.7619 312.915 14.7372C312.427 14.5923 312.084 14.5316 311.794 14.5294C311.6 14.5224 311.407 14.5566 311.228 14.6296C311.041 14.7083 310.874 14.8245 310.736 14.9705C310.667 15.046 310.603 15.125 310.543 15.207C310.427 15.3813 310.331 15.5679 310.257 15.763C309.979 16.561 309.841 17.3985 309.847 18.2409C309.853 19.0015 309.874 19.9784 310.304 20.641C310.408 20.8114 310.547 20.9584 310.712 21.0724C311.018 21.278 311.327 21.3057 311.649 21.3281C312.131 21.3611 312.596 21.2471 313.061 21.1417L317.586 20.1243L317.589 20.1254ZM332.787 13.0849C332.415 12.325 331.915 11.6311 331.308 11.0321C331.229 10.9559 331.145 10.8854 331.056 10.8212C330.974 10.7611 330.888 10.7053 330.8 10.6539C330.709 10.6055 330.616 10.5617 330.52 10.5229C330.331 10.4506 330.129 10.4179 329.926 10.427C329.732 10.4377 329.543 10.491 329.371 10.5794C329.112 10.7051 328.831 10.9075 328.456 11.2452C328.405 11.2952 328.34 11.3517 328.281 11.405C327.974 11.6873 327.63 12.0356 327.222 12.4404C326.591 13.0615 325.971 13.6857 325.352 14.3153L324.247 15.4317C324.046 15.6354 323.862 15.8552 323.698 16.089C323.558 16.2869 323.459 16.5094 323.406 16.7442C323.376 16.9245 323.381 17.1087 323.419 17.2875L323.425 17.3109C323.512 17.6801 323.743 18.0019 324.069 18.2085C324.395 18.4152 324.791 18.4906 325.173 18.4188C325.219 18.4125 325.265 18.404 325.31 18.3932L331.198 17.068C331.663 16.9636 332.134 16.8677 332.551 16.6313C332.831 16.4747 333.097 16.3181 333.279 16.0027C333.377 15.8291 333.436 15.6375 333.452 15.4403C333.543 14.6583 333.124 13.771 332.787 13.0849ZM322.245 15.4957C322.672 14.9737 322.672 14.196 322.709 13.559C322.838 11.4337 322.973 9.30849 323.081 7.18218C323.121 6.37682 323.21 5.58212 323.161 4.77037C323.12 4.10137 323.116 3.33224 322.682 2.78255C321.916 1.81314 320.281 1.89304 319.166 2.04431C318.822 2.09056 318.481 2.15314 318.143 2.2318C317.804 2.31063 317.467 2.39692 317.139 2.50025C316.069 2.84114 314.564 3.46753 314.31 4.66811C314.166 5.34669 314.507 6.04019 314.77 6.66019C315.09 7.41015 315.527 8.0866 315.925 8.79289C316.979 10.6582 318.051 12.5129 319.12 14.3686C319.441 14.9225 319.788 15.6235 320.406 15.9111C320.447 15.9282 320.489 15.9431 320.532 15.9569C320.808 16.0592 321.112 16.0784 321.399 16.0134L321.451 16.0027C321.718 15.9314 321.958 15.7897 322.148 15.5947C322.183 15.5628 322.213 15.5308 322.245 15.4957ZM321.734 21.1853C321.568 20.9573 321.331 20.7863 321.059 20.6969C320.786 20.6076 320.492 20.6044 320.218 20.6879C320.153 20.7086 320.09 20.7338 320.029 20.7635C319.935 20.8102 319.846 20.8647 319.761 20.9265C319.52 21.1113 319.305 21.3258 319.121 21.5646C319.074 21.6232 319.03 21.7009 318.974 21.7521L318.026 23.0198C317.49 23.7314 316.959 24.4441 316.435 25.1674C316.092 25.635 315.796 26.0303 315.561 26.3786C315.517 26.4447 315.471 26.5171 315.43 26.5768C315.148 26.9986 314.99 27.3075 314.908 27.5824C314.846 27.765 314.827 27.9584 314.851 28.1491C314.877 28.3473 314.946 28.5379 315.052 28.7095C315.109 28.7947 315.17 28.8778 315.236 28.9577C315.378 29.1166 315.537 29.2595 315.712 29.3838C316.366 29.8269 317.082 30.1455 317.835 30.3915C318.462 30.5939 319.113 30.7154 319.771 30.7516C319.884 30.7569 319.997 30.7548 320.108 30.7452C320.212 30.7358 320.315 30.7216 320.417 30.7026C320.519 30.6795 320.62 30.651 320.719 30.6174C320.911 30.5471 321.086 30.4382 321.233 30.2978C321.372 30.1625 321.479 29.9995 321.546 29.8195C321.655 29.5532 321.728 29.2165 321.776 28.7158C321.779 28.6445 321.79 28.5592 321.798 28.4815C321.835 28.066 321.852 27.576 321.879 27.0029C321.926 26.1197 321.962 25.2409 321.99 24.3599L322.051 22.7918C322.066 22.4317 322.054 22.0312 321.951 21.6722C321.905 21.4997 321.832 21.3354 321.734 21.1853ZM332.427 23.6387C332.23 23.4267 331.95 23.2168 331.508 22.9569C331.445 22.9218 331.369 22.876 331.3 22.8355C330.932 22.6192 330.489 22.3934 329.972 22.1196C329.176 21.6935 328.381 21.2802 327.577 20.869L326.158 20.136C326.084 20.1147 326.01 20.0636 325.94 20.0306C325.667 19.8949 325.377 19.7942 325.078 19.7312C324.975 19.7118 324.87 19.7011 324.765 19.6993C324.697 19.6989 324.629 19.7028 324.561 19.711C324.277 19.7537 324.014 19.8827 323.81 20.0795C323.606 20.2764 323.47 20.531 323.423 20.8072C323.403 20.9829 323.409 21.1608 323.444 21.3334C323.513 21.702 323.682 22.0653 323.857 22.3838L324.614 23.7676C325.036 24.5474 325.463 25.3229 325.901 26.0963C326.183 26.6002 326.418 27.0316 326.638 27.3896C326.68 27.4567 326.727 27.5291 326.763 27.592C327.031 28.0213 327.245 28.2919 327.463 28.4868C327.608 28.6226 327.782 28.7255 327.973 28.7882C328.163 28.8508 328.366 28.8716 328.566 28.849C328.67 28.8367 328.773 28.8189 328.876 28.7957C329.085 28.7412 329.287 28.6636 329.478 28.5646C330.054 28.2503 330.585 27.8634 331.057 27.4141C331.624 26.8708 332.125 26.2785 332.515 25.601C332.569 25.5051 332.615 25.406 332.655 25.3027C332.691 25.2081 332.723 25.1117 332.75 25.014C332.773 24.9138 332.79 24.8137 332.802 24.7125C332.822 24.5136 332.798 24.3129 332.733 24.1234C332.669 23.9415 332.565 23.7757 332.427 23.6376V23.6387Z" fill="#999999"/>
<path fill-rule="evenodd" clip-rule="evenodd" d="M283.557 10.183C283.557 9.04312 284.51 8.11206 285.661 8.11206C286.796 8.11206 287.717 9.04312 287.767 10.2V26.3647C287.767 27.5045 286.813 28.4356 285.661 28.4356C285.383 28.4354 285.108 28.3816 284.851 28.2772C284.594 28.1728 284.362 28.0199 284.166 27.8274C283.97 27.6348 283.816 27.4064 283.711 27.1553C283.607 26.9042 283.555 26.6355 283.557 26.3647V10.183ZM281.6 20.1679C281.584 20.4885 281.502 21.083 281.075 21.5165C280.614 21.9821 279.989 22.0939 279.627 22.0939C278.123 22.1024 276.618 22.1067 275.114 22.1099C273.61 22.1142 272.105 22.1184 270.601 22.1259C270.732 22.5275 270.995 23.1379 271.587 23.6993C271.948 24.037 272.293 24.2288 272.442 24.3097C272.623 24.4216 273.247 24.7433 274.02 24.7433C274.843 24.7433 275.566 24.4855 276.274 24.1329L276.332 24.1031C276.824 23.8548 277.331 23.5992 277.868 23.5065C278.393 23.4266 278.953 23.5225 279.364 23.8761C279.857 24.2937 280.055 24.9031 279.874 25.5295C279.66 26.2358 279.052 26.8462 278.411 27.2148C278.044 27.4238 277.659 27.601 277.26 27.7442C276.242 28.0958 275.166 28.2594 274.087 28.2268C273.824 28.2268 273.544 28.2268 273.264 28.1948C272.968 28.1629 272.673 28.0979 272.393 28.034C271.939 27.9381 271.497 27.7926 271.077 27.6004C270.656 27.4188 270.254 27.1983 269.876 26.942C269.5 26.6785 269.148 26.383 268.825 26.0589C268.504 25.7308 268.212 25.3766 267.953 25C267.066 23.6833 266.654 22.062 266.736 20.4885C266.802 18.9481 267.328 17.4067 268.282 16.155C268.385 15.9973 268.504 15.8641 268.617 15.7384C268.666 15.683 268.714 15.6298 268.759 15.5765C269.937 14.1746 271.51 13.7314 272.159 13.5482L272.195 13.5376C273.512 13.1735 274.907 13.1735 276.223 13.5376C276.536 13.6185 278.296 14.148 279.66 15.5765C279.726 15.6404 279.907 15.8492 280.137 16.155C280.721 16.9287 281.15 17.8026 281.401 18.7308L281.403 18.7393C281.502 19.092 281.6 19.5745 281.6 20.1679ZM271.949 17.5196C271.299 18.0336 270.848 18.7461 270.666 19.5415H277.835C277.642 18.7468 277.185 18.036 276.536 17.5185C275.883 17.0081 275.072 16.7257 274.234 16.7164C273.401 16.7244 272.595 17.0072 271.948 17.5185L271.949 17.5196ZM299.21 13.2648C297.336 13.2648 295.626 14.084 294.409 15.4167V15.3677C294.385 14.8325 294.145 14.3281 293.742 13.9632C293.34 13.5983 292.806 13.4021 292.256 13.4169C291.706 13.4317 291.184 13.6563 290.802 14.0424C290.421 14.4284 290.21 14.945 290.216 15.4806V30.907C290.215 31.1768 290.269 31.4441 290.374 31.6937C290.479 31.9432 290.634 32.17 290.83 32.361C291.025 32.552 291.258 32.7035 291.514 32.8066C291.77 32.9097 292.044 32.9625 292.321 32.962C292.598 32.9624 292.873 32.9095 293.129 32.8063C293.385 32.7031 293.617 32.5516 293.813 32.3606C294.008 32.1697 294.163 31.9429 294.268 31.6934C294.373 31.444 294.427 31.1767 294.426 30.907V26.0909C295.642 27.4076 297.336 28.2428 299.227 28.2428C302.993 28.2428 306.051 24.9191 306.051 20.7772C306.034 16.6365 302.976 13.2648 299.21 13.2648ZM298.29 24.8871C296.152 24.8871 294.409 23.0729 294.409 20.8103C294.409 18.5305 296.136 16.7164 298.29 16.7164C300.427 16.7164 302.17 18.5305 302.17 20.8103C302.153 23.0729 300.427 24.8871 298.29 24.8871ZM263.58 21.8532L262.889 23.3307C262.576 23.972 262.263 24.6304 261.968 25.2887L261.682 25.9066C260.367 28.753 258.808 32.1321 255.408 32.849C253.763 33.2027 251.28 32.7212 250.359 31.2117C249.439 29.6873 250.803 27.937 252.563 28.3386C252.841 28.3983 253.113 28.5304 253.389 28.6646C253.847 28.8883 254.312 29.1131 254.816 29.013C255.293 28.9331 255.588 28.5954 255.967 28.1618C256.492 27.5684 256.723 26.942 256.821 26.5724L256.797 26.517C256.789 26.4979 256.781 26.479 256.772 26.4605C256.344 25.6829 255.97 24.9883 255.658 24.4077C255.483 24.0799 255.306 23.7528 255.127 23.4266L254.411 22.1014C253.886 21.132 253.798 20.9722 253.566 20.5535C253.055 19.6138 252.517 18.6877 251.954 17.7763C251.346 16.7803 250.721 15.6735 251.231 14.5006C251.423 14.0465 251.783 13.679 252.24 13.4711C252.696 13.2631 253.217 13.2298 253.697 13.3778C254.755 13.6899 255.225 14.671 255.662 15.5872C255.742 15.7533 255.82 15.9174 255.901 16.074C256.608 17.4386 257.298 18.8033 257.989 20.1679C258.05 20.3032 258.142 20.4875 258.256 20.7133C258.356 20.9136 258.473 21.1469 258.597 21.4036L258.78 21.7743C258.851 21.9192 258.913 22.0428 258.959 22.1419C259.28 21.3642 259.605 20.5897 259.929 19.8142C260.253 19.0398 260.578 18.2653 260.899 17.4866C260.908 17.444 260.984 17.2778 261.1 17.0274C261.198 16.8154 261.322 16.5438 261.458 16.2349L261.597 15.9078C262.024 14.8958 262.538 13.6782 263.678 13.3458C264.083 13.2315 264.514 13.2427 264.912 13.3778C265.31 13.513 265.654 13.7654 265.898 14.1C266.144 14.4367 266.243 14.8223 266.259 15.2079C266.272 16.0602 265.85 16.9742 265.487 17.7582C265.399 17.95 265.314 18.1332 265.241 18.3058L265.197 18.3995C265.096 18.62 264.823 19.2166 264.352 20.1998C264.183 20.5514 264.019 20.9051 263.854 21.2619L263.58 21.8532Z" fill="#999999"/>
<g clip-path="url(#clip1_4393_7266)">
<path d="M544.209 25.8289H541.8C541.675 25.8289 541.578 25.9119 541.537 26.0227C541.232 26.9642 540.568 27.6426 539.225 27.6426C537.84 27.6426 536.802 26.5488 536.802 25.2197V19.3631V18.3524C536.802 18.2693 536.857 18.2139 536.94 18.2139H543.254C543.406 18.2139 543.531 18.0893 543.531 17.937V15.694C543.531 15.5417 543.406 15.4171 543.254 15.4171H536.94C536.857 15.4171 536.802 15.3617 536.802 15.2787V11.7481C536.802 11.5958 536.677 11.4712 536.525 11.4712H533.963C533.811 11.4712 533.687 11.5958 533.687 11.7481V15.4864V25.1781C533.687 28.2103 536.165 30.7855 539.197 30.7717C541.274 30.7578 543.115 29.5948 544.043 27.8226C544.306 27.2965 544.458 26.7288 544.5 26.1335C544.5 25.9673 544.375 25.8289 544.209 25.8289Z" fill="#999999"/>
<path d="M500.057 23.0044C499.143 22.3537 497.842 21.9106 495.973 21.6198C493.647 21.2183 492.387 20.7891 492.387 19.6953C492.387 18.8369 493.19 17.9231 495.419 17.9231C496.527 17.9231 497.371 18.2693 497.939 18.9754C498.202 19.3077 498.41 19.7092 498.548 20.1799C498.603 20.3599 498.77 20.4984 498.963 20.4984H501.137C501.289 20.4984 501.428 20.3599 501.414 20.2076C501.414 20.1245 501.4 20.0415 501.4 19.9861C501.054 17.9924 499.85 16.8847 499.49 16.594C498.437 15.7494 497.08 15.3202 495.419 15.3202C493.702 15.3202 492.207 15.7356 491.127 16.5386C490.019 17.3555 489.438 18.4769 489.438 19.7784C489.438 22.8936 492.29 23.7936 495.377 24.3059C498.299 24.7351 498.687 25.5381 498.687 26.2581C498.687 27.4211 497.427 28.1549 495.419 28.1549C495.073 28.1549 494.727 28.1272 494.422 28.0718C494.408 28.0718 494.408 28.058 494.394 28.058C493.065 27.7949 492.179 26.9642 491.667 25.5242C491.612 25.3581 491.445 25.2335 491.265 25.2335H488.995C488.829 25.2335 488.704 25.3719 488.718 25.5381C488.746 25.8981 488.815 26.2442 488.939 26.5765C489.092 26.978 489.244 27.2549 489.258 27.2826C490.172 29.2625 491.944 30.4532 494.367 30.7024H494.381C494.727 30.744 495.073 30.7578 495.419 30.7578C497.164 30.7578 498.756 30.3148 499.877 29.4979C501.013 28.6672 501.636 27.5041 501.636 26.2027C501.649 24.8043 501.123 23.7659 500.057 23.0044Z" fill="#999999"/>
<path d="M471.563 15.417H469.016C468.863 15.417 468.739 15.5416 468.739 15.6939V30.3839C468.739 30.5362 468.863 30.6608 469.016 30.6608H471.563C471.716 30.6608 471.84 30.5362 471.84 30.3839V15.6939C471.84 15.5416 471.716 15.417 471.563 15.417Z" fill="#999999"/>
<path d="M530.544 17.2725C529.326 16.0403 527.692 15.348 525.948 15.3203C524.175 15.2926 522.5 15.9572 521.24 17.1894C519.939 18.4493 519.219 20.1385 519.219 21.9384C519.219 21.9384 519.219 22.5337 519.219 23.4198V30.3702C519.219 30.5225 519.343 30.6471 519.496 30.6471H522.057C522.209 30.6471 522.334 30.5225 522.334 30.3702V21.8415C522.334 20.9 522.708 20.0277 523.386 19.3631C524.065 18.7124 524.965 18.3524 525.906 18.3801C527.734 18.4217 529.326 19.9723 529.326 21.6892V21.8415C529.326 21.9938 529.45 22.1184 529.603 22.1184C530.267 22.1184 531.527 22.1184 532.164 22.1184C532.316 22.1184 532.441 21.9938 532.441 21.8415V21.8276C532.455 20.1246 531.777 18.5047 530.544 17.2725Z" fill="#999999"/>
<path d="M459.546 9.22827C459.532 9.22827 459.546 9.22827 459.546 9.22827C457.566 9.22827 455.711 10.0036 454.298 11.402C454.16 11.5405 453.911 11.8174 453.911 11.8174C453.828 11.9143 453.745 12.0112 453.661 12.122C453.648 12.1358 453.634 12.1635 453.634 12.1635C452.637 13.4234 452.069 14.9741 452 16.6217V30.384C452 30.4394 452.014 30.4948 452.042 30.5363C452.097 30.6056 452.166 30.6609 452.263 30.6609H453.897H454.811C454.963 30.6609 455.088 30.5363 455.088 30.384V23.3921C455.088 23.3367 455.115 23.3229 455.129 23.309C455.157 23.2952 455.198 23.2952 455.226 23.309C456.486 24.209 457.967 24.6659 459.518 24.6659C460.695 24.6659 461.789 24.389 462.799 23.9044C465.347 22.6583 467.091 20.0138 467.091 16.954C467.091 12.6758 463.713 9.22827 459.546 9.22827ZM459.532 21.7307C456.998 21.7307 454.949 19.5846 454.949 16.9678C454.949 14.3511 457.012 12.205 459.532 12.205C462.066 12.205 464.115 14.3511 464.115 16.9678C464.115 19.5846 462.066 21.7307 459.532 21.7307Z" fill="#999999"/>
<path d="M487.513 25.5103C487.513 25.358 487.389 25.2196 487.237 25.2196H484.911C484.814 25.2196 484.731 25.2611 484.661 25.3303C484.634 25.358 484.62 25.3857 484.606 25.4273C483.983 27.0195 482.668 27.9333 480.978 27.9333C479.719 27.9333 478.597 27.4487 477.794 26.5487C476.991 25.6626 476.548 24.4165 476.548 23.032C476.548 21.6475 476.991 20.3875 477.794 19.4876C478.597 18.6015 479.732 18.103 480.978 18.103C482.681 18.103 484.011 19.0307 484.634 20.6229C484.689 20.7475 484.8 20.8444 484.938 20.8444H487.264C487.417 20.8444 487.541 20.7198 487.541 20.5675V20.4706C487.527 20.2491 487.486 20.0276 487.43 19.806C487.417 19.7645 487.403 19.6953 487.403 19.6953C487.084 18.643 486.406 17.84 486.378 17.7984C485.132 16.1924 483.221 15.3063 480.978 15.3063C478.832 15.3063 476.908 16.1232 475.537 17.6185C474.236 19.0445 473.502 20.969 473.502 23.0459C473.502 25.1088 474.208 27.0195 475.51 28.4317C476.894 29.9409 478.777 30.7439 480.965 30.7439C481.892 30.7439 482.751 30.6054 483.512 30.3285C485.271 29.6224 486.669 28.4594 487.389 26.258C487.444 26.0365 487.486 25.8011 487.5 25.5934C487.513 25.5796 487.513 25.5519 487.513 25.5103Z" fill="#999999"/>
<path d="M517.599 22.9351C517.543 18.7261 514.303 15.3063 510.15 15.3063C505.969 15.3063 502.673 18.7676 502.673 23.0182C502.673 26.438 504.764 29.3317 507.796 30.3562C507.81 30.3562 507.824 30.3701 507.838 30.3701C507.879 30.3839 507.907 30.3978 507.948 30.4116C508.613 30.6331 509.305 30.7439 510.025 30.7439C512.074 30.7439 513.473 30.0793 514.4 29.0409C514.47 28.9717 514.58 29.0132 514.58 29.1101C514.58 29.6363 514.58 30.1901 514.58 30.3008V30.3701C514.58 30.5224 514.705 30.647 514.857 30.647H517.322C517.474 30.647 517.599 30.5224 517.599 30.3701V30.3008V22.9351ZM510.025 27.781C507.519 27.781 505.581 25.6488 505.581 23.032C505.581 20.4152 507.519 18.283 510.025 18.283C512.531 18.283 514.428 20.4152 514.428 23.032C514.428 25.6488 512.531 27.781 510.025 27.781Z" fill="#999999"/>
<path d="M470.304 9.25586C469.058 9.25586 468.047 10.2666 468.047 11.5127C468.047 12.7587 469.058 13.7695 470.304 13.7695C471.536 13.7695 472.533 12.7587 472.533 11.5127C472.533 10.2666 471.522 9.25586 470.304 9.25586Z" fill="#999999"/>
</g>
<path d="M676.505 18.125V11.6766H680.376V28.5251H676.505V21.8354H671.181V28.5251H667.31V11.6766H671.181V18.125H676.505Z" fill="#999999"/>
<path fill-rule="evenodd" clip-rule="evenodd" d="M686.409 23.9526H695.006C695.103 23.4974 695.152 23.0147 695.152 22.5112C695.152 18.8767 692.539 16.1594 689.001 16.1594C685.178 16.1594 682.558 18.925 682.558 22.5112C682.558 26.0975 685.123 28.863 689.265 28.863C691.566 28.863 693.359 28.0216 694.54 26.3871L691.635 24.725C691.149 25.2561 690.301 25.6423 689.314 25.6423C687.986 25.6354 686.867 25.2009 686.409 23.9526ZM686.339 21.256C686.68 20.0284 687.597 19.3526 688.98 19.3526C690.071 19.3526 691.163 19.856 691.545 21.256H686.339ZM705.883 16.4905V17.6215C705.084 16.7043 703.895 16.1525 702.276 16.1525C699.107 16.1525 696.486 18.9181 696.486 22.5043C696.486 26.0906 699.1 28.8561 702.276 28.8561C703.895 28.8561 705.084 28.3044 705.883 27.3871V28.5182H709.518V16.4905H705.883ZM702.999 25.4423C701.331 25.4423 700.114 24.3112 700.114 22.5043C700.114 20.6974 701.331 19.5664 702.999 19.5664C704.667 19.5664 705.883 20.6974 705.883 22.5043C705.883 24.3112 704.674 25.4423 702.999 25.4423ZM720.972 11.6766V17.6215C720.172 16.7043 718.984 16.1525 717.365 16.1525C714.195 16.1525 711.575 18.9181 711.575 22.5043C711.575 26.0906 714.188 28.8561 717.365 28.8561C718.984 28.8561 720.172 28.3044 720.972 27.3871V28.5182H724.607V11.6766H720.972ZM718.087 25.4423C716.419 25.4423 715.21 24.3112 715.21 22.5043C715.21 20.6974 716.419 19.5664 718.087 19.5664C719.755 19.5664 720.972 20.6974 720.972 22.5043C720.972 24.3112 719.755 25.4423 718.087 25.4423Z" fill="#999999"/>
<path d="M740.585 16.4905L738.841 22.9388L736.95 16.4905H733.559L731.668 22.9388L729.924 16.4905H726.052L729.924 28.5251H733.315L735.254 22.0974L737.193 28.5251H740.585L744.456 16.4905H740.585Z" fill="#999999"/>
<path fill-rule="evenodd" clip-rule="evenodd" d="M754.214 16.4905V17.6215C753.415 16.7042 752.227 16.1525 750.607 16.1525C747.438 16.1525 744.818 18.9181 744.818 22.5043C744.818 26.0905 747.431 28.8561 750.607 28.8561C752.227 28.8561 753.415 28.3044 754.214 27.3871V28.5182H757.849V16.4905H754.214ZM751.337 25.4423C749.669 25.4423 748.453 24.3112 748.453 22.5043C748.453 20.6974 749.662 19.5663 751.337 19.5663C753.012 19.5663 754.221 20.6974 754.221 22.5043C754.214 24.3112 753.005 25.4423 751.337 25.4423Z" fill="#999999"/>
<path d="M768.136 16.4905L765.856 23.8561L763.166 16.4905H759.17L763.986 27.9734C763.451 29.4423 762.652 29.9734 760.956 29.9734V33.3458C764.348 33.5113 766.502 32.001 767.858 28.1734L772 16.4974H768.136V16.4905Z" fill="#999999"/>
<path d="M642.21 24.9785V20.9236H649.453V23.8209H642.938L642.21 24.9785Z" fill="#999999"/>
<path d="M642.931 19.1839L642.349 20.1127L642.21 20.3484V16.2866H649.446V19.1839H642.931Z" fill="#999999"/>
<path fill-rule="evenodd" clip-rule="evenodd" d="M633.338 9.77114C632 11.7674 632 14.5468 632 20.1127C632 25.6785 632 28.458 633.338 30.4542C633.913 31.3206 634.662 32.0623 635.521 32.6376C637.517 33.9753 640.297 33.9753 645.863 33.9753C651.429 33.9753 654.208 33.9753 656.204 32.6376C657.071 32.0623 657.812 31.3137 658.388 30.4542C659.726 28.458 659.726 25.6785 659.726 20.1126H659.712C659.712 14.5468 659.712 11.7674 658.374 9.77114C657.799 8.90471 657.05 8.16306 656.191 7.58775C654.208 6.25 651.429 6.25 645.863 6.25C640.297 6.25 637.517 6.25 635.521 7.58775C634.655 8.16306 633.913 8.90471 633.338 9.77114ZM640.186 20.1126H640.179L640.179 12.516C640.179 12.0516 640.297 11.7951 641.045 11.7951H641.337C642.092 11.7951 642.203 12.0516 642.203 12.516V15.7044L642.924 14.5468H649.439V12.516C649.439 12.0516 649.557 11.7951 650.306 11.7951H650.597C651.352 11.7951 651.463 12.0516 651.463 12.516V20.1127H651.47V27.5846C651.47 28.049 651.359 28.3055 650.604 28.3055H650.313C649.956 28.3055 649.743 28.2484 649.618 28.1393C649.483 28.0163 649.453 27.8294 649.453 27.5846V25.5537H642.21V27.5846L642.21 27.6089C642.208 27.8066 642.182 27.9665 642.092 28.0836C641.977 28.2289 641.756 28.3055 641.344 28.3055H641.052C640.313 28.3055 640.191 28.06 640.186 27.6145L640.186 27.5846V20.1126Z" fill="#999999"/>
<g clip-path="url(#clip2_4393_7266)">
<path d="M931.044 8.75C927.722 8.75 925.02 9.77429 923.111 11.8944C923.382 11.1585 923.525 10.2608 923.544 9.20368H911.902C909.362 9.20368 907.91 10.3222 906.912 13.1955L907.426 9.20368H895.662C893.508 9.20368 892.03 10.2333 891.496 12.25C890.038 9.91392 887.447 8.75 884.17 8.75C877.941 8.75 873.888 12.349 873.163 20.0297L873.072 20.998C872.438 27.8631 876.036 31.25 881.63 31.25C887.86 31.25 891.912 27.6201 892.638 19.9394L892.729 18.9721C892.893 17.2105 892.773 15.6799 892.413 14.3749H897.688L896.176 27.3186C895.874 29.889 897.265 31.0683 899.593 31.0683C901.015 31.0683 901.498 30.9775 902.043 30.8872L903.918 14.3749H910.057L908.545 27.3186C908.243 29.889 909.634 31.0683 911.962 31.0683C913.383 31.0683 913.867 30.9775 914.411 30.8872L916.286 14.3749H919.311C920.357 14.3749 921.201 14.1319 921.854 13.6511C920.902 15.3291 920.28 17.4477 920.036 20.0302L919.946 20.998C919.311 27.8631 922.909 31.25 928.504 31.25C934.734 31.25 938.786 27.6201 939.511 19.9394L939.602 18.9721C940.238 12.1369 936.639 8.75 931.044 8.75ZM886.499 18.5484L886.438 19.2741C886.016 24.4752 884.322 26.0783 882.235 26.0783C880.36 26.0783 879.03 24.8086 879.302 21.4217L879.362 20.6655C879.786 15.4939 881.479 13.8613 883.566 13.8613C885.411 13.8608 886.771 15.1615 886.499 18.5484ZM933.373 18.5484L933.313 19.2741C932.889 24.4752 931.196 26.0783 929.11 26.0783C927.234 26.0783 925.903 24.8086 926.176 21.4217L926.236 20.6655C926.659 15.4939 928.353 13.8613 930.44 13.8613C932.284 13.8608 933.645 15.1615 933.373 18.5484Z" fill="#999999"/>
</g>
<g clip-path="url(#clip3_4393_7266)">
<path d="M1085.82 22.1481V13.5684H1089.75V21.4387C1089.75 23.1653 1090.23 25.0259 1092.65 25.0259C1095.07 25.0259 1095.6 23.1653 1095.6 21.4387V13.5684H1099.45V22.0945C1099.45 25.6282 1097.19 28.5595 1092.65 28.5595C1088.14 28.5595 1085.82 25.6282 1085.82 22.1481Z" fill="#999999"/>
<path d="M1110.54 13.3818C1108.28 13.3818 1106.58 14.1983 1105.48 15.8044V13.5692H1101.78V32.6694H1105.68V26.4856C1106.61 27.6367 1108.05 28.3729 1110.14 28.3729C1113.71 28.3729 1117.04 25.6423 1117.04 20.8371C1117.04 15.9115 1114.06 13.3818 1110.54 13.3818ZM1109.31 24.8392C1107.16 24.8392 1105.6 23.4338 1105.6 20.8371C1105.6 18.294 1107.28 16.9421 1109.53 16.9421C1111.52 16.9421 1113.11 18.2673 1113.11 20.9175C1113.11 23.5409 1111.4 24.8392 1109.31 24.8392Z" fill="#999999"/>
<path d="M1118.13 23.3406C1119.44 24.2775 1121.37 25.2011 1123.93 25.2011C1125.49 25.2011 1126.32 24.7728 1126.32 23.9563C1126.32 23.1131 1125.21 22.832 1122.98 22.3234C1119.57 21.5069 1118.17 20.2888 1118.17 17.8662C1118.17 14.6538 1120.69 13.2083 1124.22 13.2083C1126.51 13.2083 1128.29 13.7169 1129.3 14.3326V18.0803C1128.19 17.2639 1126.06 16.6348 1124.14 16.6348C1122.86 16.6348 1122.02 16.9426 1122.02 17.7591C1122.02 18.5488 1122.78 18.8567 1124.62 19.2582C1128.59 20.0881 1130.07 21.3329 1130.07 23.876C1130.07 27.9985 1126.14 28.5607 1123.8 28.5607C1121.4 28.5607 1119.27 27.8513 1118.13 27.0348V23.3406Z" fill="#999999"/>
<path d="M1131.24 9.64709C1131.24 8.26844 1132.24 7.35828 1133.7 7.35828C1135.31 7.35828 1136.19 8.25506 1136.19 9.64709C1136.19 10.9722 1135.33 11.9091 1133.7 11.9091C1132.24 11.9091 1131.24 10.9722 1131.24 9.64709Z" fill="#999999"/>
<path d="M1135.67 13.5684H1131.77V28.1847H1135.67V13.5684Z" fill="#999999"/>
<path d="M1148.85 7.70536V15.2678C1147.93 14.1167 1146.48 13.3805 1144.39 13.3805C1140.82 13.3805 1137.47 16.111 1137.47 20.9162C1137.47 25.8553 1140.49 28.3984 1144 28.3984C1146.26 28.3984 1147.95 27.5819 1149.05 25.9758V28.211H1152.76V7.70536H1148.85ZM1145 24.838C1143.02 24.838 1141.43 23.5129 1141.43 20.8627C1141.43 18.2393 1143.14 16.9409 1145.2 16.9409C1147.37 16.9409 1148.97 18.3463 1148.97 20.943C1148.96 23.4192 1147.22 24.838 1145 24.838Z" fill="#999999"/>
<path d="M1161.77 13.2083C1157.77 13.2083 1154.49 15.9789 1154.49 21.0786C1154.49 26.0444 1157.98 28.5607 1162.07 28.5607C1164.56 28.5607 1166.7 27.945 1167.91 26.8073V23.4209C1166.43 24.639 1164.67 25.1208 1162.57 25.1208C1160.48 25.1208 1158.84 24.4381 1158.3 22.4171H1168.37C1169.24 15.6577 1165.53 13.2083 1161.77 13.2083ZM1158.25 19.5527C1158.6 17.4379 1159.86 16.5678 1161.87 16.5678C1163.55 16.5678 1164.82 17.3308 1164.97 19.5259L1158.25 19.5527Z" fill="#999999"/>
<path d="M1076.74 13.5685V21.1175C1076.55 28.1446 1070.86 33.7931 1063.86 33.7931C1056.88 33.7931 1051.19 28.1446 1051 21.1175V13.5685H1057.66V21.1175C1057.84 24.437 1060.54 27.0604 1063.86 27.0604C1067.18 27.0604 1069.9 24.437 1070.08 21.1175V13.5685H1076.74Z" fill="#999999"/>
<path d="M1063.88 19.8194L1077.32 6.20703H1063.88V19.8194Z" fill="#999999"/>
</g>
<defs>
<clipPath id="clip0_4393_7266">
<rect width="86.7201" height="40" fill="white" transform="translate(47)"/>
</clipPath>
<clipPath id="clip1_4393_7266">
<rect width="92.5" height="40" fill="white" transform="translate(452)"/>
</clipPath>
<clipPath id="clip2_4393_7266">
<rect width="66.875" height="40" fill="white" transform="translate(873)"/>
</clipPath>
<clipPath id="clip3_4393_7266">
<rect width="117.5" height="40" fill="white" transform="translate(1051)"/>
</clipPath>
</defs>
</svg>
