<?xml version="1.0" encoding="UTF-8"?> <svg xmlns="http://www.w3.org/2000/svg" width="116" height="40" viewBox="0 0 116 40" fill="none"><path d="M26.8054 9.59703L30.7327 9.6141L30.6813 29.4366L27.6972 29.4195L19.1908 17.2802L19.1565 29.4024L15.2292 29.3853L15.2978 9.56288L18.2819 9.57996L26.7711 21.7022L26.8054 9.59703Z" fill="#34CD63"></path><path d="M3.94449 21.173L11.4905 21.1901V17.5192L3.96164 17.4851L3.97879 13.2679L12.2108 13.302L12.2279 9.56293L0.0514499 9.52878L0 29.3512L12.3137 29.3854L12.3308 25.6463L3.92734 25.6121L3.94449 21.173Z" fill="#34CD63"></path><path d="M38.1587 21.2754L45.6875 21.2925L45.7046 17.6216L38.1587 17.5875L38.1758 13.3703L46.4249 13.4045L46.4421 9.66535L34.2656 9.6312L34.2142 29.4537L46.5278 29.4878V25.7487L38.1415 25.7145L38.1587 21.2754Z" fill="#34CD63"></path><path d="M65.8044 9.71656L76.7289 9.75071L76.6946 19.7388C76.6603 22.5901 75.6999 24.9974 73.7791 26.978C71.824 28.9585 69.4745 29.9317 66.6962 29.9317C63.9179 29.9317 61.5683 28.9244 59.6304 26.9438C58.3956 25.6462 57.5724 24.1779 57.1265 22.5218L56.3719 22.6413L53.3878 22.6242L53.3707 29.5049L49.4433 29.4878L49.4948 9.66534L57.4524 9.68242C59.3045 9.68242 60.8652 10.3483 62.1343 11.6288C63.4034 12.9093 64.0551 14.463 64.0551 16.2728C64.0551 18.5265 62.7688 20.5925 60.7966 21.7364C61.0881 22.7096 61.5683 23.5633 62.2715 24.2804C63.4377 25.5097 64.9297 26.1072 66.679 26.1072C68.4283 26.1072 69.9204 25.5267 71.1037 24.3145C72.2871 23.1023 72.7844 21.6339 72.7844 19.7388L72.8016 13.4898L65.7872 13.4728L65.8044 9.71656ZM60.1449 16.2728C60.1449 14.6508 58.9273 13.3532 57.4524 13.3532L53.4221 13.3362L53.405 19.1924L57.4352 19.2095C58.9101 19.2095 60.1449 17.8777 60.1449 16.2728Z" fill="#34CD63"></path><path d="M111.183 9.85313L106.844 18.0997L102.54 9.81898L98.0977 9.80191L104.872 21.9242L104.838 29.6585H108.748L108.765 21.9242L115.625 9.85313H111.183Z" fill="#34CD63"></path><path d="M99.5384 19.7217C99.5384 22.6242 98.5265 25.0487 96.5028 27.0463C94.4791 29.0268 92.0267 30 89.1627 30C86.2986 30 83.8462 28.9927 81.8396 27.0121C81.1708 26.3292 78.8384 23.9047 78.8384 19.6534C78.8555 15.4362 81.2222 13.0288 81.8739 12.363C82.2341 12.0044 84.7208 9.35801 89.2141 9.37508C93.7245 9.39216 96.177 12.0556 96.5371 12.4142C98.5265 14.3776 99.5212 16.785 99.5212 19.6363C99.5384 19.6534 99.5384 19.6875 99.5384 19.7217ZM95.7139 19.7217L82.6628 19.6875C82.6628 23.273 85.5783 26.1755 89.1627 26.1926C92.7641 26.1926 95.6968 23.2901 95.7139 19.7217Z" fill="#F1B719"></path></svg> 