<svg width="100" height="40" viewBox="0 0 100 40" fill="none" xmlns="http://www.w3.org/2000/svg">
<g clip-path="url(#clip0_3681_7854)">
<path d="M18.3434 17.1408C18.3024 15.7047 17.8611 14.3102 17.0684 13.1198C16.2621 11.8857 15.1609 10.9646 13.9738 10.1426C12.0857 8.81344 9.88723 8.00526 7.59698 7.80322C7.11081 7.75568 6.62269 7.73389 6.13457 7.73389C5.55274 7.73389 4.96895 7.76558 4.38906 7.825H4.38125C3.61783 7.90424 2.86613 8.04488 2.17105 8.40935C0.823838 9.12046 -0.0196312 10.5684 0.0662777 11.955C0.0545629 12.1392 0.0604203 12.3235 0.079945 12.5077C0.154139 13.1495 0.413819 13.7576 0.825791 14.2508C1.23776 14.746 1.78446 15.1045 2.39558 15.2868C2.3292 15.4235 2.28234 15.578 2.255 15.7463C1.9387 17.8143 1.62631 19.8823 1.31586 21.9503C0.983942 24.1866 0.659831 26.423 0.32791 28.6593C0.302527 28.8396 0.126804 30.0301 0.101422 30.2321C0.0740876 30.444 -0.0137738 31.2027 0.00184599 31.3414C0.0604203 31.8782 0.404056 32.2922 0.931225 32.3813C1.07766 32.4051 1.22605 32.417 1.37444 32.415C1.48963 32.415 1.61069 32.409 1.73174 32.4011C3.2 32.2981 4.66826 32.2228 6.13262 32.0723C7.66727 31.9118 9.19801 31.7138 10.7229 31.478C12.1716 31.274 13.5403 30.6837 14.6903 29.7686C16.2328 28.5326 17.1016 26.8746 17.5956 24.9829C18.1501 22.8456 18.3805 20.6726 18.3649 18.4779C18.3688 18.0381 18.3629 17.5885 18.3434 17.1408ZM6.41768 13.2406L6.75546 13.2941L6.79842 13.302C6.64808 13.3317 6.49773 13.3654 6.34935 13.401L6.41768 13.2406ZM11.3086 19.4861C10.9689 21.5046 10.5882 23.5171 10.1664 25.5197C9.95752 26.522 9.35616 27.2648 8.40921 27.6313C7.95428 27.8036 7.48764 27.9502 7.01709 28.0869L6.41183 28.2414C6.72227 25.9753 7.12448 23.7211 7.47397 21.461L8.30378 16.1049C8.37992 15.6156 8.45216 15.1283 8.49121 14.6371C8.50098 14.5321 8.49512 14.439 8.48145 14.3538L8.49121 14.2409C8.51074 14.0012 8.46583 13.8111 8.37992 13.6605C8.58298 13.7259 8.78213 13.8012 8.97738 13.8883C10.2543 14.4588 11.0372 15.4274 11.295 16.8239C11.377 17.2775 11.4219 17.7371 11.4316 18.1986C11.4219 18.6264 11.3809 19.0563 11.3086 19.4861Z" fill="#231F20"/>
<path d="M99.9919 17.2376C99.9412 15.9521 99.1035 15.0548 97.8676 15.0548H97.7485C96.9441 15.0964 96.1416 15.1974 95.3509 15.3578C94.9096 15.443 94.4723 15.5698 94.031 15.7005L94.5738 12.1053C94.6753 11.4299 94.7886 10.7564 94.8647 10.077C94.8784 9.95217 94.8745 9.83729 94.8589 9.73626L94.8647 9.6808C94.8862 9.54412 94.8803 9.40348 94.8471 9.26879C94.8139 9.13409 94.7554 9.00732 94.6714 8.89639C94.5074 8.68841 94.2614 8.55371 93.9334 8.55371C93.8338 8.55371 93.7362 8.56758 93.6405 8.58937C92.3909 8.86074 91.1999 9.36387 90.1319 10.075C89.8137 10.3048 89.5872 10.6455 89.5013 11.0317C89.2455 12.6065 89.0249 14.1872 88.7984 15.7679C88.5777 17.309 88.3591 18.852 88.1443 20.3951L87.5585 24.535C87.541 24.0814 87.4024 23.6417 87.1563 23.2613C86.9123 22.881 86.5706 22.576 86.1684 22.3759C85.7154 22.1362 85.2351 21.9481 84.7411 21.8153C83.9367 21.6014 83.1186 21.4509 82.3103 21.2647C82.201 21.2409 82.1092 21.1973 82.0838 21.0785L82.0662 20.9893C82.0955 20.7655 82.1951 20.5575 82.3532 20.399C82.5094 20.2406 82.7145 20.1396 82.9351 20.1118C83.1948 20.0821 83.4544 20.0682 83.7161 20.0722C83.9445 20.0722 84.171 20.0782 84.3994 20.0861L85.0828 20.1059C85.5826 20.1217 86.0825 20.1297 86.5823 20.1316H86.7639C87.1349 20.1316 87.3926 20.0504 87.5956 19.9078C87.8299 19.7315 88.0037 19.4839 88.0955 19.2026C88.2263 18.8639 88.2771 18.5014 88.2478 18.1389C88.3474 16.9326 87.5273 15.75 86.2972 15.5322C85.8501 15.4569 85.3972 15.4212 84.9442 15.4232H84.8817C82.8472 15.4232 82.9976 15.4331 80.801 15.9164L80.762 15.9244C79.6588 16.166 78.8525 16.8672 78.3995 17.923C78.2335 18.3113 78.0929 18.7114 77.9777 19.1194L78.2199 17.5506C78.2452 17.3822 78.2472 17.2277 78.2277 17.095C78.2765 16.6949 78.1828 16.3938 78.0129 16.1838C77.8313 15.9561 77.5423 15.7996 77.1128 15.7956L77.0698 15.7916C76.2967 15.8035 75.5235 15.8075 74.7523 15.8511C73.4304 15.9244 72.134 16.1482 70.8903 16.6295C69.1447 17.303 67.7682 18.4103 67.1122 20.2346C66.8408 20.9854 66.71 21.7955 66.5811 22.5898L66.5479 22.8157H66.546L66.5382 22.8711C66.3429 24.1111 66.177 25.3551 66.0208 26.603C65.8997 27.5419 65.7962 28.4848 65.7435 29.4296C65.7377 29.5306 65.7396 29.6337 65.7494 29.7347L65.7435 29.8258C65.6908 30.8261 66.2824 31.565 67.2587 31.7373C67.532 31.7848 67.8092 31.8066 68.0865 31.8066C68.2876 31.8066 68.4887 31.7947 68.6898 31.7729C69.6758 31.6699 70.574 31.2777 71.433 30.7865L71.556 30.7152C71.6849 31.0499 71.9114 31.3391 72.2023 31.5432C72.4952 31.7472 72.8408 31.8601 73.1961 31.8621H73.284C74.4399 31.8621 75.381 31.3213 76.2361 30.5904C76.3845 30.4656 76.5251 30.3349 76.6598 30.1942C76.7555 30.5983 76.9605 30.9667 77.2514 31.2599C77.5423 31.5531 77.9055 31.7591 78.3038 31.8561C78.7685 31.9671 79.239 32.0384 79.7154 32.0681C80.0396 32.0859 80.3598 32.0958 80.68 32.0958C81.6035 32.1037 82.5251 32.0027 83.4271 31.7987C85.0184 31.4243 86.2777 30.6043 86.883 29.0077L86.9611 28.7977L86.8888 29.3286C86.8147 29.8595 86.7522 30.4914 86.6819 31.0579C86.6702 31.1411 86.676 31.2282 86.7014 31.3094L86.6819 31.454C86.6702 31.5352 86.676 31.6204 86.6995 31.6997C86.7229 31.7789 86.7639 31.8522 86.8186 31.9136C86.8732 31.9789 86.9396 32.0305 87.0158 32.0641C87.0919 32.0978 87.1759 32.1156 87.2579 32.1117C87.2872 32.1117 87.3164 32.1077 87.3438 32.1037L90.6825 31.559C90.9617 31.5115 91.2194 31.3748 91.4147 31.1668C91.6099 30.9667 91.7388 30.7073 91.7798 30.428C92.1078 28.3382 92.43 26.2464 92.7502 24.1547L93.5253 19.1214C93.949 19.0144 94.3707 18.8936 94.7983 18.7985C94.605 20.0801 94.4235 21.3657 94.2399 22.6493C94.0017 24.327 93.7499 26.0028 93.537 27.6825C93.4336 28.5105 93.3847 29.3464 93.3555 30.1823C93.3535 30.2556 93.3555 30.3269 93.3613 30.4002L93.3555 30.5785C93.3379 30.9608 93.4609 31.3352 93.701 31.6283C93.9353 31.9294 94.2712 32.1295 94.6441 32.1889C95.0697 32.2622 95.5032 32.2642 95.9288 32.1949C97.1921 31.9889 98.1527 31.2441 98.963 30.2933C99.2578 29.9645 99.4628 29.5623 99.5565 29.1285C99.5799 29.0057 99.6073 28.8829 99.5995 28.7383C99.5878 28.4769 99.5272 28.36 99.4394 28.255C99.3866 28.1896 99.3203 28.1381 99.2441 28.1025C99.168 28.0688 99.086 28.053 99.004 28.0569C98.9708 28.0569 98.9376 28.0589 98.9063 28.0668C98.7794 28.0906 98.6818 28.1124 98.5842 28.1282L98.551 28.1342C98.6584 27.4547 98.7619 26.7733 98.8673 26.0939C99.1406 24.3072 99.4198 22.5225 99.6873 20.7358C99.8377 19.7454 100.021 18.7609 99.9939 17.7507C99.9997 17.5803 99.9978 17.408 99.99 17.2357L99.9919 17.2376ZM71.9055 28.0886H70.4099L71.7728 19.9633C71.7728 19.9633 71.7767 19.9474 71.7786 19.9395C71.8216 19.6701 71.9348 19.4166 72.1066 19.2066C72.2765 18.9966 72.4991 18.8342 72.751 18.7411L73.1415 18.5925C73.1747 18.5806 73.2098 18.5787 73.243 18.5886C73.2762 18.5985 73.3055 18.6163 73.3289 18.644L71.9055 28.0886ZM82.8218 27.1992C82.6754 27.3715 82.486 27.4983 82.2751 27.5677C81.9823 27.6627 81.6796 27.7182 81.3731 27.7301C81.1798 27.742 80.9982 27.7479 80.8147 27.7479C80.0337 27.74 79.2566 27.6588 78.4912 27.5003C78.3565 27.4726 78.2199 27.4587 78.0812 27.4567C77.884 27.4488 77.6888 27.4845 77.5092 27.5637C77.3295 27.6429 77.1694 27.7638 77.0406 27.9163C76.9917 27.8905 76.939 27.8707 76.8844 27.8569L76.6442 27.7974L77.0074 25.4402L77.6224 21.4469C77.6185 21.6173 77.6185 21.7856 77.6224 21.956C77.6185 22.1164 77.6185 22.2749 77.6224 22.4353C77.64 23.2059 77.8235 23.81 78.1671 24.2933C78.5088 24.7727 79.0165 25.1392 79.7272 25.4066C80.0337 25.5234 80.3461 25.6225 80.6624 25.7037C81.3965 25.8879 82.1346 26.0543 82.8687 26.2346C82.9507 26.2544 83.0249 26.292 83.0503 26.3752C83.0718 26.4465 83.0893 26.5198 83.0991 26.5931C83.0639 26.8169 82.9683 27.0269 82.8218 27.1992Z" fill="#231F20"/>
<path d="M66.5461 22.8158C66.7648 21.3896 66.8663 19.9455 66.8507 18.5015C66.8507 18.139 66.8487 17.7666 66.837 17.3962C66.8136 16.1721 66.5129 14.9677 65.9584 13.8803C65.2731 12.5234 64.2168 11.5132 63.0336 10.6218C60.6672 8.81925 58.0001 7.8526 55.0284 7.81299H54.8195C54.0639 7.81299 53.3044 7.86845 52.5547 7.9358L52.5176 7.93976C51.6389 8.02494 50.7994 8.28442 50.0926 8.85094C49.089 9.65912 48.4896 10.6852 48.5618 11.9707C48.5482 12.2243 48.5618 12.4798 48.5989 12.7314C48.7629 13.7911 49.542 14.9697 50.8755 15.352C50.8072 15.4966 50.7603 15.659 50.7388 15.8373L50.4069 18.0043C50.1492 19.7296 49.8915 21.4569 49.6357 23.1822C49.3838 24.8897 49.1886 25.7771 48.9113 27.4826C48.8996 27.5559 48.7747 28.3205 48.7668 28.3997C48.7668 28.3997 48.6751 28.887 48.6243 29.1306C48.3529 30.4083 48.3803 31.4442 48.4056 31.6027C48.5013 32.2088 49.0617 32.5 49.7646 32.5C50.0321 32.5 50.2976 32.4723 50.5651 32.4525C52.049 32.3415 53.5348 32.2623 55.0128 32.1118C56.3464 31.9771 57.674 31.781 59.0017 31.5829C60.2943 31.4106 61.5321 30.951 62.6294 30.2359C64.4081 29.0534 65.4469 27.3439 66.0111 25.3116C66.2317 24.5094 66.4075 23.6933 66.5383 22.8712L66.5422 22.8395L66.5461 22.8158ZM54.8957 13.3474L54.9132 13.3058L55.2803 13.3652C55.1358 13.395 54.9913 13.4266 54.8488 13.4603L54.8957 13.3474ZM59.7905 19.6603C59.4938 21.4985 59.1072 23.3229 58.7713 25.1571C58.5351 26.4486 57.8712 27.3756 56.6529 27.8114C56.5846 27.8352 56.5182 27.853 56.4498 27.8728L54.9308 28.269L55.6923 23.3129L56.4557 18.353C56.6295 17.216 56.811 16.079 56.9672 14.938C56.9907 14.7875 56.9926 14.633 56.9751 14.4824C57.0122 14.1536 56.9575 13.904 56.856 13.7198C57.0571 13.7832 57.2543 13.8565 57.4495 13.9436C58.7186 14.5042 59.5113 15.455 59.7788 16.8416C59.8667 17.2952 59.9155 17.7567 59.9253 18.2202C59.9155 18.7036 59.8686 19.1849 59.7905 19.6603Z" fill="#231F20"/>
<path d="M47.5817 9.22134C47.0936 8.94798 46.6133 8.65878 46.129 8.37552C45.7229 8.13981 45.3227 7.8922 44.9087 7.66837C44.7291 7.56339 44.5261 7.50594 44.3171 7.5C43.872 7.5 43.501 7.76147 43.3741 8.40524L43.3663 8.44882H43.3682C43.3311 8.65482 43.3116 8.86281 43.2823 9.07278L42.6185 13.803L42.0152 18.1133L41.3552 22.8217C41.1366 24.3806 40.9101 25.9415 40.6953 27.5024C40.6035 28.1679 40.4805 28.8355 40.4708 29.503C40.4708 29.5763 40.4708 29.6516 40.4766 29.7249C40.4747 29.7823 40.4708 29.8397 40.4708 29.8992C40.461 30.6321 40.6894 31.1372 41.037 31.468C41.3845 31.8008 41.8707 31.9711 42.4447 31.9711C43.8271 31.9216 45.1548 31.4046 46.2149 30.5013C46.5742 30.1943 46.8768 29.8239 47.1072 29.4079L47.2146 29.2178C47.3318 29.0137 47.3298 28.7721 47.3298 28.6334C47.3298 28.5126 47.3181 28.3898 47.279 28.2709C47.2498 28.1798 47.199 28.0966 47.1326 28.0273C47.0682 27.9599 46.9901 27.9065 46.9022 27.8728H46.8944L46.8964 27.8708C46.5391 27.7084 46.1993 27.6787 45.8674 27.6787H45.76C45.9475 26.4466 46.1408 25.2125 46.3262 23.9805L47.0975 18.8581L47.8199 14.0248L48.267 10.9882C48.2904 10.8337 48.2904 10.6911 48.2709 10.5584C48.3588 9.94434 48.1147 9.52044 47.5797 9.22332L47.5817 9.22134Z" fill="#231F20"/>
<path d="M41.0564 17.5331C41.0838 17.3568 41.0975 17.2914 41.1111 17.1131C41.1443 16.6219 41.0213 16.3802 40.8632 16.1782C40.6855 15.9543 40.3985 15.7979 39.9533 15.7979H39.926H39.9299C39.1508 15.8058 38.3679 15.8078 37.5908 15.8533C36.2787 15.9088 34.9842 16.1683 33.7522 16.6258C31.5303 17.4835 30.0542 19.0246 29.613 21.4412C29.3631 22.802 29.2069 24.1827 29.0116 25.5554C28.914 26.2427 28.83 26.9321 28.7324 27.6194L28.7246 27.663L28.6699 27.6709C28.4513 27.7026 28.2267 27.7145 28.0061 27.7383C26.9108 27.8551 25.8154 27.9938 24.7181 28.0829C24.107 28.1325 23.4939 28.1443 22.8828 28.1225C23.0488 27.5065 23.1347 26.8707 23.1386 26.2328V26.1873C24.107 26.0882 25.0735 25.9852 26.038 25.8664C26.3367 25.8288 26.6276 25.7436 26.901 25.6148C27.311 25.4207 27.6703 25.1315 27.9495 24.769C28.0412 24.6482 28.1252 24.5214 28.1974 24.3867C28.3439 24.1193 28.4493 23.8301 28.5059 23.531C28.6387 22.8496 28.7363 22.1563 28.8418 21.465C28.9238 21.0074 28.9628 20.5439 28.955 20.0784C28.9706 19.7476 28.9511 19.4148 28.873 19.0801C28.5665 17.7589 27.682 16.9863 26.4656 16.6199C25.9111 16.4495 25.3449 16.3624 24.763 16.3624C23.5193 16.3624 22.3263 16.7724 21.1998 17.4756C20.0634 18.1847 19.2668 19.193 18.9154 20.5142C18.7748 21.0371 18.6947 21.5799 18.6147 22.1187C18.3843 23.6479 18.1519 25.1731 17.9508 26.7043C17.8415 27.5501 17.7654 28.4018 17.7302 29.2536C17.7263 29.3427 17.7302 29.4299 17.7361 29.519L17.7302 29.6498C17.7048 30.0776 17.822 30.5035 18.0602 30.8581C18.3003 31.2126 18.6479 31.4741 19.052 31.6048C19.3547 31.7138 19.6905 31.8009 20.0107 31.8009H20.0654C21.0904 31.7692 22.1194 31.7534 23.1347 31.6286C24.9622 31.4068 26.7585 30.9749 28.5352 30.4916L28.7246 30.4401C28.7441 30.4976 28.7637 30.555 28.7832 30.6105C29.0507 31.3335 29.5896 31.7534 30.3256 31.793C30.4662 31.8009 30.6048 31.8049 30.7435 31.8049C31.134 31.8049 31.5245 31.7752 31.9091 31.7138C32.8209 31.5652 33.6488 31.179 34.4376 30.7095C34.5371 30.965 34.6914 31.1928 34.8886 31.379C35.0858 31.5652 35.324 31.7039 35.5817 31.7871C35.7555 31.8425 35.9371 31.8722 36.1206 31.8722H36.1401C37.1398 31.8564 38.0086 31.4701 38.7799 30.8521C39.266 30.4639 39.7424 30.0539 40.0158 29.4695C40.0744 29.3408 40.1036 29.1981 40.0997 29.0555V28.6593C40.0978 28.5187 40.0646 28.384 40.0021 28.2572C39.9396 28.1324 39.8518 28.0215 39.7424 27.9363C39.6663 27.8749 39.5804 27.8294 39.4906 27.7957C39.7249 26.2824 39.9553 24.771 40.1856 23.2576C40.4727 21.3481 40.7636 19.4406 41.0564 17.5331ZM23.5935 20.6608C23.6384 20.3894 23.7321 20.1299 23.8727 19.8962L24.0445 19.605C24.1343 19.4485 24.273 19.3277 24.437 19.2584L24.4526 19.2524C24.4936 19.2366 24.5365 19.2306 24.5795 19.2306L24.6537 19.2366C24.7123 19.2465 24.7669 19.2702 24.8138 19.3059C24.8607 19.3415 24.8978 19.3891 24.9212 19.4446C24.9309 19.4683 24.9407 19.4921 24.9485 19.5159L24.4663 23.1328C24.4565 23.2259 24.4233 23.3131 24.3706 23.3884C24.3159 23.4636 24.2437 23.5231 24.1597 23.5607L24.148 23.5647L23.039 24.0143L23.5935 20.6608ZM34.7089 28.1483L33.3227 28.1879L34.7031 19.9833V19.9754C34.7812 19.4564 35.0389 19.0385 35.5466 18.8543L35.939 18.7037C35.9507 18.6998 35.9644 18.6938 35.9761 18.6879C36.0171 18.67 36.0581 18.6562 36.1011 18.6463L34.7089 28.1483Z" fill="#231F20"/>
<path d="M46.9124 27.8748L46.8984 27.8687C46.8984 27.8687 46.9024 27.8707 46.9044 27.8707L46.9124 27.8748Z" fill="#231F20"/>
<path d="M16.6193 13.4205C15.852 12.2439 14.7996 11.3744 13.6711 10.5919C11.8572 9.31429 9.74661 8.53979 7.54617 8.34567C7.07757 8.30011 6.60508 8.27832 6.13453 8.27832C5.56831 8.27832 5.00795 8.30803 4.44173 8.36548C3.74275 8.43679 3.05547 8.5596 2.41701 8.89436C1.2221 9.52426 0.474299 10.8217 0.612925 12.0498C0.679309 12.6342 0.929226 13.1809 1.32753 13.6107C1.72584 14.0386 2.2491 14.3258 2.81922 14.4268C3.01447 14.4585 3.21167 14.4743 3.41082 14.4763C4.3812 14.4763 5.22663 14.0485 5.74208 13.0303C5.86899 12.7807 5.96662 12.5153 6.08572 12.236C7.14005 12.4143 8.2022 12.547 9.19406 12.9907C10.6428 13.6404 11.5312 14.7398 11.8201 16.3264C12.0154 17.4 12.0212 18.4994 11.8397 19.575C11.496 21.6014 11.1133 23.6178 10.6897 25.6284C10.4417 26.8208 9.72513 27.7023 8.60051 28.1381C8.12605 28.3144 7.64379 28.4709 7.15567 28.6095L5.72256 28.9779C6.04471 26.2999 6.53088 23.6436 6.94285 20.9774L7.77266 15.6212C7.8449 15.1458 7.91519 14.6704 7.95619 14.1911C7.98157 13.892 7.81952 13.7553 7.52274 13.7553H7.51883C7.41535 13.7533 7.30992 13.7612 7.20644 13.7771C5.85728 14.0207 4.55107 14.4625 3.33077 15.0924C3.02619 15.2488 2.8368 15.4885 2.78408 15.8272C2.46778 17.8952 2.15538 19.9632 1.84689 22.0312C1.51497 24.2675 1.18891 26.5039 0.858937 28.7402C0.800363 29.1523 0.874557 29.5009 1.24162 29.7425C1.33144 29.802 1.4193 29.8693 1.53449 29.9565C1.28067 30.0476 1.0659 30.105 0.870652 30.2001C0.589496 30.3388 0.499682 30.5507 0.534826 30.8855C0.566066 31.1707 0.737884 31.4005 1.01904 31.448C1.13619 31.4659 1.25139 31.4758 1.36853 31.4738C1.47787 31.4738 1.58721 31.4678 1.6946 31.4599C3.157 31.3589 4.61941 31.2816 6.07791 31.1331C7.60279 30.9726 9.12377 30.7765 10.6408 30.5428C11.9978 30.3526 13.2806 29.8 14.3584 28.9443C15.8032 27.7835 16.6115 26.2226 17.0743 24.4478C17.6951 22.0569 17.9002 19.6225 17.8064 17.1584C17.7674 15.8233 17.3574 14.5278 16.6193 13.4205Z" fill="url(#paint0_linear_3681_7854)"/>
<path d="M98.3383 25.6142C98.6117 23.8295 98.8909 22.0448 99.1584 20.2581C99.3068 19.2637 99.4981 18.2773 99.4552 17.2591C99.4161 16.2885 98.7991 15.5972 97.8678 15.5972H97.776C96.997 15.6388 96.2219 15.7359 95.4565 15.8904C94.7438 16.029 94.0546 16.2707 93.3361 16.4727C93.3361 16.4034 93.3947 15.9141 93.4025 15.8626L94.0429 11.6276C94.1425 10.9601 94.2577 10.2926 94.3299 9.62105C94.367 9.28828 94.2128 9.1001 93.9316 9.1001C93.873 9.1001 93.8164 9.10604 93.7598 9.11991C92.5727 9.37741 91.4441 9.85479 90.4289 10.5283C90.2277 10.6689 90.0852 10.8809 90.0286 11.1225C89.7748 12.6933 89.5541 14.272 89.3296 15.8468C89.109 17.3879 88.8923 18.929 88.6775 20.472L88.0234 25.0715C87.8203 26.5155 87.6173 27.9615 87.4181 29.4055C87.3479 29.9324 87.2854 30.5623 87.2151 31.1289C87.2112 31.1566 87.2229 31.1705 87.2541 31.1705H87.258L90.5968 30.6257C90.7627 30.596 90.9131 30.5148 91.0302 30.392C91.1493 30.2712 91.2255 30.1147 91.2508 29.9463C91.8405 26.1411 92.4282 22.336 93.0139 18.5308C93.0257 18.3525 93.1174 18.2535 93.2912 18.2238C93.7656 18.1069 94.2401 17.9683 94.7184 17.8633C94.8395 17.8316 94.9645 17.8137 95.0894 17.8098C95.4116 17.8098 95.4604 18.0098 95.3823 18.5268C95.1714 19.9273 94.9723 21.3277 94.7731 22.7282C94.5349 24.402 94.283 26.0758 94.0702 27.7515C93.9687 28.5637 93.9218 29.3837 93.8945 30.2018C93.8828 30.4514 93.9628 30.697 94.119 30.8892C94.2713 31.0853 94.492 31.216 94.736 31.2556C95.1031 31.319 95.478 31.323 95.845 31.2636C96.9775 31.0774 97.8307 30.3959 98.559 29.5402C98.7933 29.2827 98.9553 28.9678 99.0315 28.6251C99.0354 28.6092 99.0276 28.6013 99.0119 28.6013H99.01C98.8733 28.6291 98.7718 28.6508 98.6664 28.6667C98.5551 28.6865 98.4418 28.7023 98.3286 28.7063H98.2973C97.9088 28.7063 97.8639 28.631 97.9303 28.225C98.0708 27.3554 98.2036 26.4858 98.3383 25.6142Z" fill="url(#paint1_linear_3681_7854)"/>
<path d="M86.7329 23.6059C86.5376 23.283 86.2565 23.0236 85.9206 22.8572C85.5009 22.6373 85.0596 22.465 84.6027 22.3422C83.8061 22.1282 82.9939 21.9797 82.1914 21.7954C81.8712 21.7222 81.6349 21.5478 81.5588 21.1933C81.3479 20.2306 81.9005 19.2976 82.867 19.1768C83.1501 19.1431 83.4332 19.1273 83.7182 19.1293C83.9525 19.1293 84.1849 19.1372 84.4172 19.1451L85.0986 19.1649C85.5926 19.1788 86.0866 19.1907 86.5825 19.1907H86.7582C87.2288 19.1867 87.426 19.0461 87.5939 18.6083C88.0098 17.5248 87.3342 16.267 86.2057 16.0689C85.7898 15.9995 85.3681 15.9659 84.9463 15.9679H84.88C82.8884 15.9679 83.0505 15.9797 80.8774 16.4571H80.8735C79.9461 16.6592 79.2725 17.2534 78.8898 18.1408C78.3665 19.365 78.1146 20.6901 78.1556 22.0232C78.1869 23.3128 78.7219 24.0496 79.9129 24.4993C80.1999 24.6082 80.4947 24.7013 80.7915 24.7766C81.5217 24.9628 82.2597 25.1272 82.9919 25.3074C83.1227 25.3332 83.2438 25.3926 83.3434 25.4818C83.4429 25.5709 83.5171 25.6858 83.5581 25.8145C83.6343 26.0364 83.6636 26.2721 83.6499 26.5078C83.6343 26.7435 83.5738 26.9713 83.4703 27.1833C83.3668 27.3933 83.2243 27.5814 83.0485 27.7359C82.8728 27.8904 82.6698 28.0073 82.4491 28.0806C82.1074 28.1935 81.7541 28.2569 81.3948 28.2727C81.1995 28.2866 81.0043 28.2926 80.813 28.2926C79.9968 28.2846 79.1807 28.1975 78.3802 28.0331C78.2806 28.0133 78.1771 28.0014 78.0756 28.0014C77.6304 28.0014 77.3532 28.2411 77.2009 28.7541C77.1345 28.9779 77.1111 29.2136 77.1384 29.4474C77.1638 29.6811 77.236 29.9049 77.3512 30.109C77.4664 30.313 77.6207 30.4913 77.8042 30.6319C77.9897 30.7725 78.2005 30.8736 78.4251 30.931C78.8624 31.034 79.3037 31.0994 79.7508 31.1291C80.0632 31.1489 80.3717 31.1568 80.6802 31.1568C81.5647 31.1628 82.4472 31.0677 83.3102 30.8716C84.7179 30.5428 85.8484 29.8317 86.3834 28.4173C86.8422 27.2269 87.0609 25.9572 87.0277 24.6795C87.0316 24.3012 86.9301 23.9288 86.7348 23.6059H86.7329Z" fill="url(#paint2_linear_3681_7854)"/>
<path d="M39.9552 16.3403L39.9377 16.3423C39.1625 16.3522 38.3874 16.3542 37.6162 16.3958C36.3607 16.4493 35.1209 16.6989 33.9397 17.1366C31.9032 17.921 30.5443 19.3274 30.1382 21.54C29.8922 22.8949 29.734 24.2676 29.5407 25.6324C29.4431 26.3217 29.3592 27.011 29.2615 27.6964C29.2049 28.0846 29.1268 28.1579 28.7422 28.2114C28.5157 28.2431 28.2872 28.257 28.0588 28.2807C26.9596 28.3976 25.8603 28.5363 24.7591 28.6274C24.3198 28.6611 23.8805 28.6789 23.4412 28.6769C23.2069 28.6769 22.9707 28.6729 22.7344 28.665C22.2736 28.6512 22.1526 28.3045 22.3049 27.7796C22.4942 27.1477 22.5919 26.4921 22.5977 25.8324C22.6016 25.4541 22.6817 25.2917 22.9785 25.262C23.9781 25.159 24.9739 25.054 25.9697 24.9312C26.2137 24.9015 26.45 24.8321 26.6725 24.7271C26.8951 24.6222 27.0982 24.4815 27.2778 24.3112C27.4574 24.1428 27.6078 23.9447 27.7269 23.7288C27.846 23.5109 27.9299 23.2752 27.9768 23.0316C28.1076 22.3561 28.2033 21.6707 28.3087 20.9854C28.3966 20.3971 28.4864 19.8028 28.3478 19.2086C28.0881 18.0934 27.3344 17.4516 26.3094 17.1426C25.8037 16.9861 25.2863 16.9088 24.7591 16.9068C23.613 16.9068 22.5177 17.2931 21.477 17.9428C20.4598 18.5767 19.7471 19.474 19.4308 20.6565C19.2961 21.1617 19.2219 21.6846 19.1438 22.2016C18.9134 23.7268 18.6811 25.2501 18.48 26.7753C18.3726 27.6053 18.2984 28.4412 18.2632 29.2771C18.2457 29.5881 18.3316 29.8971 18.5053 30.1546C18.6791 30.4121 18.9349 30.6023 19.2278 30.6954C19.4738 30.7845 19.7471 30.8618 20.0087 30.8618H20.0478C21.0553 30.832 22.0686 30.8162 23.0683 30.6934C24.8724 30.4735 26.6394 30.0457 28.3946 29.5703C28.6192 29.5069 28.8457 29.4494 29.0741 29.39C29.1502 29.6237 29.2127 29.8278 29.285 30.0259C29.4685 30.529 29.8414 30.8261 30.353 30.8538C30.845 30.8816 31.337 30.8578 31.8232 30.7786C32.7565 30.63 33.5882 30.2021 34.3887 29.7089C34.4981 29.6416 34.6133 29.5802 34.7402 29.5069C34.8066 29.7228 34.8573 29.9149 34.9257 30.0932C34.9706 30.216 35.035 30.3309 35.1151 30.4339C35.2752 30.6419 35.4919 30.7944 35.7399 30.8736C35.8629 30.9133 35.9898 30.9331 36.1186 30.9331H36.1343C37.0109 30.9192 37.7704 30.5726 38.4479 30.0318C38.8697 29.6931 39.2953 29.3484 39.5296 28.8433C39.555 28.7898 39.5667 28.7304 39.5648 28.6729C39.5648 28.6135 39.5491 28.5561 39.5237 28.5026C39.4984 28.4491 39.4613 28.4036 39.4144 28.3679C39.3675 28.3322 39.3148 28.3065 39.2582 28.2946L38.8423 28.1995C38.8775 27.9499 38.9009 27.7122 38.9361 27.4785C39.1782 25.9117 39.4183 24.3448 39.6546 22.778C39.9416 20.8685 40.2325 18.961 40.5273 17.0534C40.5996 16.578 40.4238 16.3403 39.9552 16.3403ZM22.3263 24.6301L23.0644 20.1752C23.119 19.8345 23.2362 19.5156 23.4119 19.2205L23.5818 18.9293C23.7302 18.6718 23.9586 18.4717 24.232 18.3608H24.23C24.3413 18.3132 24.4604 18.2895 24.5795 18.2895C24.6381 18.2895 24.6927 18.2954 24.7474 18.3053C24.888 18.3291 25.0227 18.3865 25.136 18.4737C25.2492 18.5608 25.341 18.6757 25.3995 18.8084C25.4952 19.0045 25.5284 19.2264 25.4972 19.4423L24.9954 23.2059C24.9778 23.396 24.9075 23.5783 24.7923 23.7308C24.6791 23.8833 24.5248 24.0022 24.3491 24.0715H24.3452L22.5392 24.8044L22.2775 24.9114L22.3244 24.6301H22.3263ZM36.6614 18.5272L35.2185 28.3877C35.2049 28.4729 35.1658 28.5422 35.1014 28.6016C35.0409 28.6571 34.9608 28.6888 34.8788 28.6888L33.0318 28.7423C32.9849 28.7423 32.94 28.7344 32.899 28.7165C32.856 28.6987 32.8189 28.671 32.7858 28.6373C32.7174 28.5699 32.6842 28.4868 32.6842 28.3877L32.6881 28.3243L34.1701 19.4978C34.2813 18.7767 34.6562 18.2043 35.3611 17.9448L35.7516 17.7982C35.8804 17.7368 36.021 17.7012 36.1635 17.6913H36.1694C36.269 17.6913 36.3646 17.719 36.4466 17.7764C36.5267 17.8319 36.5911 17.9072 36.6341 17.9943C36.6751 18.0835 36.6927 18.1805 36.6848 18.2796C36.6829 18.3628 36.6751 18.444 36.6634 18.5272H36.6614Z" fill="url(#paint3_linear_3681_7854)"/>
<path d="M75.9981 28.2075C76.0039 28.1025 76.002 28.0213 76.0137 27.942L76.4745 24.9609L77.6889 17.0732C77.7612 16.5959 77.5659 16.3403 77.0954 16.3403H77.0758C76.3105 16.3502 75.5451 16.3522 74.7817 16.3958C73.5145 16.4651 72.2727 16.6791 71.0798 17.1386C69.4866 17.7546 68.2155 18.755 67.6161 20.4228C67.3564 21.1419 67.2334 21.9183 67.1104 22.679C66.8976 24.0061 66.7199 25.3392 66.552 26.6723C66.4348 27.5993 66.3314 28.5303 66.2786 29.4613C66.2415 30.1665 66.6613 30.6835 67.3525 30.8083C67.5946 30.8479 67.8387 30.8677 68.0847 30.8677C68.2682 30.8677 68.4498 30.8558 68.6314 30.836C69.5451 30.7409 70.3749 30.3705 71.1696 29.9169C71.4098 29.7782 71.646 29.6356 71.9057 29.4831C71.9311 29.6138 71.9525 29.7168 71.9701 29.8198C72.0131 30.1229 72.1615 30.4022 72.3879 30.6043C72.6144 30.8063 72.9053 30.9212 73.208 30.9252H73.2822C74.3072 30.9252 75.1331 30.428 75.8887 29.7822C76.3124 29.4197 76.7205 29.0354 76.7673 28.3956C76.7673 28.3917 76.7654 28.3897 76.7595 28.3877L75.9981 28.2075ZM73.8972 18.4677V18.4717L72.4055 28.3798C72.3782 28.5501 72.2825 28.6353 72.1126 28.6353H70.0567C69.9747 28.6353 69.9063 28.6056 69.8478 28.5462C69.7892 28.4887 69.7599 28.4174 69.7599 28.3342L69.7638 28.2827L71.2477 19.4482V19.4522C71.3063 19.0897 71.4605 18.749 71.6929 18.4658C71.9233 18.1805 72.2239 17.9626 72.5637 17.8359L72.9522 17.6893C73.0323 17.6576 73.1143 17.6437 73.2002 17.6437C73.3017 17.6437 73.4013 17.6655 73.493 17.7091C73.5868 17.7527 73.6688 17.8141 73.7351 17.8933C73.8015 17.9706 73.8503 18.0637 73.8777 18.1627C73.905 18.2617 73.9128 18.3667 73.8972 18.4677Z" fill="url(#paint4_linear_3681_7854)"/>
<path d="M66.3003 17.4098C66.2788 16.2669 65.9976 15.1437 65.4802 14.1276C64.832 12.848 63.8285 11.8991 62.7136 11.0573C60.437 9.32406 57.8753 8.39506 55.0208 8.35742H54.8178C54.0797 8.35742 53.3339 8.4109 52.5998 8.47627C51.8129 8.54956 51.0573 8.76943 50.4266 9.27652C49.4856 10.0332 48.9408 11.0018 49.1302 12.2517C49.2317 12.9034 49.5637 13.4937 50.0615 13.9136C50.5614 14.3356 51.194 14.5574 51.8441 14.5396C52.9453 14.5396 53.8493 14.0285 54.3433 12.8757C54.4214 12.6915 54.4917 12.5013 54.5718 12.2973C55.6261 12.4835 56.6804 12.6083 57.6645 13.0441C59.1035 13.6819 60.0016 14.7634 60.3062 16.3382C60.5112 17.4633 60.5151 18.6181 60.3198 19.7452C60.0231 21.5874 59.6365 23.4157 59.2987 25.2519C59.0254 26.7514 58.2444 27.817 56.8308 28.3222C56.7488 28.3519 56.6668 28.3756 56.5828 28.3974L54.2184 29.0154C54.2769 28.6114 54.3297 28.2271 54.3902 27.8428L55.1614 22.8313C55.4172 21.1773 55.6691 19.5233 55.9229 17.8693C56.0986 16.7343 56.2802 15.6013 56.4344 14.4643C56.4969 14.0107 56.3583 13.8027 56.001 13.8027C55.9229 13.8027 55.8467 13.8126 55.7706 13.8265C54.3941 14.0662 53.0625 14.5138 51.8168 15.1536C51.6665 15.219 51.5357 15.326 51.438 15.4607C51.3424 15.5954 51.2818 15.7538 51.2682 15.9202C50.8933 18.3665 50.5262 20.8129 50.167 23.2612C49.9132 24.9726 49.6828 26.688 49.4055 28.3954C49.3938 28.4588 49.386 28.5222 49.3801 28.5876L49.3391 29.059C49.3255 29.1779 49.3391 29.2987 49.384 29.4096C49.4289 29.5206 49.4992 29.6176 49.5929 29.6929L49.9971 29.9841C49.8409 30.0316 49.6925 30.1227 49.548 30.1742C49.1302 30.3188 48.9564 30.5823 49.0209 30.9765C49.0755 31.3271 49.3586 31.5568 49.7628 31.5568C50.0166 31.5568 50.2705 31.5311 50.5243 31.5113C52.0042 31.4023 53.4842 31.3211 54.9603 31.1726C56.286 31.028 57.6059 30.8537 58.9238 30.6476C60.1383 30.4852 61.3039 30.0554 62.3348 29.3839C63.9983 28.2746 64.9648 26.6702 65.492 24.7686C66.1578 22.3599 66.3706 19.9017 66.3003 17.4098Z" fill="url(#paint5_linear_3681_7854)"/>
<path d="M47.3222 9.69888C46.8301 9.42355 46.3459 9.13435 45.8598 8.85109C45.4576 8.61339 45.0592 8.36975 44.6492 8.1479C44.5477 8.08649 44.4345 8.05282 44.3173 8.04688C44.1045 8.04688 43.962 8.20534 43.9014 8.51237V8.51633H43.9034C43.8604 8.72432 43.8448 8.93825 43.8136 9.15019C43.5929 10.7289 43.3723 12.3056 43.1497 13.8844L42.5445 18.1907L41.8865 22.8991C41.6658 24.46 41.4413 26.0189 41.2265 27.5798C41.1387 28.2216 41.0157 28.8673 41.0079 29.5111C40.9922 30.5946 41.6014 31.0324 42.4429 31.0324C43.7003 30.9829 44.905 30.5114 45.8695 29.6914C46.18 29.4239 46.4416 29.105 46.6408 28.7445L46.7481 28.5524C46.795 28.4692 46.7755 28.4098 46.6896 28.3741C46.4318 28.2632 46.1507 28.2117 45.8695 28.2236H45.4732C45.4224 28.2236 45.3736 28.2137 45.3287 28.1919C45.2838 28.1701 45.2428 28.1384 45.2115 28.0988C45.1784 28.0611 45.1549 28.0156 45.1432 27.9661C45.1315 27.9165 45.1295 27.865 45.1393 27.8155C45.3541 26.3754 45.5806 24.9394 45.7973 23.5013L46.5685 18.3789L47.2909 13.5456L47.738 10.509C47.7966 10.1327 47.6443 9.87914 47.3222 9.69888Z" fill="url(#paint6_linear_3681_7854)"/>
<path d="M16.3754 13.5847C15.5807 12.3645 14.4795 11.5108 13.5033 10.8353C11.7344 9.58938 9.66473 8.83072 7.51701 8.64056C7.06794 8.59698 6.60911 8.5752 6.15613 8.5752H6.1327C5.58211 8.5752 5.03736 8.60293 4.46919 8.66037C3.87369 8.72178 3.17861 8.82874 2.54991 9.15756C1.45457 9.73398 0.777061 10.9106 0.902019 12.0159C0.960594 12.5329 1.18708 13.0281 1.53853 13.4064C1.88997 13.7848 2.36247 14.0443 2.86426 14.1334C3.03998 14.1611 3.22351 14.177 3.409 14.179C4.35205 14.179 5.04908 13.7471 5.48058 12.8934C5.56258 12.731 5.63482 12.5567 5.70902 12.3724C5.74416 12.2892 5.77735 12.2041 5.81445 12.1169L5.90622 11.903C5.90622 11.903 6.39824 11.9862 6.53296 12.008C7.45648 12.1585 8.41124 12.315 9.31133 12.7171C10.8636 13.4144 11.8046 14.6088 12.1073 16.2707C12.3084 17.3819 12.3162 18.509 12.1268 19.6223C11.7851 21.6387 11.3966 23.679 10.9748 25.6875C10.7015 27.0008 9.9166 27.9437 8.70021 28.4151C8.2199 28.5934 7.72788 28.7539 7.22609 28.8965L5.37905 29.3719L5.42981 28.942C5.65239 27.0939 5.95698 25.228 6.2518 23.4215C6.38653 22.5915 6.5232 21.7615 6.65206 20.9296L7.48186 15.5735C7.55801 15.0743 7.6244 14.6227 7.66344 14.1631C7.6693 14.0977 7.65759 14.074 7.65759 14.074C7.64978 14.068 7.61073 14.0502 7.51115 14.0502H7.48186C7.40572 14.0502 7.32762 14.0561 7.25538 14.068C5.93355 14.3057 4.65663 14.7395 3.46172 15.3556C3.23132 15.4724 3.10832 15.6368 3.07122 15.8706C2.75492 17.9386 2.44252 20.0046 2.13403 22.0725C1.93683 23.4056 1.73963 24.7387 1.54438 26.0718L1.14608 28.7796C1.09531 29.1342 1.16951 29.3402 1.39795 29.4907C1.48386 29.5482 1.56977 29.6116 1.6752 29.6928L2.14379 30.0473L1.62639 30.2335C1.54243 30.2632 1.46433 30.289 1.38819 30.3148C1.23785 30.3643 1.10703 30.4079 0.991833 30.4633C0.851255 30.5326 0.792681 30.604 0.820015 30.8476C0.827825 30.9268 0.868827 31.117 1.05627 31.1487C1.15584 31.1645 1.24566 31.1705 1.33156 31.1705H1.3628C1.46433 31.1705 1.56781 31.1645 1.66934 31.1566C2.03446 31.1309 2.39762 31.1071 2.76273 31.0833C3.8405 31.014 4.95341 30.9407 6.04289 30.8298C7.55411 30.6713 9.08485 30.4732 10.5961 30.2415C11.9003 30.0592 13.1382 29.5264 14.173 28.7043C15.4343 27.6902 16.2914 26.2699 16.7874 24.3644C17.3731 22.1122 17.6094 19.757 17.5098 17.1601C17.4727 15.8805 17.0802 14.6425 16.3715 13.5768L16.3754 13.5847Z" fill="url(#paint7_linear_3681_7854)"/>
<path d="M99.1622 17.2713C99.129 16.4354 98.6194 15.8946 97.8677 15.8946H97.7915C97.0281 15.9342 96.2627 16.0313 95.513 16.1818C95.0327 16.2749 94.566 16.4156 94.072 16.5641C93.8553 16.6295 93.6366 16.6948 93.4141 16.7582L93.0431 16.8632V16.473C93.0431 16.374 93.1075 15.853 93.1134 15.8173L93.7538 11.5823C93.7811 11.4041 93.8085 11.2258 93.8358 11.0475C93.91 10.5682 93.9881 10.073 94.0389 9.58567C94.0506 9.48266 94.031 9.43116 94.0193 9.4173C94.0076 9.40343 93.9744 9.39551 93.9334 9.39551C93.9139 9.39551 93.8944 9.39551 93.8748 9.39947L93.8221 9.41135C92.6663 9.66094 91.5787 10.1205 90.5966 10.7722C90.458 10.8692 90.3584 11.0158 90.3174 11.1822C90.0929 12.5747 89.8898 13.997 89.6946 15.3736L89.6204 15.8906C89.3998 17.4317 89.1831 18.9728 88.9683 20.5159L88.3142 25.1153C88.1111 26.5594 87.9081 28.0034 87.7089 29.4474C87.6699 29.7425 87.6328 30.0694 87.5957 30.3982C87.5801 30.5408 87.5644 30.6834 87.5469 30.8241L90.5459 30.3348C90.6513 30.317 90.745 30.2655 90.8212 30.1843C90.8954 30.107 90.9442 30.01 90.9598 29.901C91.5494 26.0998 92.1371 22.2986 92.7209 18.4974C92.7463 18.1943 92.9298 17.9883 93.2286 17.9329C93.4063 17.8893 93.5839 17.8417 93.7616 17.7942C94.0525 17.717 94.3532 17.6377 94.6441 17.5743C94.7847 17.5387 94.9292 17.5169 95.0854 17.5129C95.2923 17.5129 95.4524 17.5783 95.5598 17.7051C95.7277 17.9032 95.7258 18.1844 95.6672 18.5727C95.4525 19.9949 95.2533 21.4072 95.058 22.772C94.9956 23.2058 94.9331 23.6376 94.8706 24.0714C94.6949 25.2897 94.5133 26.5514 94.3552 27.7914C94.2673 28.4887 94.2146 29.2355 94.1814 30.2199C94.1736 30.3962 94.2282 30.5666 94.3434 30.7072C94.4508 30.8459 94.6051 30.937 94.7808 30.9647C94.9546 30.9944 95.1322 31.0103 95.3099 31.0103C95.472 31.0103 95.636 30.9964 95.7941 30.9726C96.7118 30.8221 97.5182 30.3051 98.3402 29.3424C98.4378 29.2335 98.5217 29.1126 98.5901 28.9819C98.4964 28.9958 98.4105 29.0037 98.3245 29.0057H98.2933C98.0922 29.0057 97.8657 28.9918 97.7212 28.8195C97.5748 28.6452 97.5982 28.4174 97.6373 28.1797C97.7544 27.4567 97.8657 26.7317 97.977 26.0067L98.3109 23.8337C98.4964 22.6274 98.6838 21.4231 98.8634 20.2148C98.8869 20.0603 98.9103 19.9058 98.9357 19.7493C99.0684 18.9035 99.1934 18.1032 99.1582 17.2713H99.1622Z" fill="url(#paint8_linear_3681_7854)"/>
<path d="M86.1588 16.3622C85.7702 16.2968 85.3739 16.2651 84.9814 16.2651H84.8799C83.1149 16.2651 83.0836 16.2711 81.5138 16.6197L80.9398 16.7465L80.9047 16.7524H80.8969C80.1022 16.9386 79.5028 17.4596 79.1572 18.2578C78.6535 19.4345 78.4094 20.7319 78.4465 22.0155C78.4738 23.1723 78.9288 23.8101 80.0143 24.2201C80.2896 24.3251 80.5747 24.4143 80.8617 24.4875C81.2835 24.5945 81.7091 24.6955 82.1328 24.7966C82.4413 24.8698 82.7517 24.9431 83.0446 25.0144C83.2262 25.0501 83.396 25.1333 83.5347 25.2581C83.6733 25.3829 83.7768 25.5433 83.8334 25.7176C83.9213 25.9771 83.9564 26.2505 83.9388 26.5258C83.9213 26.8011 83.851 27.0666 83.7299 27.3142C83.6089 27.5618 83.4429 27.7797 83.2379 27.9599C83.0329 28.1402 82.7966 28.2769 82.537 28.364C82.1699 28.4848 81.7892 28.5542 81.4123 28.57C81.221 28.5839 81.0179 28.5898 80.8071 28.5898C79.9733 28.5819 79.1357 28.4928 78.3196 28.3244C78.2376 28.3086 78.1536 28.2986 78.0736 28.2986C77.8139 28.2986 77.6128 28.3898 77.48 28.8414C77.4234 29.0296 77.4058 29.2217 77.4273 29.4158C77.4488 29.61 77.5074 29.7942 77.603 29.9645C77.6987 30.1349 77.8256 30.2795 77.9779 30.3983C78.1322 30.5152 78.304 30.5984 78.4875 30.6439C78.9034 30.741 79.3349 30.8064 79.7644 30.8341C80.0534 30.8519 80.3502 30.8618 80.6782 30.8618H80.7641C81.5959 30.8618 82.4296 30.7687 83.2398 30.5845C84.7218 30.2379 85.659 29.4951 86.1061 28.3125C86.5532 27.1537 86.7621 25.9355 86.7309 24.6797C86.7348 24.3568 86.6469 24.0399 86.4809 23.7645C86.315 23.4892 86.0748 23.2693 85.7839 23.1228C85.3837 22.9128 84.96 22.7484 84.5246 22.6315C84.0189 22.4948 83.4937 22.3839 82.9841 22.275C82.697 22.2136 82.4081 22.1521 82.123 22.0868C81.5353 21.9521 81.3342 21.5619 81.2698 21.2588C81.1429 20.6844 81.2522 20.0941 81.5685 19.6405C81.8633 19.2166 82.3105 18.9492 82.8298 18.8838C83.1071 18.8501 83.3882 18.8343 83.6674 18.8343H83.7162C83.9544 18.8343 84.1887 18.8422 84.423 18.8501L85.1045 18.8699C85.6531 18.8858 86.1139 18.8957 86.5805 18.8957H86.7543C87.1038 18.8937 87.1936 18.8303 87.3205 18.5035C87.4904 18.0617 87.4513 17.5646 87.2131 17.1387C86.9827 16.7247 86.5961 16.4434 86.1568 16.3662L86.1588 16.3622Z" fill="url(#paint9_linear_3681_7854)"/>
<path d="M40.0041 16.6392L39.557 16.6451C38.9244 16.653 38.2703 16.659 37.6279 16.6946C36.4018 16.7461 35.1932 16.9898 34.0432 17.4156C31.9794 18.21 30.7962 19.5787 30.4253 21.5952C30.2515 22.5539 30.1187 23.5423 29.9899 24.4971C29.9371 24.8893 29.8844 25.2835 29.8298 25.6757C29.7829 26.0124 29.738 26.3511 29.6931 26.6879C29.6462 27.0405 29.6013 27.3911 29.5506 27.7417C29.4744 28.2567 29.2948 28.435 28.7813 28.5083C28.6309 28.5301 28.4786 28.5419 28.3264 28.5558C28.2463 28.5637 28.1662 28.5697 28.0881 28.5776C27.7445 28.6152 27.3989 28.6529 27.0553 28.6925C26.3114 28.7757 25.5421 28.8628 24.7807 28.9262C24.3511 28.9599 23.9157 28.9757 23.4842 28.9757H23.4413C23.2031 28.9757 22.9649 28.9718 22.7247 28.9639C22.3733 28.954 22.1878 28.7935 22.0921 28.6608C21.9281 28.431 21.9047 28.1062 22.0238 27.6941C22.2053 27.09 22.2991 26.4621 22.3049 25.8302C22.3049 25.6598 22.3108 25.3251 22.5431 25.125L21.9027 25.3865L22.7755 20.1294C22.836 19.755 22.9649 19.3984 23.1601 19.0716L23.33 18.7804C23.5096 18.4714 23.7888 18.2258 24.1168 18.0891C24.2632 18.0257 24.4175 17.994 24.5776 17.994H24.5815C24.6518 17.994 24.7221 18 24.7963 18.0139C24.9837 18.0436 25.1633 18.1228 25.3156 18.2397C25.4679 18.3565 25.589 18.511 25.6651 18.6794C25.7881 18.931 25.8311 19.2103 25.7901 19.4856L25.2903 23.2373C25.2668 23.4829 25.177 23.7166 25.0306 23.9128C24.8841 24.1089 24.6869 24.2614 24.4604 24.3505L24.4194 24.3664L22.9278 24.9725C22.9278 24.9725 22.9434 24.9705 22.9531 24.9705C23.902 24.8735 24.9154 24.7665 25.9385 24.6397C26.1513 24.614 26.3583 24.5526 26.5516 24.4614C26.7448 24.3683 26.9245 24.2475 27.0807 24.097C27.2369 23.9484 27.3696 23.7781 27.4731 23.5879C27.5766 23.3977 27.6508 23.1917 27.6918 22.9778C27.7953 22.4489 27.8773 21.9002 27.9573 21.3694L28.0237 20.9376C28.1096 20.3611 28.1916 19.8164 28.0667 19.2816C27.848 18.3447 27.2466 17.7385 26.2274 17.4315C25.7549 17.2849 25.2629 17.2096 24.7631 17.2096C23.7419 17.2096 22.6896 17.5424 21.6333 18.202C20.6473 18.8161 20.0029 19.6698 19.7159 20.7395C19.5949 21.1911 19.5226 21.6724 19.4523 22.136L19.386 22.5757C19.1751 23.9662 18.9584 25.4063 18.7729 26.8186C18.6635 27.6585 18.5933 28.4904 18.5581 29.2986C18.5444 29.5423 18.6128 29.7879 18.7495 29.9899C18.8861 30.192 19.0892 30.3425 19.3293 30.4198C19.6105 30.5208 19.8272 30.5683 20.0127 30.5683H20.0439L20.3934 30.5584C21.2662 30.5347 22.1663 30.5089 23.039 30.4019C24.9095 30.1741 26.7605 29.7106 28.3224 29.2867C28.506 29.2352 28.6895 29.1877 28.8769 29.1382L29.2733 29.0352L29.4178 29.4809C29.4686 29.6373 29.5154 29.7839 29.5662 29.9246C29.7126 30.3247 29.984 30.5386 30.3765 30.5584C30.5014 30.5663 30.6264 30.5683 30.7494 30.5683C31.095 30.5683 31.4425 30.5406 31.7842 30.4851C32.7194 30.3366 33.5512 29.881 34.2424 29.4551C34.3165 29.4095 34.3927 29.366 34.4727 29.3224L34.6016 29.2491L34.9179 29.0669L35.0253 29.4194L35.08 29.5997C35.121 29.7384 35.16 29.8691 35.2049 29.9879C35.2401 30.083 35.2889 30.1702 35.3514 30.2514C35.4744 30.4118 35.6403 30.5287 35.8336 30.5901C35.9273 30.6198 36.025 30.6357 36.1245 30.6357H36.1382C36.8841 30.6238 37.583 30.3485 38.2723 29.7978C38.6608 29.4848 39.063 29.1619 39.27 28.7182C39.2758 28.7063 39.2778 28.6905 39.2778 28.6766C39.2778 28.6628 39.2739 28.6489 39.2661 28.6331C39.2602 28.6212 39.2505 28.6093 39.2407 28.6014C39.229 28.5934 39.2173 28.5875 39.1977 28.5835L38.5183 28.429L38.5573 28.1577C38.5729 28.0448 38.5866 27.9338 38.6003 27.8249C38.6159 27.6922 38.6315 27.5634 38.651 27.4327C38.8932 25.8658 39.1333 24.301 39.3696 22.7342C39.6566 20.8246 39.9475 18.9171 40.2423 17.0096C40.2638 16.863 40.256 16.7481 40.2169 16.7025C40.1876 16.6669 40.1115 16.6451 40.008 16.6392H40.0041ZM36.9758 18.2971C36.9739 18.3823 36.9661 18.4694 36.9524 18.5724L35.5095 28.437C35.4861 28.5875 35.4138 28.7163 35.2986 28.8232C35.1834 28.9282 35.037 28.9856 34.8886 28.9856L33.0299 29.0391C32.9459 29.0391 32.8639 29.0233 32.7858 28.9896C32.7077 28.9559 32.6374 28.9064 32.5828 28.8509C32.4578 28.7281 32.3934 28.5677 32.3934 28.3696L32.3973 28.2904L33.8811 19.4519C34.0178 18.5645 34.4962 17.9485 35.2596 17.6672L35.6403 17.5246C35.8004 17.4513 35.9683 17.4077 36.1441 17.3958H36.1773C36.3335 17.3958 36.4838 17.4434 36.6088 17.5305C36.7337 17.6157 36.8333 17.7326 36.8977 17.8673C36.9602 18 36.9875 18.1485 36.9758 18.2971Z" fill="url(#paint10_linear_3681_7854)"/>
<path d="M77.0797 16.6372L76.7087 16.6412C76.082 16.6491 75.4318 16.6551 74.7973 16.6927C73.4364 16.768 72.2551 17.0037 71.1832 17.4157C69.4826 18.0733 68.4068 19.0895 67.8894 20.5236C67.6434 21.203 67.5223 21.9577 67.4032 22.6867L67.3974 22.7263C67.1709 24.1406 66.9893 25.5331 66.8409 26.7097C66.7374 27.5239 66.6261 28.4885 66.5695 29.4769C66.5402 30.0276 66.8526 30.4159 67.3974 30.5149C67.6219 30.5525 67.8523 30.5704 68.0807 30.5704C68.2526 30.5704 68.4244 30.5605 68.5981 30.5406C69.342 30.4634 70.0879 30.192 71.0212 29.6592C71.1656 29.576 71.3101 29.4908 71.4585 29.4017L72.1106 29.0174L72.2102 29.5344C72.2278 29.6196 72.2415 29.6948 72.2551 29.778C72.2883 30.0118 72.4016 30.2257 72.5773 30.3822C72.7511 30.5387 72.9756 30.6258 73.204 30.6298H73.2782C74.0826 30.6298 74.8285 30.299 75.6954 29.5562C76.041 29.2591 76.3221 28.9936 76.4295 28.6173L75.6876 28.441L75.7012 28.1914C75.7012 28.1577 75.7052 28.128 75.7052 28.0983C75.7071 28.025 75.711 27.9616 75.7208 27.8962L76.1816 24.9151L77.396 17.0275C77.4194 16.8789 77.4058 16.764 77.3628 16.7105C77.3218 16.663 77.2261 16.6353 77.0758 16.6353L77.0797 16.6372ZM74.19 18.4873V18.4933L72.6944 28.4271C72.6437 28.744 72.425 28.9322 72.1126 28.9322H70.0566C69.8985 28.9322 69.754 28.8708 69.6447 28.7599C69.5295 28.647 69.467 28.4984 69.467 28.334V28.3221L69.4728 28.2449L70.9587 19.3965C71.027 18.9825 71.2027 18.5943 71.4644 18.2754C71.726 17.9485 72.0716 17.7009 72.4601 17.5544L72.8448 17.4098C72.9561 17.3662 73.0732 17.3444 73.2001 17.3444C73.3427 17.3444 73.4871 17.3761 73.6141 17.4355C73.7449 17.4949 73.864 17.5861 73.9577 17.697C74.0534 17.8079 74.1197 17.9367 74.1607 18.0773C74.1978 18.208 74.2096 18.3487 74.192 18.4853L74.19 18.4873Z" fill="url(#paint11_linear_3681_7854)"/>
<path d="M65.2205 14.2645C64.6855 13.2087 63.8577 12.2936 62.5378 11.2952C60.2846 9.57983 57.7542 8.69044 55.0208 8.65479H54.8177C54.1519 8.65479 53.4842 8.70034 52.8926 8.74986L52.6251 8.77562C51.7894 8.85089 51.1295 9.09255 50.6082 9.5105C49.6495 10.281 49.261 11.1645 49.4191 12.2064C49.5089 12.7868 49.8037 13.3117 50.2489 13.6861C50.6765 14.0446 51.2154 14.2427 51.7699 14.2427H51.8441C52.9023 14.2427 53.6521 13.7415 54.0738 12.7571C54.1285 12.6303 54.1773 12.4996 54.23 12.3629L54.3862 11.9608L54.6205 12.0024C54.7884 12.0321 54.9563 12.0598 55.1242 12.0876C56.0068 12.2361 56.9205 12.3886 57.7816 12.769C59.3299 13.4543 60.2749 14.6349 60.5951 16.281C60.8059 17.4457 60.8118 18.6282 60.6087 19.789C60.4155 20.9854 60.1811 22.1937 59.9566 23.3624C59.8317 24.0082 59.7067 24.6539 59.5876 25.3016C59.285 26.9675 58.3888 28.0768 56.9303 28.5977C56.8483 28.6274 56.7624 28.6532 56.6569 28.6809L53.8649 29.4099L53.9762 28.6393C54.0172 28.3521 54.0582 28.0708 54.1011 27.7935L54.8724 22.782C55.1281 21.128 55.38 19.4741 55.6338 17.8201L55.7276 17.2119C55.8701 16.2968 56.0165 15.352 56.1434 14.421C56.1688 14.2308 56.1434 14.1417 56.1278 14.1238C56.12 14.1159 56.0829 14.0981 56.0048 14.0981C55.9443 14.0981 55.8838 14.106 55.8193 14.1179C54.4702 14.3536 53.1679 14.7894 51.9319 15.4252C51.8304 15.4688 51.7406 15.5421 51.6762 15.6332C51.6098 15.7244 51.5707 15.8333 51.559 15.964C51.1861 18.3965 50.8151 20.8666 50.4578 23.303C50.3739 23.8735 50.2919 24.4439 50.2099 25.0144C50.0478 26.1375 49.8818 27.3003 49.6944 28.4492C49.6846 28.5027 49.6788 28.5581 49.6729 28.6116L49.6319 29.0929C49.6241 29.1623 49.6319 29.2316 49.6573 29.295C49.6827 29.3584 49.7237 29.4158 49.7627 29.4475L50.655 30.0913L50.081 30.2656C50.0146 30.2854 49.9424 30.3191 49.8662 30.3547C49.792 30.3904 49.7178 30.4241 49.6417 30.4518C49.3176 30.5647 49.2746 30.7152 49.3098 30.9272C49.343 31.1372 49.507 31.256 49.7627 31.256C49.956 31.256 50.1513 31.2402 50.3563 31.2223L50.5027 31.2104C50.9323 31.1787 51.3638 31.149 51.7933 31.1193C52.8223 31.05 53.8883 30.9767 54.929 30.8717C56.243 30.7291 57.5726 30.5528 58.8867 30.3468C60.0503 30.1923 61.1886 29.7704 62.1746 29.1286C63.6624 28.1362 64.6562 26.6803 65.2107 24.6816C65.8238 22.4671 66.0835 20.0881 66.0073 17.4081C65.9859 16.3166 65.7145 15.2272 65.2205 14.2566V14.2645Z" fill="url(#paint12_linear_3681_7854)"/>
<path d="M47.1814 9.95815C46.8241 9.75809 46.4707 9.55208 46.1193 9.34409L45.7131 9.1064L45.4398 8.94397C45.1372 8.76371 44.8248 8.57752 44.5007 8.40122C44.4421 8.36557 44.3737 8.34576 44.3191 8.3418C44.2664 8.3418 44.2312 8.41707 44.2097 8.49036L44.1922 8.57553C44.1668 8.69636 44.1531 8.82116 44.1355 8.95387C44.1258 9.0331 44.116 9.11234 44.1043 9.18959C43.8837 10.7683 43.663 12.345 43.4405 13.9238L42.8352 18.2301L42.1772 22.9385L41.98 24.3231C41.8238 25.4205 41.6676 26.5198 41.5173 27.6172C41.4977 27.7677 41.4743 27.9183 41.4528 28.0688C41.3826 28.5442 41.3084 29.0375 41.3025 29.5109C41.2966 29.9249 41.3923 30.2378 41.5876 30.4379C41.775 30.632 42.062 30.7311 42.4408 30.7311C43.6259 30.6835 44.776 30.2319 45.6839 29.4594C45.9689 29.2157 46.2052 28.9246 46.3887 28.5938L46.3965 28.5779C46.254 28.5363 46.1056 28.5145 45.9553 28.5145C45.9318 28.5145 45.9084 28.5145 45.8713 28.5145H45.4691C45.3793 28.5145 45.2875 28.4947 45.2055 28.4551C45.1196 28.4135 45.0434 28.3521 44.9927 28.2867C44.9322 28.2134 44.8872 28.1263 44.8619 28.0332C44.8384 27.9401 44.8365 27.843 44.8521 27.7658C44.9693 26.9814 45.0903 26.197 45.2094 25.4125C45.3109 24.7589 45.4105 24.1052 45.5101 23.4496L46.2813 18.3271L47.0037 13.4939L47.4508 10.4553C47.4821 10.2592 47.4469 10.1008 47.1834 9.95221L47.1814 9.95815Z" fill="url(#paint13_linear_3681_7854)"/>
<path d="M16.1313 13.7494C15.364 12.5727 14.2901 11.7408 13.3373 11.0812C11.6094 9.86495 9.58857 9.12412 7.48965 8.93793C7.05035 8.89435 6.60128 8.87256 6.15807 8.87256H6.13464C5.5938 8.87256 5.05882 8.90029 4.50041 8.95773C3.93224 9.01518 3.27231 9.1162 2.68656 9.42323C1.69666 9.94419 1.08358 10.998 1.19487 11.9844C1.24564 12.438 1.44479 12.8718 1.75328 13.2046C2.06177 13.5374 2.4757 13.7632 2.9111 13.8424C3.07315 13.8682 3.24107 13.8821 3.41093 13.884C4.24659 13.884 4.83819 13.5156 5.22088 12.7589C5.29898 12.6064 5.36731 12.438 5.43955 12.2618C5.4747 12.1766 5.50984 12.0894 5.54694 12.0023L5.72852 11.5764C5.72852 11.5764 6.44508 11.6972 6.5798 11.719C7.52089 11.8735 8.49518 12.032 9.43042 12.4499C11.0764 13.1888 12.0741 14.4565 12.3962 16.2214C12.6032 17.3663 12.611 18.5291 12.4177 19.678C12.3572 20.0405 12.2908 20.4049 12.2264 20.7674L17.008 21.7796C17.213 20.3178 17.2833 18.7945 17.2208 17.1762C17.1857 15.952 16.8088 14.7675 16.1313 13.7494Z" fill="url(#paint14_linear_3681_7854)"/>
<path d="M3.59426 15.6232C3.42635 15.7103 3.37949 15.8034 3.36192 15.9183C3.21548 16.879 3.07295 17.8377 2.92651 18.7984L6.56593 19.569L7.19072 15.5321C7.2532 15.12 7.30982 14.7397 7.34887 14.3574C7.33325 14.3574 7.31959 14.3614 7.30592 14.3634C6.01338 14.5971 4.76379 15.021 3.59231 15.6232H3.59426Z" fill="url(#paint15_linear_3681_7854)"/>
<path d="M98.8694 17.2832C98.8421 16.6097 98.4574 16.1918 97.8658 16.1918H97.8053C97.0575 16.2294 96.3038 16.3245 95.5658 16.475C95.0992 16.5662 94.6403 16.7048 94.1483 16.8534C93.9316 16.9187 93.7129 16.9841 93.4923 17.0475L92.7503 17.2555V16.475C92.7503 16.3443 92.8206 15.7936 92.8245 15.7738L93.4649 11.5408C93.4923 11.3645 93.5196 11.1882 93.5489 10.9981C93.6133 10.586 93.6797 10.1602 93.7285 9.74023C92.6664 9.98784 91.6687 10.4197 90.7647 11.0198C90.6866 11.0753 90.6299 11.1545 90.6046 11.2476C90.38 12.6342 90.1789 14.0505 89.9856 15.4193L89.9114 15.9363C89.722 17.2535 89.5385 18.5708 89.355 19.89L92.2212 19.8543C92.2935 19.3908 92.3637 18.9273 92.436 18.4638C92.477 18.03 92.7542 17.723 93.1662 17.6477C93.3419 17.6041 93.5196 17.5566 93.7012 17.509C93.9921 17.4318 94.2947 17.3525 94.5818 17.2892C94.7458 17.2476 94.9098 17.2238 95.0933 17.2179C95.4623 17.2179 95.6771 17.3783 95.7903 17.513C96.0578 17.8279 96.0207 18.2499 95.9641 18.6183C95.9036 19.0164 95.845 19.4126 95.7884 19.8068L98.6449 19.7711C98.6488 19.7474 98.6527 19.7236 98.6566 19.6998C98.7854 18.8699 98.9084 18.0855 98.8753 17.2852L98.8694 17.2832Z" fill="url(#paint16_linear_3681_7854)"/>
<path d="M86.1119 16.6551C85.739 16.5937 85.3582 16.562 84.9814 16.562H84.8799C83.724 16.562 82.6228 16.6782 81.5763 16.9106L80.9944 17.0394L80.9417 17.0493C80.2525 17.2177 79.7292 17.6772 79.4266 18.3784C79.2489 18.7924 79.1064 19.2223 78.9971 19.662L81.1467 19.7987C81.1995 19.6838 81.26 19.5729 81.3322 19.4679C81.6759 18.9747 82.1952 18.6617 82.7985 18.5864C83.0875 18.5527 83.3804 18.5349 83.6713 18.5349H83.7182C83.9583 18.5349 84.1985 18.5428 84.4347 18.5508L85.1161 18.5706C85.6628 18.5864 86.1217 18.5963 86.5844 18.5963H86.7562C86.9007 18.5963 86.999 18.5283 87.051 18.3923C87.1877 18.0338 87.1565 17.6297 86.9612 17.2811C86.7738 16.9443 86.4653 16.7165 86.1138 16.6551H86.1119Z" fill="url(#paint17_linear_3681_7854)"/>
<path d="M30.7573 21.4467H33.2487L33.5923 19.4045C33.7466 18.4042 34.2894 17.707 35.1582 17.3861L35.3125 17.3286C34.9181 17.4277 34.5295 17.5485 34.1488 17.6911C32.2588 18.42 31.1498 19.6501 30.7593 21.4467H30.7573Z" fill="url(#paint18_linear_3681_7854)"/>
<path d="M26.1378 17.7109C25.6926 17.5743 25.2299 17.503 24.7594 17.501C23.7929 17.501 22.7913 17.8199 21.7838 18.4498C20.8642 19.0242 20.2628 19.8185 19.9973 20.8129C19.9426 21.0189 19.8977 21.2329 19.8586 21.4488H22.2602L22.4867 20.082C22.5531 19.67 22.6956 19.2778 22.9084 18.9192L23.0783 18.63C23.2442 18.3428 23.4844 18.1012 23.7695 17.9328L23.7655 17.9169L24.0038 17.8139C24.1853 17.7347 24.3786 17.6951 24.5817 17.6951C24.6695 17.6951 24.7555 17.703 24.8433 17.7189C25.0776 17.7565 25.3021 17.8555 25.4935 18.0021C25.6829 18.1487 25.8352 18.3408 25.9269 18.5469C26.0753 18.8539 26.128 19.1926 26.0792 19.5234L25.8215 21.4488H27.6451C27.651 21.4072 27.6588 21.3636 27.6646 21.322L27.7291 20.8902C27.8111 20.3435 27.8872 19.8265 27.7759 19.3471C27.5807 18.5112 27.0613 17.9922 26.1359 17.7129L26.1378 17.7109Z" fill="url(#paint19_linear_3681_7854)"/>
<path d="M37.6397 16.99C37.2121 17.0078 36.7884 17.0494 36.3687 17.1148C36.5151 17.1405 36.6518 17.198 36.7709 17.2832C36.9388 17.3981 37.0735 17.5545 37.1614 17.7388C37.2473 17.919 37.2824 18.1191 37.2687 18.3033C37.2668 18.4004 37.257 18.4994 37.2414 18.6143L36.8275 21.4469H39.2661C39.4926 19.9513 39.7191 18.4558 39.9495 16.9623C39.9495 16.9524 39.9514 16.9444 39.9534 16.9365L39.5609 16.9405C38.9323 16.9464 38.2801 16.9544 37.6417 16.988L37.6397 16.99Z" fill="url(#paint20_linear_3681_7854)"/>
<path d="M76.7089 16.9385C76.0861 16.9464 75.4398 16.9524 74.8131 16.988C74.3855 17.0118 73.9755 17.0514 73.583 17.1069C73.6357 17.1227 73.6865 17.1425 73.7334 17.1663C73.9032 17.2436 74.0575 17.3624 74.1785 17.505C74.3015 17.6496 74.3894 17.816 74.4401 17.9982C74.487 18.1627 74.5007 18.337 74.4831 18.5073V18.5172L74.116 20.9517H76.4981L77.1092 16.9841C77.1111 16.9662 77.1131 16.9504 77.115 16.9365C77.1053 16.9365 77.0936 16.9365 77.0818 16.9365L76.707 16.9405L76.7089 16.9385Z" fill="url(#paint21_linear_3681_7854)"/>
<path d="M68.1667 20.6268C68.1296 20.7318 68.0984 20.8408 68.0652 20.9497H70.4023L70.7206 19.056H70.7362C70.8358 18.7035 71.0076 18.3727 71.2399 18.0894C71.4469 17.8339 71.6968 17.6199 71.9799 17.4575C71.7437 17.5288 71.5152 17.6061 71.2907 17.6932C69.674 18.3172 68.6529 19.2779 68.1687 20.6268H68.1667Z" fill="url(#paint22_linear_3681_7854)"/>
<path d="M51.9124 15.8095C51.8753 15.861 51.8558 15.9185 51.846 16.0116C51.6722 17.1426 51.4985 18.2836 51.3267 19.4285L55.0344 19.791C55.1379 19.1195 55.2414 18.448 55.3429 17.7765L55.4366 17.1684C55.5694 16.3146 55.7197 15.35 55.8486 14.417C54.5365 14.6468 53.2635 15.0766 52.0471 15.7006C51.9925 15.7243 51.9475 15.762 51.9124 15.8095Z" fill="url(#paint23_linear_3681_7854)"/>
<path d="M64.9587 14.3994C64.4452 13.3852 63.6447 12.5018 62.3619 11.5332C60.1595 9.8554 57.6877 8.9878 55.0206 8.95215H54.8176C54.1674 8.95215 53.5133 8.99771 53.0408 9.03534L52.6523 9.071C51.8752 9.14231 51.266 9.3602 50.7916 9.7425C49.911 10.4516 49.5674 11.2182 49.7099 12.1591C49.7899 12.6682 50.0477 13.1277 50.4382 13.4565C50.813 13.7715 51.2855 13.9458 51.7678 13.9458H51.8459C52.7889 13.9458 53.4313 13.518 53.8062 12.6404C53.8569 12.5196 53.9058 12.3948 53.9604 12.2562L54.2045 11.6302L54.675 11.7134C54.843 11.7431 55.0089 11.7709 55.1768 11.7986C56.0769 11.9491 57.0082 12.1056 57.9025 12.5018C59.5445 13.2288 60.5481 14.4826 60.8859 16.2337C61.1045 17.434 61.1085 18.6503 60.9015 19.8447C60.8742 20.017 60.8429 20.1874 60.8156 20.3597L65.6128 20.8292C65.7143 19.7457 65.7514 18.6186 65.7182 17.4261C65.6987 16.3802 65.4371 15.3344 64.9626 14.4034L64.9587 14.3994Z" fill="url(#paint24_linear_3681_7854)"/>
<path d="M47.0389 10.2197C46.6796 10.0196 46.3262 9.81162 45.9709 9.60364L45.5628 9.36594L45.2895 9.20351C45.0239 9.04504 44.7506 8.88261 44.4597 8.72217C44.446 8.80734 44.4343 8.89846 44.4226 8.99354C44.4128 9.07475 44.4031 9.15795 44.3913 9.2352C44.1707 10.8139 43.9501 12.3907 43.7275 13.9694L43.1222 18.2757L42.8704 20.0763H45.719L45.9885 18.2915L46.7109 13.4603L47.158 10.4178C47.1717 10.3266 47.1775 10.2989 47.0369 10.2217L47.0389 10.2197Z" fill="url(#paint25_linear_3681_7854)"/>
</g>
<defs>
<linearGradient id="paint0_linear_3681_7854" x1="10.1762" y1="3.77392" x2="5.4385" y2="59.8537" gradientUnits="userSpaceOnUse">
<stop stop-color="#FBEEAD"/>
<stop offset="0.2" stop-color="#FCF0B3"/>
<stop offset="0.37" stop-color="#ECBE1D"/>
<stop offset="0.6" stop-color="#EDC22D"/>
</linearGradient>
<linearGradient id="paint1_linear_3681_7854" x1="94.6794" y1="10.9145" x2="89.9417" y2="66.9923" gradientUnits="userSpaceOnUse">
<stop stop-color="#FBEEAD"/>
<stop offset="0.2" stop-color="#FCF0B3"/>
<stop offset="0.37" stop-color="#ECBE1D"/>
<stop offset="0.6" stop-color="#EDC22D"/>
</linearGradient>
<linearGradient id="paint2_linear_3681_7854" x1="83.5406" y1="9.97388" x2="78.8029" y2="66.0516" gradientUnits="userSpaceOnUse">
<stop stop-color="#FBEEAD"/>
<stop offset="0.2" stop-color="#FCF0B3"/>
<stop offset="0.37" stop-color="#ECBE1D"/>
<stop offset="0.6" stop-color="#EDC22D"/>
</linearGradient>
<linearGradient id="paint3_linear_3681_7854" x1="30.8352" y1="5.52106" x2="26.0976" y2="61.5988" gradientUnits="userSpaceOnUse">
<stop stop-color="#FBEEAD"/>
<stop offset="0.2" stop-color="#FCF0B3"/>
<stop offset="0.37" stop-color="#ECBE1D"/>
<stop offset="0.6" stop-color="#EDC22D"/>
</linearGradient>
<linearGradient id="paint4_linear_3681_7854" x1="73.1475" y1="9.09447" x2="68.4098" y2="65.1722" gradientUnits="userSpaceOnUse">
<stop stop-color="#FBEEAD"/>
<stop offset="0.2" stop-color="#FCF0B3"/>
<stop offset="0.37" stop-color="#ECBE1D"/>
<stop offset="0.6" stop-color="#EDC22D"/>
</linearGradient>
<linearGradient id="paint5_linear_3681_7854" x1="58.3361" y1="7.84439" x2="53.5985" y2="63.9221" gradientUnits="userSpaceOnUse">
<stop stop-color="#FBEEAD"/>
<stop offset="0.2" stop-color="#FCF0B3"/>
<stop offset="0.37" stop-color="#ECBE1D"/>
<stop offset="0.6" stop-color="#EDC22D"/>
</linearGradient>
<linearGradient id="paint6_linear_3681_7854" x1="45.7075" y1="6.77717" x2="40.9698" y2="62.8549" gradientUnits="userSpaceOnUse">
<stop stop-color="#FBEEAD"/>
<stop offset="0.2" stop-color="#FCF0B3"/>
<stop offset="0.37" stop-color="#ECBE1D"/>
<stop offset="0.6" stop-color="#EDC22D"/>
</linearGradient>
<linearGradient id="paint7_linear_3681_7854" x1="9.17857" y1="34.011" x2="9.17857" y2="5.46926" gradientUnits="userSpaceOnUse">
<stop stop-color="#FBEEAD"/>
<stop offset="0.2" stop-color="#FCF0B3"/>
<stop offset="0.37" stop-color="#ECBE1D"/>
<stop offset="0.6" stop-color="#EDC22D"/>
</linearGradient>
<linearGradient id="paint8_linear_3681_7854" x1="93.3574" y1="34.0112" x2="93.3574" y2="5.46951" gradientUnits="userSpaceOnUse">
<stop stop-color="#FBEEAD"/>
<stop offset="0.2" stop-color="#FCF0B3"/>
<stop offset="0.37" stop-color="#ECBE1D"/>
<stop offset="0.6" stop-color="#EDC22D"/>
</linearGradient>
<linearGradient id="paint9_linear_3681_7854" x1="82.4218" y1="34.0114" x2="82.4218" y2="5.46964" gradientUnits="userSpaceOnUse">
<stop stop-color="#FBEEAD"/>
<stop offset="0.2" stop-color="#FCF0B3"/>
<stop offset="0.37" stop-color="#ECBE1D"/>
<stop offset="0.6" stop-color="#EDC22D"/>
</linearGradient>
<linearGradient id="paint10_linear_3681_7854" x1="29.4022" y1="34.011" x2="29.4022" y2="5.46928" gradientUnits="userSpaceOnUse">
<stop stop-color="#FBEEAD"/>
<stop offset="0.2" stop-color="#FCF0B3"/>
<stop offset="0.37" stop-color="#ECBE1D"/>
<stop offset="0.6" stop-color="#EDC22D"/>
</linearGradient>
<linearGradient id="paint11_linear_3681_7854" x1="71.9896" y1="34.0111" x2="71.9896" y2="5.46934" gradientUnits="userSpaceOnUse">
<stop stop-color="#FBEEAD"/>
<stop offset="0.2" stop-color="#FCF0B3"/>
<stop offset="0.37" stop-color="#ECBE1D"/>
<stop offset="0.6" stop-color="#EDC22D"/>
</linearGradient>
<linearGradient id="paint12_linear_3681_7854" x1="57.6605" y1="34.0113" x2="57.6605" y2="5.46962" gradientUnits="userSpaceOnUse">
<stop stop-color="#FBEEAD"/>
<stop offset="0.2" stop-color="#FCF0B3"/>
<stop offset="0.37" stop-color="#ECBE1D"/>
<stop offset="0.6" stop-color="#EDC22D"/>
</linearGradient>
<linearGradient id="paint13_linear_3681_7854" x1="44.3796" y1="34.0113" x2="44.3796" y2="5.4696" gradientUnits="userSpaceOnUse">
<stop stop-color="#FBEEAD"/>
<stop offset="0.2" stop-color="#FCF0B3"/>
<stop offset="0.37" stop-color="#ECBE1D"/>
<stop offset="0.6" stop-color="#EDC22D"/>
</linearGradient>
<linearGradient id="paint14_linear_3681_7854" x1="8.49323" y1="4.73461" x2="9.91579" y2="23.7119" gradientUnits="userSpaceOnUse">
<stop stop-color="#E4B92D"/>
<stop offset="1" stop-color="#FCCB29"/>
</linearGradient>
<linearGradient id="paint15_linear_3681_7854" x1="4.30106" y1="5.04952" x2="5.72362" y2="24.0268" gradientUnits="userSpaceOnUse">
<stop stop-color="#E4B92D"/>
<stop offset="1" stop-color="#FCCB29"/>
</linearGradient>
<linearGradient id="paint16_linear_3681_7854" x1="92.643" y1="-1.57226" x2="94.0655" y2="17.403" gradientUnits="userSpaceOnUse">
<stop stop-color="#E4B92D"/>
<stop offset="1" stop-color="#FCCB29"/>
</linearGradient>
<linearGradient id="paint17_linear_3681_7854" x1="81.6427" y1="-0.74842" x2="83.0652" y2="18.2288" gradientUnits="userSpaceOnUse">
<stop stop-color="#E4B92D"/>
<stop offset="1" stop-color="#FCCB29"/>
</linearGradient>
<linearGradient id="paint18_linear_3681_7854" x1="31.839" y1="2.98545" x2="33.2616" y2="21.9627" gradientUnits="userSpaceOnUse">
<stop stop-color="#E4B92D"/>
<stop offset="1" stop-color="#FCCB29"/>
</linearGradient>
<linearGradient id="paint19_linear_3681_7854" x1="22.6116" y1="3.6768" x2="24.0342" y2="22.6541" gradientUnits="userSpaceOnUse">
<stop stop-color="#E4B92D"/>
<stop offset="1" stop-color="#FCCB29"/>
</linearGradient>
<linearGradient id="paint20_linear_3681_7854" x1="37.1086" y1="2.5894" x2="38.5312" y2="21.5667" gradientUnits="userSpaceOnUse">
<stop stop-color="#E4B92D"/>
<stop offset="1" stop-color="#FCCB29"/>
</linearGradient>
<linearGradient id="paint21_linear_3681_7854" x1="74.0965" y1="-0.181771" x2="75.5191" y2="18.7935" gradientUnits="userSpaceOnUse">
<stop stop-color="#E4B92D"/>
<stop offset="1" stop-color="#FCCB29"/>
</linearGradient>
<linearGradient id="paint22_linear_3681_7854" x1="68.6392" y1="0.22632" x2="70.0618" y2="19.2036" gradientUnits="userSpaceOnUse">
<stop stop-color="#E4B92D"/>
<stop offset="1" stop-color="#FCCB29"/>
</linearGradient>
<linearGradient id="paint23_linear_3681_7854" x1="52.461" y1="1.43863" x2="53.8836" y2="20.4159" gradientUnits="userSpaceOnUse">
<stop stop-color="#E4B92D"/>
<stop offset="1" stop-color="#FCCB29"/>
</linearGradient>
<linearGradient id="paint24_linear_3681_7854" x1="56.7154" y1="1.11997" x2="58.1379" y2="20.0972" gradientUnits="userSpaceOnUse">
<stop stop-color="#E4B92D"/>
<stop offset="1" stop-color="#FCCB29"/>
</linearGradient>
<linearGradient id="paint25_linear_3681_7854" x1="44.0614" y1="2.06858" x2="45.4839" y2="21.0458" gradientUnits="userSpaceOnUse">
<stop stop-color="#E4B92D"/>
<stop offset="1" stop-color="#FCCB29"/>
</linearGradient>
<clipPath id="clip0_3681_7854">
<rect width="99.9974" height="40" fill="white"/>
</clipPath>
</defs>
</svg>
