<?xml version="1.0" encoding="UTF-8"?> <svg xmlns="http://www.w3.org/2000/svg" width="115" height="40" viewBox="0 0 115 40" fill="none"><path d="M18.338 8.81914H14.0905C12.8264 8.81914 11.8042 7.79525 11.8042 6.53302V2.28515C11.8043 1.0239 12.8265 0 14.0906 0H18.3381C19.6005 0 20.6234 1.0239 20.6234 2.28515V6.53302C20.6234 7.79525 19.6004 8.81914 18.338 8.81914Z" fill="#426DA9"></path><path d="M7.34987 18.3408H2.57139C1.15174 18.3408 0 17.1923 0 15.7702V10.9904C0 9.57148 1.15174 8.41925 2.57139 8.41925H7.34987C8.77025 8.41925 9.92159 9.57148 9.92159 10.9904V15.7702C9.92159 17.1923 8.77025 18.3408 7.34987 18.3408Z" fill="#6D2077"></path><path d="M6.8949 28.2592H3.97648C3.10887 28.2592 2.40381 27.5568 2.40381 26.6874V23.7702C2.40381 22.8997 3.10887 22.1961 3.97648 22.1961H6.8949C7.76292 22.1961 8.46684 22.8997 8.46684 23.7702V26.6874C8.46684 27.5568 7.76292 28.2592 6.8949 28.2592Z" fill="#AF1685"></path><path d="M14.7311 37.4814H11.2802C10.2545 37.4814 9.42285 36.652 9.42285 35.6245V32.1732C9.42285 31.1457 10.2544 30.3158 11.2802 30.3158H14.7311C15.7569 30.3158 16.5884 31.1456 16.5884 32.1732V35.6245C16.5884 36.652 15.7569 37.4814 14.7311 37.4814Z" fill="#E63888"></path><path d="M27.3779 10.5571H24.9869C24.2766 10.5571 23.7012 9.98002 23.7012 9.27186V6.8838C23.7012 6.17337 24.2765 5.59631 24.9869 5.59631H27.3779C28.0877 5.59631 28.662 6.17337 28.662 6.8838V9.27186C28.662 9.97993 28.0878 10.5571 27.3779 10.5571Z" fill="#E63888"></path><path d="M79.7002 12.1528C80.4602 12.1528 81.0754 11.5376 81.0754 10.7757C81.0754 10.015 80.4601 9.39673 79.7002 9.39673C78.9399 9.39673 78.3193 10.015 78.3193 10.7757C78.3193 11.5377 78.9398 12.1528 79.7002 12.1528Z" fill="#1D4F91"></path><path d="M29.4046 26.8506C29.1916 27.1703 28.8452 27.3299 28.4722 27.3299C28.2596 27.3299 28.0195 27.2767 27.8331 27.1703C27.5403 26.9835 27.3269 26.5843 27.3269 26.1848C27.3269 25.998 27.3804 25.8114 27.4868 25.652L30.6834 20.6183L27.4868 15.5845C27.3805 15.4246 27.3269 15.2115 27.3269 15.0247C27.3269 14.6522 27.5137 14.2526 27.8601 14.0657C28.0462 13.9594 28.233 13.9062 28.4457 13.9062C28.8186 13.9062 29.1916 14.0657 29.4046 14.3859L32.0149 18.514L34.6514 14.3859C34.8648 14.0657 35.2378 13.9062 35.6108 13.9062C35.8238 13.9062 36.0103 13.9593 36.1964 14.0657C36.5427 14.2526 36.7288 14.6522 36.7288 15.0247C36.7288 15.2115 36.6757 15.4246 36.5694 15.5845L33.3731 20.6183L36.5694 25.652C36.6757 25.8114 36.7288 25.998 36.7288 26.1848C36.7288 26.5843 36.5162 26.9835 36.2229 27.1703C36.0368 27.2767 35.7968 27.3299 35.5838 27.3299C35.2113 27.3299 34.8648 27.1703 34.6514 26.8506L32.0149 22.7489L29.4046 26.8506ZM40.7997 15.4777C41.9982 14.3859 43.623 13.7201 45.381 13.7201C49.2169 13.7201 52.2798 16.7832 52.2798 20.6183C52.2798 24.401 49.2169 27.4636 45.381 27.4636C43.623 27.4636 41.9982 26.7975 40.7997 25.7055V31.5918C40.7997 32.1778 40.2672 32.6837 39.655 32.6837C39.0952 32.6837 38.5362 32.1778 38.5362 31.5918V14.9184C38.5362 14.3328 39.0952 13.8264 39.655 13.8264C40.2672 13.8264 40.7997 14.3327 40.7997 14.9184V15.4777ZM45.381 16.0111C42.824 16.0111 40.7997 18.0346 40.7997 20.6183C40.7997 23.1754 42.8239 25.1993 45.381 25.1993C47.9651 25.1993 49.9886 23.1754 49.9886 20.6183C49.9886 18.0346 47.9651 16.0111 45.381 16.0111ZM71.7798 19.3665V26.2646C71.7798 26.8506 71.22 27.3565 70.661 27.3565C70.048 27.3565 69.5155 26.8506 69.5155 26.2646V14.9184C69.5155 14.3323 70.048 13.8264 70.661 13.8264C71.1942 13.8264 71.7524 14.3058 71.7798 14.8652C72.7118 14.1462 73.9104 13.7463 75.2153 13.7201C75.9346 13.7201 76.4667 14.2791 76.4667 14.8386C76.4667 15.4508 75.9081 16.0105 75.2153 16.0105C73.4311 16.0636 71.7798 16.7031 71.7798 19.3665ZM79.7158 13.8264C79.1036 13.8264 78.5711 14.3323 78.5711 14.9184V26.2646C78.5711 26.8506 79.1036 27.3565 79.7158 27.3565C80.2755 27.3565 80.8346 26.8506 80.8346 26.2646V14.9184C80.8346 14.3323 80.2755 13.8264 79.7158 13.8264ZM94.1795 14.9184C94.1795 14.3323 94.7111 13.8264 95.3241 13.8264C95.8836 13.8264 96.4429 14.3323 96.4429 14.9184V26.2646C96.4429 26.8506 95.8835 27.3565 95.3241 27.3565C94.7111 27.3565 94.1795 26.8506 94.1795 26.2646V25.7052C92.9543 26.797 91.3554 27.4628 89.5969 27.4628C85.7619 27.4628 82.6989 24.4007 82.6989 20.5652C82.6989 16.7833 85.7619 13.7202 89.5969 13.7202C91.3554 13.7202 92.9542 14.386 94.1795 15.4782V14.9184ZM89.597 25.1726C92.1542 25.1726 94.1795 23.1484 94.1795 20.5651C94.1795 18.0081 92.1542 15.9841 89.597 15.9841C87.0137 15.9841 84.9902 18.008 84.9902 20.5651C84.9902 23.1485 87.0137 25.1726 89.597 25.1726ZM107.975 19.4994C107.975 17.6089 106.324 15.9572 104.433 15.9572C102.595 15.9572 100.89 16.703 100.89 19.3665V26.2646C100.89 26.8506 100.331 27.3565 99.7714 27.3565C99.1584 27.3565 98.6266 26.8506 98.6266 26.2646V14.9184C98.6266 14.3323 99.1583 13.8264 99.7714 13.8264C100.304 13.8264 100.864 14.3058 100.89 14.8652C101.85 14.1189 103.075 13.7201 104.405 13.7201C107.495 13.7201 110.239 16.1441 110.239 19.1797V26.2645C110.239 26.8505 109.681 27.3564 109.121 27.3564C108.508 27.3564 107.975 26.8505 107.975 26.2645V19.4994ZM26.6972 20.1926C26.644 16.7031 23.5283 13.7201 19.8525 13.7201C16.0167 13.7201 12.9541 16.7832 12.9541 20.5651C12.9541 24.4005 16.0167 27.4628 19.8525 27.4628C21.6901 27.4628 23.3953 26.7438 24.6201 25.519C24.8598 25.3059 25.0196 24.9861 25.0196 24.6664C25.0196 24.0542 24.4868 23.5213 23.8742 23.5213C23.5283 23.5213 23.2085 23.7344 22.9688 23.9745C22.196 24.7997 21.0511 25.1726 19.8525 25.1726C17.5624 25.1726 15.6991 23.603 15.2982 21.4198H25.5791C25.5867 21.4198 25.5935 21.4172 25.6011 21.4172H25.6322C25.6512 21.4153 25.6702 21.4088 25.6896 21.4057C25.729 21.4 25.7682 21.3943 25.8062 21.3829C26.2916 21.2524 26.6972 20.788 26.6972 20.1926ZM19.8525 15.9842C21.918 15.9842 23.6338 17.3097 24.2194 19.1565H15.4584C16.044 17.3096 17.7622 15.9842 19.8525 15.9842ZM67.5991 20.1926C67.5453 16.7031 64.4291 13.7201 60.754 13.7201C56.9181 13.7201 53.854 16.7832 53.854 20.5651C53.854 24.4005 56.9181 27.4628 60.754 27.4628C62.5914 27.4628 64.2962 26.7438 65.521 25.519C65.7611 25.3059 65.9205 24.9861 65.9205 24.6664C65.9205 24.0542 65.3881 23.5213 64.7759 23.5213C64.4291 23.5213 64.109 23.7344 63.8697 23.9745C63.0973 24.7997 61.9518 25.1726 60.754 25.1726C58.4639 25.1726 56.5999 23.603 56.1992 21.4198H66.4628C66.4697 21.4198 66.4773 21.4172 66.4841 21.4172H66.533C66.5638 21.4145 66.5938 21.405 66.6242 21.3989C66.6398 21.3955 66.6558 21.3943 66.6709 21.3898C67.1723 21.274 67.5991 20.8025 67.5991 20.1926ZM60.7539 15.9842C62.8187 15.9842 64.5354 17.3097 65.1214 19.1565H56.359C56.9446 17.3096 58.6628 15.9842 60.7539 15.9842ZM113.096 24.9103C112.404 24.9103 111.82 25.477 111.82 26.1476C111.82 26.8182 112.404 27.3849 113.096 27.3849C113.801 27.3849 114.375 26.8298 114.375 26.1476C114.375 25.4653 113.801 24.9103 113.096 24.9103ZM114.151 26.1476C114.151 26.6988 113.678 27.1471 113.096 27.1471C112.526 27.1471 112.063 26.6987 112.063 26.1476C112.063 25.5965 112.526 25.1482 113.096 25.1482C113.678 25.1482 114.151 25.5966 114.151 26.1476ZM113.304 26.2637C113.443 26.1795 113.525 26.0307 113.525 25.8603C113.525 25.6018 113.328 25.407 113.067 25.407H112.882C112.782 25.407 112.709 25.4859 112.709 25.5946V26.7568C112.709 26.8241 112.766 26.8789 112.837 26.8789C112.908 26.8789 112.962 26.8265 112.962 26.7568V26.3258H113.057L113.285 26.8111C113.303 26.8524 113.346 26.879 113.393 26.879C113.413 26.879 113.435 26.8741 113.45 26.8667C113.495 26.8492 113.525 26.8072 113.525 26.7601C113.525 26.7452 113.525 26.7285 113.514 26.7081L113.304 26.2637ZM113.271 25.8603C113.271 25.8625 113.269 26.0787 113.07 26.0787H112.962V25.6511H113.07C113.269 25.6511 113.271 25.8516 113.271 25.8603Z" fill="#1D4F91"></path></svg> 