<svg width="176" height="32" viewBox="0 0 176 32" fill="none" xmlns="http://www.w3.org/2000/svg">
<path d="M61.2459 25.6189L59.8843 21.5969H52.3675C52.1604 22.2181 51.9408 22.8957 51.7149 23.6236L51.0937 25.6189H47.4482L54.1808 6.97729H58.0898L64.6467 25.6189H61.2459ZM56.1133 11.0306C55.6616 12.2981 55.2224 13.5216 54.8082 14.7138C54.3941 15.9059 53.9361 17.1671 53.4467 18.5098H58.8051L56.1133 11.0306Z" fill="#999999"/>
<path d="M75.5831 7.04004H68.7251V25.6628H71.8937V19.3193H75.5831C79.3416 19.3193 81.1674 17.7381 81.1674 14.4816V11.8463C81.1674 8.60867 79.3416 7.04004 75.5831 7.04004ZM71.8937 9.97023H75.5078C77.6537 9.97023 77.9988 10.5349 77.9988 11.8777V14.4879C77.9988 15.8055 77.6412 16.3953 75.5078 16.3953H71.8937V9.97023Z" fill="#999999"/>
<path d="M91.6901 7.04004H84.832V25.6628H88.0007V19.3193H91.6901C95.4485 19.3193 97.2744 17.7381 97.2744 14.4816V11.8463C97.2744 8.60867 95.4485 7.04004 91.6901 7.04004ZM88.0007 9.97023H91.6148C93.7607 9.97023 94.1058 10.5349 94.1058 11.8777V14.4879C94.1058 15.8055 93.7481 16.3953 91.6148 16.3953H88.0007V9.97023Z" fill="#999999"/>
<path d="M106.649 23.7992H115.251V25.6628H104.772V7.05884H106.649V23.7992Z" fill="#999999"/>
<path d="M131.728 20.2478C131.728 23.3474 129.802 25.8949 124.995 25.8949C120.189 25.8949 118.263 23.3537 118.263 20.2478V12.367C118.263 9.26742 120.189 6.71997 124.995 6.71997C129.802 6.71997 131.728 9.26115 131.728 12.367V20.2478ZM120.007 20.2729C120.007 22.9459 121.638 24.4455 125.064 24.4455C128.49 24.4455 130.115 22.9459 130.115 20.2729V12.3419C130.115 9.66899 128.484 8.16938 125.064 8.16938C121.638 8.16938 120.007 9.66899 120.007 12.3419V20.2729Z" fill="#999999"/>
<path d="M134.583 7.05884H136.446L142.463 23.7992L148.493 7.05884H150.401L143.712 25.669H141.24L134.583 7.05884Z" fill="#999999"/>
<path d="M156.173 25.669H154.297V7.05884H156.173V25.669Z" fill="#999999"/>
<path d="M165.165 9.29884V25.669H163.401V7.05884H166.168L174.269 22.9835V7.05884H176.032V25.669H173.792L165.165 9.29884Z" fill="#999999"/>
<path d="M33.3932 23.2095C31.0653 23.2095 29.1704 25.1044 29.1704 27.4322C29.1704 29.7601 31.0653 31.655 33.3932 31.655C35.721 31.655 37.6159 29.7601 37.6159 27.4322C37.6159 25.1106 35.721 23.2095 33.3932 23.2095ZM35.8904 27.4385C35.8904 28.8189 34.7673 29.9357 33.3932 29.9357C32.0128 29.9357 30.8959 28.8126 30.8959 27.4385C30.8959 26.0581 32.019 24.9412 33.3932 24.9412C34.7673 24.9412 35.8904 26.0581 35.8904 27.4385Z" fill="#999999"/>
<path d="M4.78769 23.2095C2.45984 23.2095 0.564941 25.1044 0.564941 27.4322C0.564941 29.7601 2.45984 31.655 4.78769 31.655C7.11553 31.655 9.01043 29.7601 9.01043 27.4322C9.01043 25.1106 7.11553 23.2095 4.78769 23.2095ZM7.28494 27.4385C7.28494 28.8189 6.1618 29.9357 4.78769 29.9357C3.40729 29.9357 2.29043 28.8126 2.29043 27.4385C2.29043 26.0581 3.41357 24.9412 4.78769 24.9412C6.1618 24.9412 7.28494 26.0581 7.28494 27.4385Z" fill="#999999"/>
<path d="M19.0875 0.0690918C16.7596 0.0690918 14.8647 1.96399 14.8647 4.29184C14.8647 6.61968 16.7596 8.51458 19.0875 8.51458C21.4153 8.51458 23.3102 6.61968 23.3102 4.29184C23.3102 1.96399 21.4153 0.0690918 19.0875 0.0690918ZM21.5847 4.29811C21.5847 5.6785 20.4616 6.79537 19.0875 6.79537C17.7071 6.79537 16.5902 5.67223 16.5902 4.29811C16.5902 2.91772 17.7134 1.80083 19.0875 1.80083C20.4679 1.79458 21.5847 2.91772 21.5847 4.29811Z" fill="#999999"/>
<path d="M31.8308 23.68L22.5006 6.88311L22.4128 6.71997L22.2936 6.86428C21.9736 7.26585 21.5783 7.58585 21.1328 7.83056L21.0198 7.8933L21.0826 8.00625L29.3398 22.8768C26.4598 22.2306 22.8771 21.8792 19.2065 21.8792C15.1594 21.8792 11.5641 22.2243 8.77826 22.8706L17.0355 8.00625L17.0983 7.8933L16.9853 7.83056C16.5336 7.59213 16.1445 7.26585 15.8245 6.86428L15.7053 6.71997L15.6175 6.88311L6.29356 23.68L6.21826 23.8117L6.3563 23.8619C6.81434 24.0188 7.23473 24.5898 7.60493 24.916L7.66767 24.9725L7.74297 24.9349L7.77434 24.9286C10.7485 24.1066 14.7077 23.6674 19.2128 23.6674C23.2661 23.6674 27.2002 24.1129 30.2998 24.9223L30.3626 25.0415L30.4818 24.9474L30.5069 24.9286C30.8834 24.5961 31.3038 24.0251 31.7618 23.8682L31.8998 23.818L31.8308 23.68Z" fill="#999999"/>
</svg>
