<svg width="154" height="25" viewBox="0 0 154 25" fill="none" xmlns="http://www.w3.org/2000/svg">
<path d="M46.5966 16.6277H41.976L41.354 18.5827H38.2441L42.4739 6.14282H46.0991L50.3285 18.5827H47.2186L46.5966 16.6277ZM45.7436 13.962L44.2865 9.39504L42.829 13.962H45.7436Z" fill="black"/>
<path d="M60.6851 14.1403C60.6851 16.7884 58.7655 18.8321 56.4375 18.8321C55.9434 18.8589 55.4495 18.7756 54.9915 18.5881C54.5336 18.4006 54.1231 18.1137 53.7897 17.748V22.1376H51.124V9.69738H53.7897V10.5329C54.123 10.1671 54.5335 9.88012 54.9915 9.69262C55.4494 9.50513 55.9434 9.42184 56.4375 9.4488C58.7655 9.4488 60.6851 11.4925 60.6851 14.1403ZM58.0194 14.1403C58.0264 13.8581 57.9769 13.5774 57.8738 13.3146C57.7707 13.0519 57.616 12.8124 57.419 12.6104C57.2219 12.4083 56.9864 12.2478 56.7263 12.1381C56.4662 12.0285 56.1868 11.972 55.9045 11.972C55.6223 11.972 55.3429 12.0285 55.0828 12.1381C54.8227 12.2478 54.5872 12.4083 54.3901 12.6104C54.193 12.8124 54.0384 13.0519 53.9353 13.3146C53.8321 13.5774 53.7826 13.8581 53.7897 14.1403C53.7826 14.4224 53.8321 14.7031 53.9353 14.9659C54.0384 15.2286 54.193 15.4681 54.3901 15.6701C54.5872 15.8722 54.8227 16.0328 55.0828 16.1424C55.3429 16.252 55.6223 16.3085 55.9045 16.3085C56.1868 16.3085 56.4662 16.252 56.7263 16.1424C56.9864 16.0328 57.2219 15.8722 57.419 15.6701C57.616 15.4681 57.7707 15.2286 57.8738 14.9659C57.9769 14.7031 58.0264 14.4224 58.0194 14.1403Z" fill="black"/>
<path d="M71.7554 14.1403C71.7554 16.7884 69.8358 18.8321 67.5078 18.8321C67.0137 18.8589 66.5198 18.7756 66.0618 18.5881C65.6039 18.4006 65.1934 18.1137 64.86 17.748V22.1376H62.1943V9.69738H64.86V10.5329C65.1933 10.1671 65.6038 9.88013 66.0618 9.69263C66.5197 9.50513 67.0137 9.42185 67.5078 9.4488C69.8358 9.4488 71.7554 11.4925 71.7554 14.1403ZM69.0897 14.1403C69.0967 13.8581 69.0472 13.5774 68.9441 13.3146C68.841 13.0519 68.6864 12.8124 68.4893 12.6104C68.2922 12.4083 68.0567 12.2478 67.7966 12.1381C67.5365 12.0285 67.2571 11.972 66.9748 11.972C66.6926 11.972 66.4132 12.0285 66.1531 12.1381C65.893 12.2478 65.6575 12.4083 65.4604 12.6104C65.2633 12.8124 65.1087 13.0519 65.0056 13.3146C64.9025 13.5774 64.853 13.8581 64.86 14.1403C64.853 14.4224 64.9025 14.7031 65.0056 14.9659C65.1087 15.2286 65.2633 15.4681 65.4604 15.6701C65.6575 15.8722 65.893 16.0328 66.1531 16.1424C66.4132 16.252 66.6926 16.3085 66.9748 16.3085C67.2571 16.3085 67.5365 16.252 67.7966 16.1424C68.0567 16.0328 68.2922 15.8722 68.4893 15.6701C68.6864 15.4681 68.841 15.2286 68.9441 14.9659C69.0472 14.7031 69.0967 14.4224 69.0897 14.1403Z" fill="black"/>
<path d="M84.3736 12.3626C84.4001 13.1716 84.2632 13.9776 83.9712 14.7325C83.6792 15.4874 83.238 16.1757 82.674 16.7563C82.1101 17.3368 81.4349 17.7978 80.6888 18.1116C79.9427 18.4254 79.141 18.5857 78.3316 18.5827H73.3555V6.14286H78.3316C79.141 6.13991 79.9426 6.30012 80.6887 6.6139C81.4348 6.92769 82.11 7.38862 82.6739 7.96917C83.2379 8.54973 83.6791 9.23798 83.9711 9.99284C84.2631 10.7477 84.4 11.5537 84.3736 12.3626ZM81.6371 12.3626C81.6371 10.2302 80.2862 8.87969 78.3316 8.87969H76.1989V15.8459H78.3316C80.2862 15.8459 81.6371 14.4953 81.6371 12.3626Z" fill="black"/>
<path d="M85.6211 7.31567C85.6211 6.99936 85.715 6.69016 85.8907 6.42718C86.0665 6.1642 86.3163 5.95924 86.6085 5.83823C86.9008 5.71721 87.2223 5.68557 87.5326 5.74732C87.8428 5.80906 88.1277 5.96141 88.3514 6.1851C88.575 6.40878 88.7273 6.69377 88.789 7.00401C88.8507 7.31424 88.819 7.6358 88.6979 7.92802C88.5768 8.22024 88.3718 8.47 88.1088 8.6457C87.8457 8.8214 87.5365 8.91517 87.2202 8.91513C86.7974 8.91084 86.3931 8.74093 86.0941 8.44189C85.7951 8.14285 85.6253 7.73851 85.6211 7.31567ZM85.8876 9.69699H88.5532V18.5827H85.8876V9.69699Z" fill="black"/>
<path d="M97.3157 15.9174C97.3157 17.9611 95.5385 18.832 93.6193 18.832C91.8421 18.832 90.4915 18.1567 89.7983 16.7171L92.1085 15.402C92.2018 15.7236 92.4028 16.0033 92.6779 16.1942C92.953 16.3851 93.2853 16.4757 93.6192 16.4507C94.2587 16.4507 94.5789 16.255 94.5789 15.8995C94.5789 14.922 90.2072 15.4374 90.2072 12.3629C90.2072 10.4258 91.842 9.44871 93.6901 9.44871C94.3849 9.42681 95.073 9.59165 95.6825 9.92606C96.292 10.2605 96.8006 10.7522 97.1555 11.35L94.8807 12.5764C94.781 12.3435 94.6149 12.1452 94.4032 12.0061C94.1914 11.867 93.9434 11.7933 93.6901 11.7942C93.228 11.7942 92.9436 11.972 92.9436 12.2921C92.9437 13.305 97.3157 12.6298 97.3157 15.9174Z" fill="black"/>
<path d="M98.1151 14.1402C98.1169 13.1138 98.4547 12.1162 99.0768 11.2998C99.699 10.4835 100.571 9.89322 101.56 9.61925C102.55 9.34528 103.601 9.40266 104.555 9.78263C105.508 10.1626 106.311 10.8443 106.841 11.7235L104.513 13.074C104.351 12.7602 104.103 12.4996 103.797 12.3231C103.491 12.1466 103.141 12.0618 102.789 12.0786C102.251 12.0928 101.741 12.3163 101.366 12.7013C100.991 13.0864 100.781 13.6027 100.781 14.1402C100.781 14.6777 100.991 15.194 101.366 15.5791C101.741 15.9641 102.251 16.1876 102.789 16.2018C103.142 16.221 103.493 16.1371 103.799 15.9603C104.105 15.7836 104.353 15.5217 104.513 15.2064L106.841 16.5394C106.438 17.2466 105.853 17.8326 105.147 18.236C104.44 18.6393 103.638 18.8452 102.824 18.832C102.204 18.8464 101.586 18.7351 101.009 18.5046C100.433 18.2741 99.9086 17.9294 99.4686 17.491C99.0287 17.0527 98.6819 16.5298 98.4493 15.954C98.2167 15.3781 98.103 14.7612 98.1151 14.1402Z" fill="black"/>
<path d="M107.289 14.14C107.285 13.2079 107.558 12.2956 108.074 11.5189C108.589 10.7421 109.323 10.1358 110.184 9.77663C111.044 9.41749 111.991 9.32172 112.906 9.50145C113.821 9.68118 114.661 10.1283 115.322 10.7862C115.982 11.4441 116.433 12.2832 116.616 13.1973C116.799 14.1113 116.707 15.0591 116.351 15.9206C115.995 16.7822 115.391 17.5187 114.616 18.0369C113.841 18.5552 112.93 18.8318 111.998 18.8318C111.379 18.8388 110.765 18.7223 110.192 18.4891C109.618 18.256 109.097 17.911 108.659 17.4741C108.22 17.0373 107.873 16.5175 107.638 15.945C107.403 15.3725 107.284 14.7589 107.289 14.14ZM114.042 14.14C114.031 13.7381 113.903 13.3481 113.672 13.0189C113.441 12.6896 113.118 12.4358 112.744 12.2891C112.369 12.1425 111.96 12.1094 111.567 12.1942C111.174 12.279 110.815 12.4778 110.534 12.7658C110.253 13.0537 110.064 13.4181 109.989 13.8132C109.915 14.2083 109.958 14.6166 110.114 14.9871C110.271 15.3576 110.533 15.6738 110.868 15.8961C111.203 16.1184 111.596 16.237 111.998 16.237C112.273 16.2444 112.546 16.1948 112.801 16.0913C113.056 15.9879 113.287 15.8328 113.479 15.6358C113.671 15.4388 113.82 15.2042 113.917 14.9468C114.014 14.6894 114.056 14.4147 114.042 14.14Z" fill="black"/>
<path d="M126.482 9.69727L123.195 18.583H120.173L116.886 9.69727H119.836L121.684 15.3308L123.532 9.69727H126.482Z" fill="black"/>
<path d="M131.617 16.4503C131.933 16.4597 132.247 16.4046 132.54 16.2884C132.833 16.1722 133.1 15.9974 133.323 15.7747L135.456 17.0011C135.013 17.6036 134.427 18.0864 133.75 18.406C133.074 18.7255 132.329 18.8718 131.582 18.8316C128.543 18.8316 126.659 16.788 126.659 14.1398C126.64 13.5155 126.75 12.894 126.981 12.3138C127.212 11.7336 127.561 11.2072 128.004 10.7672C128.447 10.3272 128.976 9.98313 129.558 9.75626C130.14 9.52938 130.762 9.42458 131.387 9.44838C131.996 9.444 132.599 9.56372 133.161 9.80023C133.722 10.0367 134.229 10.3851 134.652 10.8241C135.074 11.263 135.402 11.7834 135.617 12.3535C135.832 12.9235 135.928 13.5313 135.9 14.1398C135.902 14.498 135.866 14.8553 135.794 15.206H129.485C129.653 15.6198 129.953 15.9662 130.339 16.1913C130.725 16.4164 131.174 16.5075 131.617 16.4503ZM133.252 13.2156C133.125 12.8086 132.871 12.4529 132.527 12.2004C132.184 11.9478 131.768 11.8116 131.342 11.8116C130.916 11.8116 130.5 11.9478 130.157 12.2004C129.813 12.4529 129.559 12.8086 129.432 13.2156H133.252Z" fill="black"/>
<path d="M142.745 9.51963V12.5408C141.643 12.363 140.08 12.8076 140.08 14.567V18.5831H137.414V9.69739H140.08V11.279C140.275 10.7375 140.64 10.2736 141.12 9.95657C141.601 9.63951 142.171 9.48624 142.745 9.51963Z" fill="black"/>
<path d="M153.054 9.69727L150.015 18.3166C149.02 21.1421 147.438 22.2616 144.95 22.1375V19.6492C146.194 19.6492 146.781 19.2583 147.172 18.1742L143.635 9.69727H146.567L148.54 15.1355L150.211 9.69727H153.054Z" fill="black"/>
<path d="M13.2227 24.9083C20.0681 24.9083 25.6173 19.3591 25.6173 12.5137C25.6173 5.66839 20.0681 0.119141 13.2227 0.119141C6.37737 0.119141 0.828125 5.66839 0.828125 12.5137C0.828125 19.3591 6.37737 24.9083 13.2227 24.9083Z" fill="#FC326C"/>
<path d="M13.221 20.7646C17.7779 20.7646 21.4719 17.0706 21.4719 12.5138C21.4719 7.95696 17.7779 4.26294 13.221 4.26294C8.66424 4.26294 4.97021 7.95696 4.97021 12.5138C4.97021 17.0706 8.66424 20.7646 13.221 20.7646Z" fill="#FF5B3B"/>
<path d="M13.2228 16.6206C15.4911 16.6206 17.3298 14.7818 17.3298 12.5136C17.3298 10.2453 15.4911 8.40649 13.2228 8.40649C10.9545 8.40649 9.11572 10.2453 9.11572 12.5136C9.11572 14.7818 10.9545 16.6206 13.2228 16.6206Z" fill="#FF9E1D"/>
<path opacity="0.6" d="M25.6184 12.5135C25.6216 9.9252 24.8104 7.40152 23.2998 5.2998L13.856 11.4997C13.6629 11.5927 13.5 11.7383 13.386 11.9198C13.2719 12.1013 13.2114 12.3113 13.2114 12.5256C13.2114 12.74 13.2719 12.95 13.386 13.1315C13.5 13.313 13.6629 13.4586 13.856 13.5516L23.288 19.7437C24.8061 17.6388 25.6216 15.1087 25.6184 12.5135Z" fill="white"/>
</svg>
